<svg width="158" height="169" viewBox="0 0 158 169" fill="none" xmlns="http://www.w3.org/2000/svg">
<path d="M0.4 13L4.736 1.8H6.496L10.8 13H8.96L6.4 6.248C6.368 6.17333 6.304 5.992 6.208 5.704C6.12267 5.416 6.02133 5.096 5.904 4.744C5.78667 4.392 5.68 4.072 5.584 3.784C5.488 3.48533 5.424 3.29333 5.392 3.208L5.76 3.192C5.696 3.37333 5.616 3.60267 5.52 3.88C5.43467 4.15733 5.33867 4.45067 5.232 4.76C5.136 5.06933 5.04 5.36267 4.944 5.64C4.848 5.90667 4.768 6.13067 4.704 6.312L2.16 13H0.4ZM2.32 10.216L2.96 8.552H8.048L8.784 10.216H2.32ZM15.1429 13.16C14.5455 13.16 14.0229 13.0213 13.5749 12.744C13.1375 12.4667 12.7962 12.0773 12.5509 11.576C12.3162 11.0747 12.1989 10.4773 12.1989 9.784V4.6H13.8469V9.336C13.8469 10.072 14.0175 10.6533 14.3589 11.08C14.7109 11.5067 15.1962 11.72 15.8149 11.72C16.1242 11.72 16.4069 11.672 16.6629 11.576C16.9189 11.4693 17.1375 11.3253 17.3189 11.144C17.5109 10.9627 17.6602 10.744 17.7669 10.488C17.8735 10.232 17.9269 9.95467 17.9269 9.656V4.6H19.5749V13H17.9269V11.24L18.2149 11.048C18.0869 11.4427 17.8682 11.8 17.5589 12.12C17.2602 12.44 16.9029 12.696 16.4869 12.888C16.0709 13.0693 15.6229 13.16 15.1429 13.16ZM25.4544 13.16C24.6757 13.16 23.977 12.968 23.3584 12.584C22.7504 12.2 22.265 11.6773 21.9024 11.016C21.5504 10.3547 21.3744 9.61333 21.3744 8.792C21.3744 7.97067 21.5504 7.22933 21.9024 6.568C22.265 5.90667 22.7504 5.384 23.3584 5C23.977 4.616 24.6757 4.424 25.4544 4.424C26.201 4.424 26.8784 4.57867 27.4864 4.888C28.105 5.18667 28.5744 5.59733 28.8944 6.12L27.9824 7.24C27.8117 6.99467 27.593 6.77067 27.3264 6.568C27.0597 6.36533 26.777 6.20533 26.4784 6.088C26.1797 5.97067 25.8917 5.912 25.6144 5.912C25.1024 5.912 24.6437 6.04 24.2384 6.296C23.8437 6.54133 23.529 6.88267 23.2944 7.32C23.0597 7.75733 22.9424 8.248 22.9424 8.792C22.9424 9.336 23.065 9.82667 23.3104 10.264C23.5557 10.6907 23.881 11.032 24.2864 11.288C24.6917 11.544 25.1397 11.672 25.6304 11.672C25.9184 11.672 26.1957 11.624 26.4624 11.528C26.7397 11.432 27.0064 11.288 27.2624 11.096C27.5184 10.904 27.7584 10.6693 27.9824 10.392L28.8944 11.512C28.553 11.992 28.0624 12.3867 27.4224 12.696C26.793 13.0053 26.137 13.16 25.4544 13.16ZM31.4889 13V2.456H33.1369V13H31.4889ZM29.7449 6.2V4.6H35.0889V6.2H29.7449ZM36.8615 13V4.6H38.5095V13H36.8615ZM37.6615 2.744C37.3095 2.744 37.0375 2.65333 36.8455 2.472C36.6535 2.29067 36.5575 2.03467 36.5575 1.704C36.5575 1.39467 36.6535 1.144 36.8455 0.952C37.0482 0.76 37.3202 0.664 37.6615 0.664C38.0135 0.664 38.2855 0.754666 38.4775 0.936C38.6695 1.11733 38.7655 1.37333 38.7655 1.704C38.7655 2.01333 38.6642 2.264 38.4615 2.456C38.2695 2.648 38.0028 2.744 37.6615 2.744ZM44.8186 13.16C43.9973 13.16 43.2613 12.9733 42.6106 12.6C41.9706 12.216 41.464 11.6987 41.0906 11.048C40.7173 10.3867 40.5306 9.63467 40.5306 8.792C40.5306 7.94933 40.7173 7.20267 41.0906 6.552C41.464 5.89067 41.9706 5.37333 42.6106 5C43.2613 4.616 43.9973 4.424 44.8186 4.424C45.6293 4.424 46.3546 4.616 46.9946 5C47.6453 5.37333 48.1573 5.89067 48.5306 6.552C48.904 7.20267 49.0906 7.94933 49.0906 8.792C49.0906 9.63467 48.904 10.3867 48.5306 11.048C48.1573 11.6987 47.6453 12.216 46.9946 12.6C46.3546 12.9733 45.6293 13.16 44.8186 13.16ZM44.8186 11.656C45.32 11.656 45.768 11.5333 46.1626 11.288C46.5573 11.032 46.8666 10.6907 47.0906 10.264C47.3146 9.82667 47.4213 9.336 47.4106 8.792C47.4213 8.23733 47.3146 7.74667 47.0906 7.32C46.8666 6.88267 46.5573 6.54133 46.1626 6.296C45.768 6.05067 45.32 5.928 44.8186 5.928C44.3173 5.928 43.864 6.056 43.4586 6.312C43.064 6.55733 42.7546 6.89867 42.5306 7.336C42.3066 7.76267 42.2 8.248 42.2106 8.792C42.2 9.336 42.3066 9.82667 42.5306 10.264C42.7546 10.6907 43.064 11.032 43.4586 11.288C43.864 11.5333 44.3173 11.656 44.8186 11.656ZM50.8864 13V4.6H52.5344V6.328L52.2464 6.52C52.353 6.14667 52.561 5.80533 52.8704 5.496C53.1797 5.176 53.5477 4.92 53.9744 4.728C54.401 4.52533 54.8384 4.424 55.2864 4.424C55.9264 4.424 56.4597 4.552 56.8864 4.808C57.313 5.05333 57.633 5.432 57.8464 5.944C58.0597 6.456 58.1664 7.10133 58.1664 7.88V13H56.5184V7.992C56.5184 7.512 56.4544 7.11733 56.3264 6.808C56.1984 6.488 56.001 6.25867 55.7344 6.12C55.4677 5.97067 55.137 5.90667 54.7424 5.928C54.4224 5.928 54.129 5.98133 53.8624 6.088C53.5957 6.184 53.361 6.32267 53.1584 6.504C52.9664 6.68533 52.8117 6.89867 52.6944 7.144C52.5877 7.37867 52.5344 7.63467 52.5344 7.912V13H51.7184C51.5797 13 51.441 13 51.3024 13C51.1637 13 51.025 13 50.8864 13ZM63.202 13.16C62.498 13.16 61.8633 13.0373 61.298 12.792C60.7327 12.5467 60.2633 12.184 59.89 11.704L61.01 10.744C61.33 11.1173 61.6767 11.3893 62.05 11.56C62.434 11.72 62.866 11.8 63.346 11.8C63.538 11.8 63.714 11.7787 63.874 11.736C64.0447 11.6827 64.1887 11.608 64.306 11.512C64.434 11.416 64.53 11.304 64.594 11.176C64.658 11.0373 64.69 10.888 64.69 10.728C64.69 10.4507 64.5887 10.2267 64.386 10.056C64.2793 9.98133 64.1087 9.90133 63.874 9.816C63.65 9.72 63.3567 9.624 62.994 9.528C62.3753 9.368 61.8687 9.18667 61.474 8.984C61.0793 8.78133 60.7753 8.552 60.562 8.296C60.402 8.09333 60.2847 7.87467 60.21 7.64C60.1353 7.39467 60.098 7.128 60.098 6.84C60.098 6.37067 60.2313 5.95467 60.498 5.592C60.7647 5.22933 61.122 4.94667 61.57 4.744C62.0287 4.53067 62.5407 4.424 63.106 4.424C63.5007 4.424 63.89 4.47733 64.274 4.584C64.6687 4.69067 65.0313 4.84533 65.362 5.048C65.6927 5.25067 65.97 5.49067 66.194 5.768L65.25 6.808C65.0473 6.60533 64.8233 6.42933 64.578 6.28C64.3433 6.12 64.1033 5.99733 63.858 5.912C63.6127 5.82667 63.3887 5.784 63.186 5.784C62.962 5.784 62.7593 5.80533 62.578 5.848C62.3967 5.89067 62.242 5.95467 62.114 6.04C61.9967 6.12533 61.906 6.232 61.842 6.36C61.778 6.488 61.746 6.632 61.746 6.792C61.7567 6.93067 61.7887 7.064 61.842 7.192C61.906 7.30933 61.9913 7.41067 62.098 7.496C62.2153 7.58133 62.3913 7.672 62.626 7.768C62.8607 7.864 63.1593 7.95467 63.522 8.04C64.0553 8.17867 64.4927 8.33333 64.834 8.504C65.186 8.664 65.4633 8.85067 65.666 9.064C65.8793 9.26667 66.0287 9.50133 66.114 9.768C66.1993 10.0347 66.242 10.3333 66.242 10.664C66.242 11.144 66.1033 11.576 65.826 11.96C65.5593 12.3333 65.1967 12.6267 64.738 12.84C64.2793 13.0533 63.7673 13.16 63.202 13.16ZM1.568 44V32.8H6.128C6.736 32.8 7.28533 32.9547 7.776 33.264C8.27733 33.5627 8.67733 33.9733 8.976 34.496C9.27467 35.0187 9.424 35.6 9.424 36.24C9.424 36.88 9.27467 37.4613 8.976 37.984C8.67733 38.5067 8.27733 38.928 7.776 39.248C7.28533 39.5573 6.736 39.712 6.128 39.712H3.296V44H1.568ZM3.296 38.048H6.096C6.384 38.048 6.64533 37.968 6.88 37.808C7.11467 37.6373 7.30133 37.4187 7.44 37.152C7.58933 36.8747 7.664 36.5707 7.664 36.24C7.664 35.9093 7.58933 35.6107 7.44 35.344C7.30133 35.0773 7.11467 34.864 6.88 34.704C6.64533 34.544 6.384 34.464 6.096 34.464H3.296V38.048ZM11.2926 44V35.6H12.9566V38.24L12.7966 37.6C12.914 37.1947 13.1113 36.8267 13.3886 36.496C13.6766 36.1653 14.002 35.904 14.3646 35.712C14.738 35.52 15.122 35.424 15.5166 35.424C15.698 35.424 15.8686 35.44 16.0286 35.472C16.1993 35.504 16.3326 35.5413 16.4286 35.584L15.9966 37.376C15.8686 37.3227 15.7246 37.28 15.5646 37.248C15.4153 37.2053 15.266 37.184 15.1166 37.184C14.8286 37.184 14.5513 37.2427 14.2846 37.36C14.0286 37.4667 13.7993 37.6213 13.5966 37.824C13.4046 38.016 13.25 38.2453 13.1326 38.512C13.0153 38.768 12.9566 39.0507 12.9566 39.36V44H11.2926ZM18.0178 44V35.6H19.6658V44H18.0178ZM18.8178 33.744C18.4658 33.744 18.1938 33.6533 18.0018 33.472C17.8098 33.2907 17.7138 33.0347 17.7138 32.704C17.7138 32.3947 17.8098 32.144 18.0018 31.952C18.2044 31.76 18.4764 31.664 18.8178 31.664C19.1698 31.664 19.4418 31.7547 19.6338 31.936C19.8258 32.1173 19.9218 32.3733 19.9218 32.704C19.9218 33.0133 19.8204 33.264 19.6178 33.456C19.4258 33.648 19.1591 33.744 18.8178 33.744ZM23.2389 44V33.456H24.8869V44H23.2389ZM21.4949 37.2V35.6H26.8389V37.2H21.4949ZM28.6115 44V35.6H30.2595V44H28.6115ZM29.4115 33.744C29.0595 33.744 28.7875 33.6533 28.5955 33.472C28.4035 33.2907 28.3075 33.0347 28.3075 32.704C28.3075 32.3947 28.4035 32.144 28.5955 31.952C28.7982 31.76 29.0702 31.664 29.4115 31.664C29.7635 31.664 30.0355 31.7547 30.2275 31.936C30.4195 32.1173 30.5155 32.3733 30.5155 32.704C30.5155 33.0133 30.4142 33.264 30.2115 33.456C30.0195 33.648 29.7528 33.744 29.4115 33.744ZM32.0406 44L36.3766 32.8H38.1366L42.4406 44H40.6006L38.0406 37.248C38.0086 37.1733 37.9446 36.992 37.8486 36.704C37.7633 36.416 37.662 36.096 37.5446 35.744C37.4273 35.392 37.3206 35.072 37.2246 34.784C37.1286 34.4853 37.0646 34.2933 37.0326 34.208L37.4006 34.192C37.3366 34.3733 37.2566 34.6027 37.1606 34.88C37.0753 35.1573 36.9793 35.4507 36.8726 35.76C36.7766 36.0693 36.6806 36.3627 36.5846 36.64C36.4886 36.9067 36.4086 37.1307 36.3446 37.312L33.8006 44H32.0406ZM33.9606 41.216L34.6006 39.552H39.6886L40.4246 41.216H33.9606ZM46.7835 44.16C46.1862 44.16 45.6635 44.0213 45.2155 43.744C44.7782 43.4667 44.4368 43.0773 44.1915 42.576C43.9568 42.0747 43.8395 41.4773 43.8395 40.784V35.6H45.4875V40.336C45.4875 41.072 45.6582 41.6533 45.9995 42.08C46.3515 42.5067 46.8368 42.72 47.4555 42.72C47.7648 42.72 48.0475 42.672 48.3035 42.576C48.5595 42.4693 48.7782 42.3253 48.9595 42.144C49.1515 41.9627 49.3008 41.744 49.4075 41.488C49.5142 41.232 49.5675 40.9547 49.5675 40.656V35.6H51.2155V44H49.5675V42.24L49.8555 42.048C49.7275 42.4427 49.5088 42.8 49.1995 43.12C48.9008 43.44 48.5435 43.696 48.1275 43.888C47.7115 44.0693 47.2635 44.16 46.7835 44.16ZM57.095 44.16C56.3163 44.16 55.6177 43.968 54.999 43.584C54.391 43.2 53.9057 42.6773 53.543 42.016C53.191 41.3547 53.015 40.6133 53.015 39.792C53.015 38.9707 53.191 38.2293 53.543 37.568C53.9057 36.9067 54.391 36.384 54.999 36C55.6177 35.616 56.3163 35.424 57.095 35.424C57.8417 35.424 58.519 35.5787 59.127 35.888C59.7457 36.1867 60.215 36.5973 60.535 37.12L59.623 38.24C59.4523 37.9947 59.2337 37.7707 58.967 37.568C58.7003 37.3653 58.4177 37.2053 58.119 37.088C57.8203 36.9707 57.5323 36.912 57.255 36.912C56.743 36.912 56.2843 37.04 55.879 37.296C55.4843 37.5413 55.1697 37.8827 54.935 38.32C54.7003 38.7573 54.583 39.248 54.583 39.792C54.583 40.336 54.7057 40.8267 54.951 41.264C55.1963 41.6907 55.5217 42.032 55.927 42.288C56.3323 42.544 56.7803 42.672 57.271 42.672C57.559 42.672 57.8363 42.624 58.103 42.528C58.3803 42.432 58.647 42.288 58.903 42.096C59.159 41.904 59.399 41.6693 59.623 41.392L60.535 42.512C60.1937 42.992 59.703 43.3867 59.063 43.696C58.4337 44.0053 57.7777 44.16 57.095 44.16ZM63.1295 44V33.456H64.7775V44H63.1295ZM61.3855 37.2V35.6H66.7295V37.2H61.3855ZM68.5021 44V35.6H70.1501V44H68.5021ZM69.3021 33.744C68.9501 33.744 68.6781 33.6533 68.4861 33.472C68.2941 33.2907 68.1981 33.0347 68.1981 32.704C68.1981 32.3947 68.2941 32.144 68.4861 31.952C68.6888 31.76 68.9608 31.664 69.3021 31.664C69.6541 31.664 69.9261 31.7547 70.1181 31.936C70.3101 32.1173 70.4061 32.3733 70.4061 32.704C70.4061 33.0133 70.3048 33.264 70.1021 33.456C69.9101 33.648 69.6435 33.744 69.3021 33.744ZM76.4593 44.16C75.6379 44.16 74.9019 43.9733 74.2513 43.6C73.6113 43.216 73.1046 42.6987 72.7313 42.048C72.3579 41.3867 72.1713 40.6347 72.1713 39.792C72.1713 38.9493 72.3579 38.2027 72.7313 37.552C73.1046 36.8907 73.6113 36.3733 74.2513 36C74.9019 35.616 75.6379 35.424 76.4593 35.424C77.2699 35.424 77.9953 35.616 78.6353 36C79.2859 36.3733 79.7979 36.8907 80.1713 37.552C80.5446 38.2027 80.7313 38.9493 80.7313 39.792C80.7313 40.6347 80.5446 41.3867 80.1713 42.048C79.7979 42.6987 79.2859 43.216 78.6353 43.6C77.9953 43.9733 77.2699 44.16 76.4593 44.16ZM76.4593 42.656C76.9606 42.656 77.4086 42.5333 77.8033 42.288C78.1979 42.032 78.5073 41.6907 78.7313 41.264C78.9553 40.8267 79.0619 40.336 79.0513 39.792C79.0619 39.2373 78.9553 38.7467 78.7313 38.32C78.5073 37.8827 78.1979 37.5413 77.8033 37.296C77.4086 37.0507 76.9606 36.928 76.4593 36.928C75.9579 36.928 75.5046 37.056 75.0993 37.312C74.7046 37.5573 74.3953 37.8987 74.1713 38.336C73.9473 38.7627 73.8406 39.248 73.8513 39.792C73.8406 40.336 73.9473 40.8267 74.1713 41.264C74.3953 41.6907 74.7046 42.032 75.0993 42.288C75.5046 42.5333 75.9579 42.656 76.4593 42.656ZM82.527 44V35.6H84.175V37.328L83.887 37.52C83.9937 37.1467 84.2017 36.8053 84.511 36.496C84.8203 36.176 85.1883 35.92 85.615 35.728C86.0417 35.5253 86.479 35.424 86.927 35.424C87.567 35.424 88.1003 35.552 88.527 35.808C88.9537 36.0533 89.2737 36.432 89.487 36.944C89.7003 37.456 89.807 38.1013 89.807 38.88V44H88.159V38.992C88.159 38.512 88.095 38.1173 87.967 37.808C87.839 37.488 87.6417 37.2587 87.375 37.12C87.1083 36.9707 86.7777 36.9067 86.383 36.928C86.063 36.928 85.7697 36.9813 85.503 37.088C85.2363 37.184 85.0017 37.3227 84.799 37.504C84.607 37.6853 84.4523 37.8987 84.335 38.144C84.2283 38.3787 84.175 38.6347 84.175 38.912V44H83.359C83.2203 44 83.0817 44 82.943 44C82.8043 44 82.6657 44 82.527 44ZM96.943 44V32.8H101.711C102.351 32.8 102.938 32.96 103.471 33.28C104.015 33.5893 104.447 34.016 104.767 34.56C105.087 35.0933 105.247 35.696 105.247 36.368C105.247 36.976 105.087 37.5413 104.767 38.064C104.447 38.5867 104.02 39.008 103.487 39.328C102.954 39.6373 102.362 39.792 101.711 39.792H98.671V44H96.943ZM103.599 44L100.751 38.944L102.527 38.544L105.695 44.016L103.599 44ZM98.671 38.128H101.871C102.18 38.128 102.458 38.0533 102.703 37.904C102.948 37.744 103.14 37.5307 103.279 37.264C103.418 36.9867 103.487 36.6827 103.487 36.352C103.487 35.9787 103.396 35.6533 103.215 35.376C103.044 35.088 102.799 34.864 102.479 34.704C102.17 34.544 101.818 34.464 101.423 34.464H98.671V38.128ZM111.26 44.16C110.396 44.16 109.628 43.9787 108.956 43.616C108.294 43.2427 107.772 42.736 107.388 42.096C107.014 41.456 106.828 40.72 106.828 39.888C106.828 39.2267 106.934 38.624 107.148 38.08C107.361 37.536 107.654 37.0667 108.028 36.672C108.412 36.2667 108.865 35.9573 109.388 35.744C109.921 35.52 110.497 35.408 111.116 35.408C111.66 35.408 112.166 35.5147 112.636 35.728C113.105 35.9307 113.51 36.2133 113.852 36.576C114.204 36.9387 114.47 37.3707 114.652 37.872C114.844 38.3627 114.934 38.9013 114.924 39.488L114.908 40.192H108.044L107.676 38.88H113.484L113.244 39.152V38.768C113.212 38.416 113.094 38.1013 112.892 37.824C112.689 37.5467 112.433 37.328 112.124 37.168C111.814 37.008 111.478 36.928 111.116 36.928C110.54 36.928 110.054 37.04 109.66 37.264C109.265 37.4773 108.966 37.7973 108.764 38.224C108.561 38.64 108.46 39.1573 108.46 39.776C108.46 40.3627 108.582 40.8747 108.828 41.312C109.073 41.7387 109.42 42.0693 109.868 42.304C110.316 42.5387 110.833 42.656 111.42 42.656C111.836 42.656 112.22 42.5867 112.572 42.448C112.934 42.3093 113.324 42.0587 113.74 41.696L114.572 42.864C114.316 43.12 114.001 43.344 113.628 43.536C113.265 43.728 112.876 43.8827 112.46 44C112.054 44.1067 111.654 44.16 111.26 44.16ZM119.31 44L115.758 35.6H117.534L120.094 41.888L119.79 42.032L122.526 35.6H124.222L120.494 44H119.31ZM126.002 44V35.6H127.65V44H126.002ZM126.802 33.744C126.45 33.744 126.178 33.6533 125.986 33.472C125.794 33.2907 125.698 33.0347 125.698 32.704C125.698 32.3947 125.794 32.144 125.986 31.952C126.189 31.76 126.461 31.664 126.802 31.664C127.154 31.664 127.426 31.7547 127.618 31.936C127.81 32.1173 127.906 32.3733 127.906 32.704C127.906 33.0133 127.805 33.264 127.602 33.456C127.41 33.648 127.143 33.744 126.802 33.744ZM134.103 44.16C133.239 44.16 132.471 43.9787 131.799 43.616C131.138 43.2427 130.615 42.736 130.231 42.096C129.858 41.456 129.671 40.72 129.671 39.888C129.671 39.2267 129.778 38.624 129.991 38.08C130.205 37.536 130.498 37.0667 130.871 36.672C131.255 36.2667 131.709 35.9573 132.231 35.744C132.765 35.52 133.341 35.408 133.959 35.408C134.503 35.408 135.01 35.5147 135.479 35.728C135.949 35.9307 136.354 36.2133 136.695 36.576C137.047 36.9387 137.314 37.3707 137.495 37.872C137.687 38.3627 137.778 38.9013 137.767 39.488L137.751 40.192H130.887L130.519 38.88H136.327L136.087 39.152V38.768C136.055 38.416 135.938 38.1013 135.735 37.824C135.533 37.5467 135.277 37.328 134.967 37.168C134.658 37.008 134.322 36.928 133.959 36.928C133.383 36.928 132.898 37.04 132.503 37.264C132.109 37.4773 131.81 37.7973 131.607 38.224C131.405 38.64 131.303 39.1573 131.303 39.776C131.303 40.3627 131.426 40.8747 131.671 41.312C131.917 41.7387 132.263 42.0693 132.711 42.304C133.159 42.5387 133.677 42.656 134.263 42.656C134.679 42.656 135.063 42.5867 135.415 42.448C135.778 42.3093 136.167 42.0587 136.583 41.696L137.415 42.864C137.159 43.12 136.845 43.344 136.471 43.536C136.109 43.728 135.719 43.8827 135.303 44C134.898 44.1067 134.498 44.16 134.103 44.16ZM141.466 44L138.602 35.6L140.266 35.584L142.314 41.872L141.946 41.84L144.17 36.928H145.162L147.402 41.856L146.97 41.888L149.034 35.6H150.698L147.866 44H146.73L144.394 38.656L144.762 38.704L142.586 44H141.466ZM154.921 44.16C154.217 44.16 153.582 44.0373 153.017 43.792C152.451 43.5467 151.982 43.184 151.609 42.704L152.729 41.744C153.049 42.1173 153.395 42.3893 153.769 42.56C154.153 42.72 154.585 42.8 155.065 42.8C155.257 42.8 155.433 42.7787 155.593 42.736C155.763 42.6827 155.907 42.608 156.025 42.512C156.153 42.416 156.249 42.304 156.313 42.176C156.377 42.0373 156.409 41.888 156.409 41.728C156.409 41.4507 156.307 41.2267 156.105 41.056C155.998 40.9813 155.827 40.9013 155.593 40.816C155.369 40.72 155.075 40.624 154.713 40.528C154.094 40.368 153.587 40.1867 153.193 39.984C152.798 39.7813 152.494 39.552 152.281 39.296C152.121 39.0933 152.003 38.8747 151.929 38.64C151.854 38.3947 151.817 38.128 151.817 37.84C151.817 37.3707 151.95 36.9547 152.217 36.592C152.483 36.2293 152.841 35.9467 153.289 35.744C153.747 35.5307 154.259 35.424 154.825 35.424C155.219 35.424 155.609 35.4773 155.993 35.584C156.387 35.6907 156.75 35.8453 157.081 36.048C157.411 36.2507 157.689 36.4907 157.913 36.768L156.969 37.808C156.766 37.6053 156.542 37.4293 156.297 37.28C156.062 37.12 155.822 36.9973 155.577 36.912C155.331 36.8267 155.107 36.784 154.905 36.784C154.681 36.784 154.478 36.8053 154.297 36.848C154.115 36.8907 153.961 36.9547 153.833 37.04C153.715 37.1253 153.625 37.232 153.561 37.36C153.497 37.488 153.465 37.632 153.465 37.792C153.475 37.9307 153.507 38.064 153.561 38.192C153.625 38.3093 153.71 38.4107 153.817 38.496C153.934 38.5813 154.11 38.672 154.345 38.768C154.579 38.864 154.878 38.9547 155.241 39.04C155.774 39.1787 156.211 39.3333 156.553 39.504C156.905 39.664 157.182 39.8507 157.385 40.064C157.598 40.2667 157.747 40.5013 157.833 40.768C157.918 41.0347 157.961 41.3333 157.961 41.664C157.961 42.144 157.822 42.576 157.545 42.96C157.278 43.3333 156.915 43.6267 156.457 43.84C155.998 44.0533 155.486 44.16 154.921 44.16ZM1.568 75V63.8H6.128C6.736 63.8 7.28533 63.9547 7.776 64.264C8.27733 64.5627 8.67733 64.9733 8.976 65.496C9.27467 66.0187 9.424 66.6 9.424 67.24C9.424 67.88 9.27467 68.4613 8.976 68.984C8.67733 69.5067 8.27733 69.928 7.776 70.248C7.28533 70.5573 6.736 70.712 6.128 70.712H3.296V75H1.568ZM3.296 69.048H6.096C6.384 69.048 6.64533 68.968 6.88 68.808C7.11467 68.6373 7.30133 68.4187 7.44 68.152C7.58933 67.8747 7.664 67.5707 7.664 67.24C7.664 66.9093 7.58933 66.6107 7.44 66.344C7.30133 66.0773 7.11467 65.864 6.88 65.704C6.64533 65.544 6.384 65.464 6.096 65.464H3.296V69.048ZM11.2926 75V66.6H12.9566V69.24L12.7966 68.6C12.914 68.1947 13.1113 67.8267 13.3886 67.496C13.6766 67.1653 14.002 66.904 14.3646 66.712C14.738 66.52 15.122 66.424 15.5166 66.424C15.698 66.424 15.8686 66.44 16.0286 66.472C16.1993 66.504 16.3326 66.5413 16.4286 66.584L15.9966 68.376C15.8686 68.3227 15.7246 68.28 15.5646 68.248C15.4153 68.2053 15.266 68.184 15.1166 68.184C14.8286 68.184 14.5513 68.2427 14.2846 68.36C14.0286 68.4667 13.7993 68.6213 13.5966 68.824C13.4046 69.016 13.25 69.2453 13.1326 69.512C13.0153 69.768 12.9566 70.0507 12.9566 70.36V75H11.2926ZM18.0178 75V66.6H19.6658V75H18.0178ZM18.8178 64.744C18.4658 64.744 18.1938 64.6533 18.0018 64.472C17.8098 64.2907 17.7138 64.0347 17.7138 63.704C17.7138 63.3947 17.8098 63.144 18.0018 62.952C18.2044 62.76 18.4764 62.664 18.8178 62.664C19.1698 62.664 19.4418 62.7547 19.6338 62.936C19.8258 63.1173 19.9218 63.3733 19.9218 63.704C19.9218 64.0133 19.8204 64.264 19.6178 64.456C19.4258 64.648 19.1591 64.744 18.8178 64.744ZM23.2389 75V64.456H24.8869V75H23.2389ZM21.4949 68.2V66.6H26.8389V68.2H21.4949ZM28.6115 75V66.6H30.2595V75H28.6115ZM29.4115 64.744C29.0595 64.744 28.7875 64.6533 28.5955 64.472C28.4035 64.2907 28.3075 64.0347 28.3075 63.704C28.3075 63.3947 28.4035 63.144 28.5955 62.952C28.7982 62.76 29.0702 62.664 29.4115 62.664C29.7635 62.664 30.0355 62.7547 30.2275 62.936C30.4195 63.1173 30.5155 63.3733 30.5155 63.704C30.5155 64.0133 30.4142 64.264 30.2115 64.456C30.0195 64.648 29.7528 64.744 29.4115 64.744ZM32.0406 75L36.3766 63.8H38.1366L42.4406 75H40.6006L38.0406 68.248C38.0086 68.1733 37.9446 67.992 37.8486 67.704C37.7633 67.416 37.662 67.096 37.5446 66.744C37.4273 66.392 37.3206 66.072 37.2246 65.784C37.1286 65.4853 37.0646 65.2933 37.0326 65.208L37.4006 65.192C37.3366 65.3733 37.2566 65.6027 37.1606 65.88C37.0753 66.1573 36.9793 66.4507 36.8726 66.76C36.7766 67.0693 36.6806 67.3627 36.5846 67.64C36.4886 67.9067 36.4086 68.1307 36.3446 68.312L33.8006 75H32.0406ZM33.9606 72.216L34.6006 70.552H39.6886L40.4246 72.216H33.9606ZM46.7835 75.16C46.1862 75.16 45.6635 75.0213 45.2155 74.744C44.7782 74.4667 44.4368 74.0773 44.1915 73.576C43.9568 73.0747 43.8395 72.4773 43.8395 71.784V66.6H45.4875V71.336C45.4875 72.072 45.6582 72.6533 45.9995 73.08C46.3515 73.5067 46.8368 73.72 47.4555 73.72C47.7648 73.72 48.0475 73.672 48.3035 73.576C48.5595 73.4693 48.7782 73.3253 48.9595 73.144C49.1515 72.9627 49.3008 72.744 49.4075 72.488C49.5142 72.232 49.5675 71.9547 49.5675 71.656V66.6H51.2155V75H49.5675V73.24L49.8555 73.048C49.7275 73.4427 49.5088 73.8 49.1995 74.12C48.9008 74.44 48.5435 74.696 48.1275 74.888C47.7115 75.0693 47.2635 75.16 46.7835 75.16ZM57.095 75.16C56.3163 75.16 55.6177 74.968 54.999 74.584C54.391 74.2 53.9057 73.6773 53.543 73.016C53.191 72.3547 53.015 71.6133 53.015 70.792C53.015 69.9707 53.191 69.2293 53.543 68.568C53.9057 67.9067 54.391 67.384 54.999 67C55.6177 66.616 56.3163 66.424 57.095 66.424C57.8417 66.424 58.519 66.5787 59.127 66.888C59.7457 67.1867 60.215 67.5973 60.535 68.12L59.623 69.24C59.4523 68.9947 59.2337 68.7707 58.967 68.568C58.7003 68.3653 58.4177 68.2053 58.119 68.088C57.8203 67.9707 57.5323 67.912 57.255 67.912C56.743 67.912 56.2843 68.04 55.879 68.296C55.4843 68.5413 55.1697 68.8827 54.935 69.32C54.7003 69.7573 54.583 70.248 54.583 70.792C54.583 71.336 54.7057 71.8267 54.951 72.264C55.1963 72.6907 55.5217 73.032 55.927 73.288C56.3323 73.544 56.7803 73.672 57.271 73.672C57.559 73.672 57.8363 73.624 58.103 73.528C58.3803 73.432 58.647 73.288 58.903 73.096C59.159 72.904 59.399 72.6693 59.623 72.392L60.535 73.512C60.1937 73.992 59.703 74.3867 59.063 74.696C58.4337 75.0053 57.7777 75.16 57.095 75.16ZM63.1295 75V64.456H64.7775V75H63.1295ZM61.3855 68.2V66.6H66.7295V68.2H61.3855ZM68.5021 75V66.6H70.1501V75H68.5021ZM69.3021 64.744C68.9501 64.744 68.6781 64.6533 68.4861 64.472C68.2941 64.2907 68.1981 64.0347 68.1981 63.704C68.1981 63.3947 68.2941 63.144 68.4861 62.952C68.6888 62.76 68.9608 62.664 69.3021 62.664C69.6541 62.664 69.9261 62.7547 70.1181 62.936C70.3101 63.1173 70.4061 63.3733 70.4061 63.704C70.4061 64.0133 70.3048 64.264 70.1021 64.456C69.9101 64.648 69.6435 64.744 69.3021 64.744ZM76.4593 75.16C75.6379 75.16 74.9019 74.9733 74.2513 74.6C73.6113 74.216 73.1046 73.6987 72.7313 73.048C72.3579 72.3867 72.1713 71.6347 72.1713 70.792C72.1713 69.9493 72.3579 69.2027 72.7313 68.552C73.1046 67.8907 73.6113 67.3733 74.2513 67C74.9019 66.616 75.6379 66.424 76.4593 66.424C77.2699 66.424 77.9953 66.616 78.6353 67C79.2859 67.3733 79.7979 67.8907 80.1713 68.552C80.5446 69.2027 80.7313 69.9493 80.7313 70.792C80.7313 71.6347 80.5446 72.3867 80.1713 73.048C79.7979 73.6987 79.2859 74.216 78.6353 74.6C77.9953 74.9733 77.2699 75.16 76.4593 75.16ZM76.4593 73.656C76.9606 73.656 77.4086 73.5333 77.8033 73.288C78.1979 73.032 78.5073 72.6907 78.7313 72.264C78.9553 71.8267 79.0619 71.336 79.0513 70.792C79.0619 70.2373 78.9553 69.7467 78.7313 69.32C78.5073 68.8827 78.1979 68.5413 77.8033 68.296C77.4086 68.0507 76.9606 67.928 76.4593 67.928C75.9579 67.928 75.5046 68.056 75.0993 68.312C74.7046 68.5573 74.3953 68.8987 74.1713 69.336C73.9473 69.7627 73.8406 70.248 73.8513 70.792C73.8406 71.336 73.9473 71.8267 74.1713 72.264C74.3953 72.6907 74.7046 73.032 75.0993 73.288C75.5046 73.5333 75.9579 73.656 76.4593 73.656ZM82.527 75V66.6H84.175V68.328L83.887 68.52C83.9937 68.1467 84.2017 67.8053 84.511 67.496C84.8203 67.176 85.1883 66.92 85.615 66.728C86.0417 66.5253 86.479 66.424 86.927 66.424C87.567 66.424 88.1003 66.552 88.527 66.808C88.9537 67.0533 89.2737 67.432 89.487 67.944C89.7003 68.456 89.807 69.1013 89.807 69.88V75H88.159V69.992C88.159 69.512 88.095 69.1173 87.967 68.808C87.839 68.488 87.6417 68.2587 87.375 68.12C87.1083 67.9707 86.7777 67.9067 86.383 67.928C86.063 67.928 85.7697 67.9813 85.503 68.088C85.2363 68.184 85.0017 68.3227 84.799 68.504C84.607 68.6853 84.4523 68.8987 84.335 69.144C84.2283 69.3787 84.175 69.6347 84.175 69.912V75H83.359C83.2203 75 83.0817 75 82.943 75C82.8043 75 82.6657 75 82.527 75ZM96.527 75V73.4H98.335V65.4H96.527V63.8H101.871V65.4H100.063V73.4H101.871V75H96.527ZM106.968 75.16C106.264 75.16 105.629 75.0373 105.064 74.792C104.498 74.5467 104.029 74.184 103.656 73.704L104.776 72.744C105.096 73.1173 105.442 73.3893 105.816 73.56C106.2 73.72 106.632 73.8 107.112 73.8C107.304 73.8 107.48 73.7787 107.64 73.736C107.81 73.6827 107.954 73.608 108.072 73.512C108.2 73.416 108.296 73.304 108.36 73.176C108.424 73.0373 108.456 72.888 108.456 72.728C108.456 72.4507 108.354 72.2267 108.152 72.056C108.045 71.9813 107.874 71.9013 107.64 71.816C107.416 71.72 107.122 71.624 106.76 71.528C106.141 71.368 105.634 71.1867 105.24 70.984C104.845 70.7813 104.541 70.552 104.328 70.296C104.168 70.0933 104.05 69.8747 103.976 69.64C103.901 69.3947 103.864 69.128 103.864 68.84C103.864 68.3707 103.997 67.9547 104.264 67.592C104.53 67.2293 104.888 66.9467 105.336 66.744C105.794 66.5307 106.306 66.424 106.872 66.424C107.266 66.424 107.656 66.4773 108.04 66.584C108.434 66.6907 108.797 66.8453 109.128 67.048C109.458 67.2507 109.736 67.4907 109.96 67.768L109.016 68.808C108.813 68.6053 108.589 68.4293 108.344 68.28C108.109 68.12 107.869 67.9973 107.624 67.912C107.378 67.8267 107.154 67.784 106.952 67.784C106.728 67.784 106.525 67.8053 106.344 67.848C106.162 67.8907 106.008 67.9547 105.88 68.04C105.762 68.1253 105.672 68.232 105.608 68.36C105.544 68.488 105.512 68.632 105.512 68.792C105.522 68.9307 105.554 69.064 105.608 69.192C105.672 69.3093 105.757 69.4107 105.864 69.496C105.981 69.5813 106.157 69.672 106.392 69.768C106.626 69.864 106.925 69.9547 107.288 70.04C107.821 70.1787 108.258 70.3333 108.6 70.504C108.952 70.664 109.229 70.8507 109.432 71.064C109.645 71.2667 109.794 71.5013 109.88 71.768C109.965 72.0347 110.008 72.3333 110.008 72.664C110.008 73.144 109.869 73.576 109.592 73.96C109.325 74.3333 108.962 74.6267 108.504 74.84C108.045 75.0533 107.533 75.16 106.968 75.16ZM116.724 75V63.8H118.452V73.336H123.7V75H116.724ZM129.494 75.16C128.63 75.16 127.862 74.9787 127.19 74.616C126.529 74.2427 126.006 73.736 125.622 73.096C125.249 72.456 125.062 71.72 125.062 70.888C125.062 70.2267 125.169 69.624 125.382 69.08C125.595 68.536 125.889 68.0667 126.262 67.672C126.646 67.2667 127.099 66.9573 127.622 66.744C128.155 66.52 128.731 66.408 129.35 66.408C129.894 66.408 130.401 66.5147 130.87 66.728C131.339 66.9307 131.745 67.2133 132.086 67.576C132.438 67.9387 132.705 68.3707 132.886 68.872C133.078 69.3627 133.169 69.9013 133.158 70.488L133.142 71.192H126.278L125.91 69.88H131.718L131.478 70.152V69.768C131.446 69.416 131.329 69.1013 131.126 68.824C130.923 68.5467 130.667 68.328 130.358 68.168C130.049 68.008 129.713 67.928 129.35 67.928C128.774 67.928 128.289 68.04 127.894 68.264C127.499 68.4773 127.201 68.7973 126.998 69.224C126.795 69.64 126.694 70.1573 126.694 70.776C126.694 71.3627 126.817 71.8747 127.062 72.312C127.307 72.7387 127.654 73.0693 128.102 73.304C128.55 73.5387 129.067 73.656 129.654 73.656C130.07 73.656 130.454 73.5867 130.806 73.448C131.169 73.3093 131.558 73.0587 131.974 72.696L132.806 73.864C132.55 74.12 132.235 74.344 131.862 74.536C131.499 74.728 131.11 74.8827 130.694 75C130.289 75.1067 129.889 75.16 129.494 75.16ZM138.631 78.68C138.033 78.68 137.436 78.584 136.839 78.392C136.252 78.2107 135.777 77.9707 135.415 77.672L136.023 76.392C136.343 76.6373 136.737 76.8347 137.207 76.984C137.687 77.1333 138.161 77.208 138.631 77.208C139.217 77.208 139.708 77.112 140.103 76.92C140.497 76.728 140.796 76.4453 140.999 76.072C141.201 75.6987 141.303 75.2347 141.303 74.68V73.064L141.479 73.176C141.425 73.5067 141.249 73.8267 140.951 74.136C140.663 74.4347 140.3 74.68 139.863 74.872C139.425 75.064 138.977 75.16 138.519 75.16C137.719 75.16 137.004 74.9733 136.375 74.6C135.756 74.216 135.265 73.6987 134.903 73.048C134.54 72.3867 134.359 71.6347 134.359 70.792C134.359 69.9493 134.535 69.2027 134.887 68.552C135.249 67.8907 135.74 67.3733 136.359 67C136.988 66.616 137.692 66.424 138.471 66.424C138.791 66.424 139.1 66.4667 139.399 66.552C139.697 66.6267 139.975 66.7387 140.231 66.888C140.487 67.0267 140.716 67.1813 140.919 67.352C141.121 67.5227 141.287 67.704 141.415 67.896C141.543 68.088 141.623 68.2693 141.655 68.44L141.303 68.568V66.6H142.951V74.488C142.951 75.16 142.849 75.752 142.647 76.264C142.455 76.7867 142.172 77.224 141.799 77.576C141.425 77.9387 140.972 78.2107 140.439 78.392C139.905 78.584 139.303 78.68 138.631 78.68ZM138.695 73.64C139.217 73.64 139.681 73.5173 140.087 73.272C140.492 73.0267 140.807 72.6907 141.031 72.264C141.255 71.8373 141.367 71.3467 141.367 70.792C141.367 70.2373 141.249 69.7467 141.015 69.32C140.791 68.8827 140.476 68.5413 140.071 68.296C139.676 68.0507 139.217 67.928 138.695 67.928C138.183 67.928 137.724 68.056 137.319 68.312C136.924 68.5573 136.609 68.8987 136.375 69.336C136.151 69.7627 136.039 70.248 136.039 70.792C136.039 71.336 136.151 71.8267 136.375 72.264C136.609 72.6907 136.924 73.0267 137.319 73.272C137.724 73.5173 138.183 73.64 138.695 73.64ZM145.533 75V66.6H147.181V75H145.533ZM146.333 64.744C145.981 64.744 145.709 64.6533 145.517 64.472C145.325 64.2907 145.229 64.0347 145.229 63.704C145.229 63.3947 145.325 63.144 145.517 62.952C145.72 62.76 145.992 62.664 146.333 62.664C146.685 62.664 146.957 62.7547 147.149 62.936C147.341 63.1173 147.437 63.3733 147.437 63.704C147.437 64.0133 147.336 64.264 147.133 64.456C146.941 64.648 146.675 64.744 146.333 64.744ZM150.755 75V64.456H152.403V75H150.755ZM149.011 68.2V66.6H154.355V68.2H149.011ZM1.568 106V94.8H6.128C6.736 94.8 7.28533 94.9547 7.776 95.264C8.27733 95.5627 8.67733 95.9733 8.976 96.496C9.27467 97.0187 9.424 97.6 9.424 98.24C9.424 98.88 9.27467 99.4613 8.976 99.984C8.67733 100.507 8.27733 100.928 7.776 101.248C7.28533 101.557 6.736 101.712 6.128 101.712H3.296V106H1.568ZM3.296 100.048H6.096C6.384 100.048 6.64533 99.968 6.88 99.808C7.11467 99.6373 7.30133 99.4187 7.44 99.152C7.58933 98.8747 7.664 98.5707 7.664 98.24C7.664 97.9093 7.58933 97.6107 7.44 97.344C7.30133 97.0773 7.11467 96.864 6.88 96.704C6.64533 96.544 6.384 96.464 6.096 96.464H3.296V100.048ZM11.2926 106V97.6H12.9566V100.24L12.7966 99.6C12.914 99.1947 13.1113 98.8267 13.3886 98.496C13.6766 98.1653 14.002 97.904 14.3646 97.712C14.738 97.52 15.122 97.424 15.5166 97.424C15.698 97.424 15.8686 97.44 16.0286 97.472C16.1993 97.504 16.3326 97.5413 16.4286 97.584L15.9966 99.376C15.8686 99.3227 15.7246 99.28 15.5646 99.248C15.4153 99.2053 15.266 99.184 15.1166 99.184C14.8286 99.184 14.5513 99.2427 14.2846 99.36C14.0286 99.4667 13.7993 99.6213 13.5966 99.824C13.4046 100.016 13.25 100.245 13.1326 100.512C13.0153 100.768 12.9566 101.051 12.9566 101.36V106H11.2926ZM21.3064 106.16C20.4424 106.16 19.6744 105.979 19.0024 105.616C18.341 105.243 17.8184 104.736 17.4344 104.096C17.061 103.456 16.8744 102.72 16.8744 101.888C16.8744 101.227 16.981 100.624 17.1944 100.08C17.4077 99.536 17.701 99.0667 18.0744 98.672C18.4584 98.2667 18.9117 97.9573 19.4344 97.744C19.9677 97.52 20.5437 97.408 21.1624 97.408C21.7064 97.408 22.213 97.5147 22.6824 97.728C23.1517 97.9307 23.557 98.2133 23.8984 98.576C24.2504 98.9387 24.517 99.3707 24.6984 99.872C24.8904 100.363 24.981 100.901 24.9704 101.488L24.9544 102.192H18.0904L17.7224 100.88H23.5304L23.2904 101.152V100.768C23.2584 100.416 23.141 100.101 22.9384 99.824C22.7357 99.5467 22.4797 99.328 22.1704 99.168C21.861 99.008 21.525 98.928 21.1624 98.928C20.5864 98.928 20.101 99.04 19.7064 99.264C19.3117 99.4773 19.013 99.7973 18.8104 100.224C18.6077 100.64 18.5064 101.157 18.5064 101.776C18.5064 102.363 18.629 102.875 18.8744 103.312C19.1197 103.739 19.4664 104.069 19.9144 104.304C20.3624 104.539 20.8797 104.656 21.4664 104.656C21.8824 104.656 22.2664 104.587 22.6184 104.448C22.981 104.309 23.3704 104.059 23.7864 103.696L24.6184 104.864C24.3624 105.12 24.0477 105.344 23.6744 105.536C23.3117 105.728 22.9224 105.883 22.5064 106C22.101 106.107 21.701 106.16 21.3064 106.16ZM29.5614 106.16C28.8574 106.16 28.2227 106.037 27.6574 105.792C27.092 105.547 26.6227 105.184 26.2494 104.704L27.3694 103.744C27.6894 104.117 28.036 104.389 28.4094 104.56C28.7934 104.72 29.2254 104.8 29.7054 104.8C29.8974 104.8 30.0734 104.779 30.2334 104.736C30.404 104.683 30.548 104.608 30.6654 104.512C30.7934 104.416 30.8894 104.304 30.9534 104.176C31.0174 104.037 31.0494 103.888 31.0494 103.728C31.0494 103.451 30.948 103.227 30.7454 103.056C30.6387 102.981 30.468 102.901 30.2334 102.816C30.0094 102.72 29.716 102.624 29.3534 102.528C28.7347 102.368 28.228 102.187 27.8334 101.984C27.4387 101.781 27.1347 101.552 26.9214 101.296C26.7614 101.093 26.644 100.875 26.5694 100.64C26.4947 100.395 26.4574 100.128 26.4574 99.84C26.4574 99.3707 26.5907 98.9547 26.8574 98.592C27.124 98.2293 27.4814 97.9467 27.9294 97.744C28.388 97.5307 28.9 97.424 29.4654 97.424C29.86 97.424 30.2494 97.4773 30.6334 97.584C31.028 97.6907 31.3907 97.8453 31.7214 98.048C32.052 98.2507 32.3294 98.4907 32.5534 98.768L31.6094 99.808C31.4067 99.6053 31.1827 99.4293 30.9374 99.28C30.7027 99.12 30.4627 98.9973 30.2174 98.912C29.972 98.8267 29.748 98.784 29.5454 98.784C29.3214 98.784 29.1187 98.8053 28.9374 98.848C28.756 98.8907 28.6014 98.9547 28.4734 99.04C28.356 99.1253 28.2654 99.232 28.2014 99.36C28.1374 99.488 28.1054 99.632 28.1054 99.792C28.116 99.9307 28.148 100.064 28.2014 100.192C28.2654 100.309 28.3507 100.411 28.4574 100.496C28.5747 100.581 28.7507 100.672 28.9854 100.768C29.22 100.864 29.5187 100.955 29.8814 101.04C30.4147 101.179 30.852 101.333 31.1934 101.504C31.5454 101.664 31.8227 101.851 32.0254 102.064C32.2387 102.267 32.388 102.501 32.4734 102.768C32.5587 103.035 32.6014 103.333 32.6014 103.664C32.6014 104.144 32.4627 104.576 32.1854 104.96C31.9187 105.333 31.556 105.627 31.0974 105.84C30.6387 106.053 30.1267 106.16 29.5614 106.16ZM37.2176 106.16C36.5136 106.16 35.879 106.037 35.3136 105.792C34.7483 105.547 34.279 105.184 33.9056 104.704L35.0256 103.744C35.3456 104.117 35.6923 104.389 36.0656 104.56C36.4496 104.72 36.8816 104.8 37.3616 104.8C37.5536 104.8 37.7296 104.779 37.8896 104.736C38.0603 104.683 38.2043 104.608 38.3216 104.512C38.4496 104.416 38.5456 104.304 38.6096 104.176C38.6736 104.037 38.7056 103.888 38.7056 103.728C38.7056 103.451 38.6043 103.227 38.4016 103.056C38.295 102.981 38.1243 102.901 37.8896 102.816C37.6656 102.72 37.3723 102.624 37.0096 102.528C36.391 102.368 35.8843 102.187 35.4896 101.984C35.095 101.781 34.791 101.552 34.5776 101.296C34.4176 101.093 34.3003 100.875 34.2256 100.64C34.151 100.395 34.1136 100.128 34.1136 99.84C34.1136 99.3707 34.247 98.9547 34.5136 98.592C34.7803 98.2293 35.1376 97.9467 35.5856 97.744C36.0443 97.5307 36.5563 97.424 37.1216 97.424C37.5163 97.424 37.9056 97.4773 38.2896 97.584C38.6843 97.6907 39.047 97.8453 39.3776 98.048C39.7083 98.2507 39.9856 98.4907 40.2096 98.768L39.2656 99.808C39.063 99.6053 38.839 99.4293 38.5936 99.28C38.359 99.12 38.119 98.9973 37.8736 98.912C37.6283 98.8267 37.4043 98.784 37.2016 98.784C36.9776 98.784 36.775 98.8053 36.5936 98.848C36.4123 98.8907 36.2576 98.9547 36.1296 99.04C36.0123 99.1253 35.9216 99.232 35.8576 99.36C35.7936 99.488 35.7616 99.632 35.7616 99.792C35.7723 99.9307 35.8043 100.064 35.8576 100.192C35.9216 100.309 36.007 100.411 36.1136 100.496C36.231 100.581 36.407 100.672 36.6416 100.768C36.8763 100.864 37.175 100.955 37.5376 101.04C38.071 101.179 38.5083 101.333 38.8496 101.504C39.2016 101.664 39.479 101.851 39.6816 102.064C39.895 102.267 40.0443 102.501 40.1296 102.768C40.215 103.035 40.2576 103.333 40.2576 103.664C40.2576 104.144 40.119 104.576 39.8416 104.96C39.575 105.333 39.2123 105.627 38.7536 105.84C38.295 106.053 37.783 106.16 37.2176 106.16ZM1.568 137V125.8H3.296V135.336H8.544V137H1.568ZM14.1936 137.16C13.3723 137.16 12.6363 136.973 11.9856 136.6C11.3456 136.216 10.839 135.699 10.4656 135.048C10.0923 134.387 9.90563 133.635 9.90563 132.792C9.90563 131.949 10.0923 131.203 10.4656 130.552C10.839 129.891 11.3456 129.373 11.9856 129C12.6363 128.616 13.3723 128.424 14.1936 128.424C15.0043 128.424 15.7296 128.616 16.3696 129C17.0203 129.373 17.5323 129.891 17.9056 130.552C18.279 131.203 18.4656 131.949 18.4656 132.792C18.4656 133.635 18.279 134.387 17.9056 135.048C17.5323 135.699 17.0203 136.216 16.3696 136.6C15.7296 136.973 15.0043 137.16 14.1936 137.16ZM14.1936 135.656C14.695 135.656 15.143 135.533 15.5376 135.288C15.9323 135.032 16.2416 134.691 16.4656 134.264C16.6896 133.827 16.7963 133.336 16.7856 132.792C16.7963 132.237 16.6896 131.747 16.4656 131.32C16.2416 130.883 15.9323 130.541 15.5376 130.296C15.143 130.051 14.695 129.928 14.1936 129.928C13.6923 129.928 13.239 130.056 12.8336 130.312C12.439 130.557 12.1296 130.899 11.9056 131.336C11.6816 131.763 11.575 132.248 11.5856 132.792C11.575 133.336 11.6816 133.827 11.9056 134.264C12.1296 134.691 12.439 135.032 12.8336 135.288C13.239 135.533 13.6923 135.656 14.1936 135.656ZM24.0214 140.68C23.424 140.68 22.8267 140.584 22.2294 140.392C21.6427 140.211 21.168 139.971 20.8054 139.672L21.4134 138.392C21.7334 138.637 22.128 138.835 22.5974 138.984C23.0774 139.133 23.552 139.208 24.0214 139.208C24.608 139.208 25.0987 139.112 25.4934 138.92C25.888 138.728 26.1867 138.445 26.3894 138.072C26.592 137.699 26.6934 137.235 26.6934 136.68V135.064L26.8694 135.176C26.816 135.507 26.64 135.827 26.3414 136.136C26.0534 136.435 25.6907 136.68 25.2534 136.872C24.816 137.064 24.368 137.16 23.9094 137.16C23.1094 137.16 22.3947 136.973 21.7654 136.6C21.1467 136.216 20.656 135.699 20.2934 135.048C19.9307 134.387 19.7494 133.635 19.7494 132.792C19.7494 131.949 19.9254 131.203 20.2774 130.552C20.64 129.891 21.1307 129.373 21.7494 129C22.3787 128.616 23.0827 128.424 23.8614 128.424C24.1814 128.424 24.4907 128.467 24.7894 128.552C25.088 128.627 25.3654 128.739 25.6214 128.888C25.8774 129.027 26.1067 129.181 26.3094 129.352C26.512 129.523 26.6774 129.704 26.8054 129.896C26.9334 130.088 27.0134 130.269 27.0454 130.44L26.6934 130.568V128.6H28.3414V136.488C28.3414 137.16 28.24 137.752 28.0374 138.264C27.8454 138.787 27.5627 139.224 27.1894 139.576C26.816 139.939 26.3627 140.211 25.8294 140.392C25.296 140.584 24.6934 140.68 24.0214 140.68ZM24.0854 135.64C24.608 135.64 25.072 135.517 25.4774 135.272C25.8827 135.027 26.1974 134.691 26.4214 134.264C26.6454 133.837 26.7574 133.347 26.7574 132.792C26.7574 132.237 26.64 131.747 26.4054 131.32C26.1814 130.883 25.8667 130.541 25.4614 130.296C25.0667 130.051 24.608 129.928 24.0854 129.928C23.5734 129.928 23.1147 130.056 22.7094 130.312C22.3147 130.557 22 130.899 21.7654 131.336C21.5414 131.763 21.4294 132.248 21.4294 132.792C21.4294 133.336 21.5414 133.827 21.7654 134.264C22 134.691 22.3147 135.027 22.7094 135.272C23.1147 135.517 23.5734 135.64 24.0854 135.64ZM35.1364 137V135.4H36.9444V127.4H35.1364V125.8H40.4804V127.4H38.6724V135.4H40.4804V137H35.1364ZM42.777 137V128.6H44.425V130.328L44.137 130.52C44.2437 130.147 44.4517 129.805 44.761 129.496C45.0703 129.176 45.4383 128.92 45.865 128.728C46.2917 128.525 46.729 128.424 47.177 128.424C47.817 128.424 48.3503 128.552 48.777 128.808C49.2037 129.053 49.5237 129.432 49.737 129.944C49.9503 130.456 50.057 131.101 50.057 131.88V137H48.409V131.992C48.409 131.512 48.345 131.117 48.217 130.808C48.089 130.488 47.8917 130.259 47.625 130.12C47.3583 129.971 47.0277 129.907 46.633 129.928C46.313 129.928 46.0197 129.981 45.753 130.088C45.4863 130.184 45.2517 130.323 45.049 130.504C44.857 130.685 44.7023 130.899 44.585 131.144C44.4783 131.379 44.425 131.635 44.425 131.912V137H43.609C43.4703 137 43.3317 137 43.193 137C43.0543 137 42.9157 137 42.777 137ZM6.112 168.16C5.33333 168.16 4.61867 168.021 3.968 167.744C3.31733 167.467 2.752 167.072 2.272 166.56C1.792 166.037 1.41867 165.424 1.152 164.72C0.896 164.016 0.768 163.243 0.768 162.4C0.768 161.6 0.906667 160.859 1.184 160.176C1.472 159.483 1.86667 158.875 2.368 158.352C2.86933 157.829 3.45067 157.424 4.112 157.136C4.77333 156.848 5.488 156.704 6.256 156.704C6.8 156.704 7.328 156.789 7.84 156.96C8.36267 157.12 8.832 157.349 9.248 157.648C9.67467 157.936 10.0213 158.267 10.288 158.64L9.136 159.84C8.67733 159.371 8.208 159.019 7.728 158.784C7.248 158.549 6.75733 158.432 6.256 158.432C5.73333 158.432 5.24267 158.533 4.784 158.736C4.336 158.928 3.94133 159.2 3.6 159.552C3.26933 159.904 3.008 160.325 2.816 160.816C2.624 161.296 2.528 161.824 2.528 162.4C2.528 163.008 2.61867 163.563 2.8 164.064C2.992 164.555 3.25867 164.976 3.6 165.328C3.94133 165.68 4.34667 165.952 4.816 166.144C5.296 166.325 5.824 166.416 6.4 166.416C6.752 166.416 7.09867 166.368 7.44 166.272C7.78133 166.176 8.10133 166.037 8.4 165.856C8.69867 165.675 8.97067 165.461 9.216 165.216L10.08 166.624C9.83467 166.912 9.49867 167.173 9.072 167.408C8.656 167.643 8.18667 167.829 7.664 167.968C7.152 168.096 6.63467 168.16 6.112 168.16ZM12.0114 168V159.6H13.6754V162.24L13.5154 161.6C13.6327 161.195 13.83 160.827 14.1074 160.496C14.3954 160.165 14.7207 159.904 15.0834 159.712C15.4567 159.52 15.8407 159.424 16.2354 159.424C16.4167 159.424 16.5874 159.44 16.7474 159.472C16.918 159.504 17.0514 159.541 17.1474 159.584L16.7154 161.376C16.5874 161.323 16.4434 161.28 16.2834 161.248C16.134 161.205 15.9847 161.184 15.8354 161.184C15.5474 161.184 15.27 161.243 15.0034 161.36C14.7474 161.467 14.518 161.621 14.3154 161.824C14.1234 162.016 13.9687 162.245 13.8514 162.512C13.734 162.768 13.6754 163.051 13.6754 163.36V168H12.0114ZM22.0251 168.16C21.1611 168.16 20.3931 167.979 19.7211 167.616C19.0598 167.243 18.5371 166.736 18.1531 166.096C17.7798 165.456 17.5931 164.72 17.5931 163.888C17.5931 163.227 17.6998 162.624 17.9131 162.08C18.1265 161.536 18.4198 161.067 18.7931 160.672C19.1771 160.267 19.6305 159.957 20.1531 159.744C20.6865 159.52 21.2625 159.408 21.8811 159.408C22.4251 159.408 22.9318 159.515 23.4011 159.728C23.8705 159.931 24.2758 160.213 24.6171 160.576C24.9691 160.939 25.2358 161.371 25.4171 161.872C25.6091 162.363 25.6998 162.901 25.6891 163.488L25.6731 164.192H18.8091L18.4411 162.88H24.2491L24.0091 163.152V162.768C23.9771 162.416 23.8598 162.101 23.6571 161.824C23.4545 161.547 23.1985 161.328 22.8891 161.168C22.5798 161.008 22.2438 160.928 21.8811 160.928C21.3051 160.928 20.8198 161.04 20.4251 161.264C20.0305 161.477 19.7318 161.797 19.5291 162.224C19.3265 162.64 19.2251 163.157 19.2251 163.776C19.2251 164.363 19.3478 164.875 19.5931 165.312C19.8385 165.739 20.1851 166.069 20.6331 166.304C21.0811 166.539 21.5985 166.656 22.1851 166.656C22.6011 166.656 22.9851 166.587 23.3371 166.448C23.6998 166.309 24.0891 166.059 24.5051 165.696L25.3371 166.864C25.0811 167.12 24.7665 167.344 24.3931 167.536C24.0305 167.728 23.6411 167.883 23.2251 168C22.8198 168.107 22.4198 168.16 22.0251 168.16ZM32.4561 168V162.528C32.4561 162.059 32.2855 161.68 31.9441 161.392C31.6135 161.093 31.1921 160.944 30.6801 160.944C30.2108 160.944 29.7841 161.04 29.4001 161.232C29.0268 161.424 28.6855 161.717 28.3761 162.112L27.3041 161.04C27.8055 160.496 28.3441 160.091 28.9201 159.824C29.5068 159.557 30.1361 159.424 30.8081 159.424C31.4481 159.424 32.0028 159.531 32.4721 159.744C32.9415 159.957 33.3041 160.272 33.5601 160.688C33.8161 161.093 33.9441 161.589 33.9441 162.176V168H32.4561ZM29.9441 168.16C29.4001 168.16 28.9148 168.053 28.4881 167.84C28.0615 167.627 27.7201 167.333 27.4641 166.96C27.2188 166.576 27.0961 166.128 27.0961 165.616C27.0961 165.168 27.1761 164.773 27.3361 164.432C27.4961 164.091 27.7308 163.808 28.0401 163.584C28.3601 163.36 28.7548 163.189 29.2241 163.072C29.7041 162.955 30.2535 162.896 30.8721 162.896H33.2081L33.0641 164.208H30.6641C30.3441 164.208 30.0561 164.24 29.8001 164.304C29.5548 164.357 29.3415 164.448 29.1601 164.576C28.9895 164.693 28.8615 164.837 28.7761 165.008C28.6908 165.168 28.6481 165.36 28.6481 165.584C28.6481 165.819 28.7068 166.027 28.8241 166.208C28.9415 166.379 29.1015 166.512 29.3041 166.608C29.5068 166.704 29.7415 166.752 30.0081 166.752C30.3921 166.752 30.7548 166.688 31.0961 166.56C31.4481 166.421 31.7575 166.235 32.0241 166C32.3015 165.765 32.5148 165.504 32.6641 165.216L33.0481 166.288C32.8241 166.661 32.5468 166.987 32.2161 167.264C31.8855 167.541 31.5281 167.76 31.1441 167.92C30.7601 168.08 30.3601 168.16 29.9441 168.16ZM37.067 168V157.456H38.715V168H37.067ZM35.323 161.2V159.6H40.667V161.2H35.323ZM46.0095 168.16C45.1455 168.16 44.3775 167.979 43.7055 167.616C43.0442 167.243 42.5215 166.736 42.1375 166.096C41.7642 165.456 41.5775 164.72 41.5775 163.888C41.5775 163.227 41.6842 162.624 41.8975 162.08C42.1108 161.536 42.4042 161.067 42.7775 160.672C43.1615 160.267 43.6148 159.957 44.1375 159.744C44.6708 159.52 45.2468 159.408 45.8655 159.408C46.4095 159.408 46.9162 159.515 47.3855 159.728C47.8548 159.931 48.2602 160.213 48.6015 160.576C48.9535 160.939 49.2202 161.371 49.4015 161.872C49.5935 162.363 49.6842 162.901 49.6735 163.488L49.6575 164.192H42.7935L42.4255 162.88H48.2335L47.9935 163.152V162.768C47.9615 162.416 47.8442 162.101 47.6415 161.824C47.4388 161.547 47.1828 161.328 46.8735 161.168C46.5642 161.008 46.2282 160.928 45.8655 160.928C45.2895 160.928 44.8042 161.04 44.4095 161.264C44.0148 161.477 43.7162 161.797 43.5135 162.224C43.3108 162.64 43.2095 163.157 43.2095 163.776C43.2095 164.363 43.3322 164.875 43.5775 165.312C43.8228 165.739 44.1695 166.069 44.6175 166.304C45.0655 166.539 45.5828 166.656 46.1695 166.656C46.5855 166.656 46.9695 166.587 47.3215 166.448C47.6842 166.309 48.0735 166.059 48.4895 165.696L49.3215 166.864C49.0655 167.12 48.7508 167.344 48.3775 167.536C48.0148 167.728 47.6255 167.883 47.2095 168C46.8042 168.107 46.4042 168.16 46.0095 168.16ZM55.1969 168L59.5329 156.8H61.2929L65.5969 168H63.7569L61.1969 161.248C61.1649 161.173 61.1009 160.992 61.0049 160.704C60.9195 160.416 60.8182 160.096 60.7009 159.744C60.5835 159.392 60.4769 159.072 60.3809 158.784C60.2849 158.485 60.2209 158.293 60.1889 158.208L60.5569 158.192C60.4929 158.373 60.4129 158.603 60.3169 158.88C60.2315 159.157 60.1355 159.451 60.0289 159.76C59.9329 160.069 59.8369 160.363 59.7409 160.64C59.6449 160.907 59.5649 161.131 59.5009 161.312L56.9569 168H55.1969ZM57.1169 165.216L57.7569 163.552H62.8449L63.5809 165.216H57.1169ZM70.4075 168.16C69.6288 168.16 68.9302 167.968 68.3115 167.584C67.7035 167.2 67.2182 166.677 66.8555 166.016C66.5035 165.355 66.3275 164.613 66.3275 163.792C66.3275 162.971 66.5035 162.229 66.8555 161.568C67.2182 160.907 67.7035 160.384 68.3115 160C68.9302 159.616 69.6288 159.424 70.4075 159.424C71.1542 159.424 71.8315 159.579 72.4395 159.888C73.0582 160.187 73.5275 160.597 73.8475 161.12L72.9355 162.24C72.7648 161.995 72.5462 161.771 72.2795 161.568C72.0128 161.365 71.7302 161.205 71.4315 161.088C71.1328 160.971 70.8448 160.912 70.5675 160.912C70.0555 160.912 69.5968 161.04 69.1915 161.296C68.7968 161.541 68.4822 161.883 68.2475 162.32C68.0128 162.757 67.8955 163.248 67.8955 163.792C67.8955 164.336 68.0182 164.827 68.2635 165.264C68.5088 165.691 68.8342 166.032 69.2395 166.288C69.6448 166.544 70.0928 166.672 70.5835 166.672C70.8715 166.672 71.1488 166.624 71.4155 166.528C71.6928 166.432 71.9595 166.288 72.2155 166.096C72.4715 165.904 72.7115 165.669 72.9355 165.392L73.8475 166.512C73.5062 166.992 73.0155 167.387 72.3755 167.696C71.7462 168.005 71.0902 168.16 70.4075 168.16ZM78.97 168.16C78.1913 168.16 77.4927 167.968 76.874 167.584C76.266 167.2 75.7807 166.677 75.418 166.016C75.066 165.355 74.89 164.613 74.89 163.792C74.89 162.971 75.066 162.229 75.418 161.568C75.7807 160.907 76.266 160.384 76.874 160C77.4927 159.616 78.1913 159.424 78.97 159.424C79.7167 159.424 80.394 159.579 81.002 159.888C81.6207 160.187 82.09 160.597 82.41 161.12L81.498 162.24C81.3273 161.995 81.1087 161.771 80.842 161.568C80.5753 161.365 80.2927 161.205 79.994 161.088C79.6953 160.971 79.4073 160.912 79.13 160.912C78.618 160.912 78.1593 161.04 77.754 161.296C77.3593 161.541 77.0447 161.883 76.81 162.32C76.5753 162.757 76.458 163.248 76.458 163.792C76.458 164.336 76.5807 164.827 76.826 165.264C77.0713 165.691 77.3967 166.032 77.802 166.288C78.2073 166.544 78.6553 166.672 79.146 166.672C79.434 166.672 79.7113 166.624 79.978 166.528C80.2553 166.432 80.522 166.288 80.778 166.096C81.034 165.904 81.274 165.669 81.498 165.392L82.41 166.512C82.0687 166.992 81.578 167.387 80.938 167.696C80.3087 168.005 79.6527 168.16 78.97 168.16ZM87.7405 168.16C86.9192 168.16 86.1832 167.973 85.5325 167.6C84.8925 167.216 84.3858 166.699 84.0125 166.048C83.6392 165.387 83.4525 164.635 83.4525 163.792C83.4525 162.949 83.6392 162.203 84.0125 161.552C84.3858 160.891 84.8925 160.373 85.5325 160C86.1832 159.616 86.9192 159.424 87.7405 159.424C88.5512 159.424 89.2765 159.616 89.9165 160C90.5672 160.373 91.0792 160.891 91.4525 161.552C91.8258 162.203 92.0125 162.949 92.0125 163.792C92.0125 164.635 91.8258 165.387 91.4525 166.048C91.0792 166.699 90.5672 167.216 89.9165 167.6C89.2765 167.973 88.5512 168.16 87.7405 168.16ZM87.7405 166.656C88.2418 166.656 88.6898 166.533 89.0845 166.288C89.4792 166.032 89.7885 165.691 90.0125 165.264C90.2365 164.827 90.3432 164.336 90.3325 163.792C90.3432 163.237 90.2365 162.747 90.0125 162.32C89.7885 161.883 89.4792 161.541 89.0845 161.296C88.6898 161.051 88.2418 160.928 87.7405 160.928C87.2392 160.928 86.7858 161.056 86.3805 161.312C85.9858 161.557 85.6765 161.899 85.4525 162.336C85.2285 162.763 85.1218 163.248 85.1325 163.792C85.1218 164.336 85.2285 164.827 85.4525 165.264C85.6765 165.691 85.9858 166.032 86.3805 166.288C86.7858 166.533 87.2392 166.656 87.7405 166.656ZM96.7523 168.16C96.1549 168.16 95.6323 168.021 95.1843 167.744C94.7469 167.467 94.4056 167.077 94.1603 166.576C93.9256 166.075 93.8083 165.477 93.8083 164.784V159.6H95.4563V164.336C95.4563 165.072 95.6269 165.653 95.9683 166.08C96.3203 166.507 96.8056 166.72 97.4243 166.72C97.7336 166.72 98.0163 166.672 98.2723 166.576C98.5283 166.469 98.7469 166.325 98.9283 166.144C99.1203 165.963 99.2696 165.744 99.3763 165.488C99.4829 165.232 99.5363 164.955 99.5363 164.656V159.6H101.184V168H99.5363V166.24L99.8243 166.048C99.6963 166.443 99.4776 166.8 99.1683 167.12C98.8696 167.44 98.5123 167.696 98.0963 167.888C97.6803 168.069 97.2323 168.16 96.7523 168.16ZM103.496 168V159.6H105.144V161.328L104.856 161.52C104.962 161.147 105.17 160.805 105.48 160.496C105.789 160.176 106.157 159.92 106.584 159.728C107.01 159.525 107.448 159.424 107.896 159.424C108.536 159.424 109.069 159.552 109.496 159.808C109.922 160.053 110.242 160.432 110.456 160.944C110.669 161.456 110.776 162.101 110.776 162.88V168H109.128V162.992C109.128 162.512 109.064 162.117 108.936 161.808C108.808 161.488 108.61 161.259 108.344 161.12C108.077 160.971 107.746 160.907 107.352 160.928C107.032 160.928 106.738 160.981 106.472 161.088C106.205 161.184 105.97 161.323 105.768 161.504C105.576 161.685 105.421 161.899 105.304 162.144C105.197 162.379 105.144 162.635 105.144 162.912V168H104.328C104.189 168 104.05 168 103.912 168C103.773 168 103.634 168 103.496 168ZM114.051 168V157.456H115.699V168H114.051ZM112.307 161.2V159.6H117.651V161.2H112.307Z" fill="#2D2D2D" fill-opacity="0.58"/>
</svg>
