<svg width="107" height="202" viewBox="0 0 107 202" fill="none" xmlns="http://www.w3.org/2000/svg">
<path d="M6.112 12.16C5.33333 12.16 4.61867 12.0213 3.968 11.744C3.31733 11.4667 2.752 11.072 2.272 10.56C1.792 10.0373 1.41867 9.424 1.152 8.72C0.896 8.016 0.768 7.24267 0.768 6.4C0.768 5.6 0.906667 4.85867 1.184 4.176C1.472 3.48267 1.86667 2.87467 2.368 2.352C2.86933 1.82933 3.45067 1.424 4.112 1.136C4.77333 0.848 5.488 0.704 6.256 0.704C6.8 0.704 7.328 0.789333 7.84 0.959999C8.36267 1.12 8.832 1.34933 9.248 1.648C9.67467 1.936 10.0213 2.26667 10.288 2.64L9.136 3.84C8.67733 3.37067 8.208 3.01867 7.728 2.784C7.248 2.54933 6.75733 2.432 6.256 2.432C5.73333 2.432 5.24267 2.53333 4.784 2.736C4.336 2.928 3.94133 3.2 3.6 3.552C3.26933 3.904 3.008 4.32533 2.816 4.816C2.624 5.296 2.528 5.824 2.528 6.4C2.528 7.008 2.61867 7.56267 2.8 8.064C2.992 8.55467 3.25867 8.976 3.6 9.328C3.94133 9.68 4.34667 9.952 4.816 10.144C5.296 10.3253 5.824 10.416 6.4 10.416C6.752 10.416 7.09867 10.368 7.44 10.272C7.78133 10.176 8.10133 10.0373 8.4 9.856C8.69867 9.67467 8.97067 9.46133 9.216 9.216L10.08 10.624C9.83467 10.912 9.49867 11.1733 9.072 11.408C8.656 11.6427 8.18667 11.8293 7.664 11.968C7.152 12.096 6.63467 12.16 6.112 12.16ZM16.9874 12V6.528C16.9874 6.05867 16.8167 5.68 16.4754 5.392C16.1447 5.09333 15.7234 4.944 15.2114 4.944C14.742 4.944 14.3154 5.04 13.9314 5.232C13.558 5.424 13.2167 5.71733 12.9074 6.112L11.8354 5.04C12.3367 4.496 12.8754 4.09067 13.4514 3.824C14.038 3.55733 14.6674 3.424 15.3394 3.424C15.9794 3.424 16.534 3.53067 17.0034 3.744C17.4727 3.95733 17.8354 4.272 18.0914 4.688C18.3474 5.09333 18.4754 5.58933 18.4754 6.176V12H16.9874ZM14.4754 12.16C13.9314 12.16 13.446 12.0533 13.0194 11.84C12.5927 11.6267 12.2514 11.3333 11.9954 10.96C11.75 10.576 11.6274 10.128 11.6274 9.616C11.6274 9.168 11.7074 8.77333 11.8674 8.432C12.0274 8.09067 12.262 7.808 12.5714 7.584C12.8914 7.36 13.286 7.18933 13.7554 7.072C14.2354 6.95467 14.7847 6.896 15.4034 6.896H17.7394L17.5954 8.208H15.1954C14.8754 8.208 14.5874 8.24 14.3314 8.304C14.086 8.35733 13.8727 8.448 13.6914 8.576C13.5207 8.69333 13.3927 8.83733 13.3074 9.008C13.222 9.168 13.1794 9.36 13.1794 9.584C13.1794 9.81867 13.238 10.0267 13.3554 10.208C13.4727 10.3787 13.6327 10.512 13.8354 10.608C14.038 10.704 14.2727 10.752 14.5394 10.752C14.9234 10.752 15.286 10.688 15.6274 10.56C15.9794 10.4213 16.2887 10.2347 16.5554 10C16.8327 9.76533 17.046 9.504 17.1954 9.216L17.5794 10.288C17.3554 10.6613 17.078 10.9867 16.7474 11.264C16.4167 11.5413 16.0594 11.76 15.6754 11.92C15.2914 12.08 14.8914 12.16 14.4754 12.16ZM20.5583 12V3.6H22.2223V6.24L22.0623 5.6C22.1796 5.19467 22.3769 4.82667 22.6543 4.496C22.9423 4.16533 23.2676 3.904 23.6302 3.712C24.0036 3.52 24.3876 3.424 24.7823 3.424C24.9636 3.424 25.1343 3.44 25.2943 3.472C25.4649 3.504 25.5983 3.54133 25.6943 3.584L25.2623 5.376C25.1343 5.32267 24.9903 5.28 24.8303 5.248C24.6809 5.20533 24.5316 5.184 24.3823 5.184C24.0943 5.184 23.8169 5.24267 23.5503 5.36C23.2943 5.46667 23.0649 5.62133 22.8623 5.824C22.6703 6.016 22.5156 6.24533 22.3983 6.512C22.2809 6.768 22.2223 7.05067 22.2223 7.36V12H20.5583ZM30.572 12.16C29.708 12.16 28.94 11.9787 28.268 11.616C27.6067 11.2427 27.084 10.736 26.7 10.096C26.3267 9.456 26.14 8.72 26.14 7.888C26.14 7.22667 26.2467 6.624 26.46 6.08C26.6733 5.536 26.9667 5.06667 27.34 4.672C27.724 4.26667 28.1773 3.95733 28.7 3.744C29.2333 3.52 29.8093 3.408 30.428 3.408C30.972 3.408 31.4787 3.51467 31.948 3.728C32.4173 3.93067 32.8227 4.21333 33.164 4.576C33.516 4.93867 33.7827 5.37067 33.964 5.872C34.156 6.36267 34.2467 6.90133 34.236 7.488L34.22 8.192H27.356L26.988 6.88H32.796L32.556 7.152V6.768C32.524 6.416 32.4067 6.10133 32.204 5.824C32.0013 5.54667 31.7453 5.328 31.436 5.168C31.1267 5.008 30.7907 4.928 30.428 4.928C29.852 4.928 29.3667 5.04 28.972 5.264C28.5773 5.47733 28.2787 5.79733 28.076 6.224C27.8733 6.64 27.772 7.15733 27.772 7.776C27.772 8.36267 27.8947 8.87467 28.14 9.312C28.3853 9.73867 28.732 10.0693 29.18 10.304C29.628 10.5387 30.1453 10.656 30.732 10.656C31.148 10.656 31.532 10.5867 31.884 10.448C32.2467 10.3093 32.636 10.0587 33.052 9.696L33.884 10.864C33.628 11.12 33.3133 11.344 32.94 11.536C32.5773 11.728 32.188 11.8827 31.772 12C31.3667 12.1067 30.9667 12.16 30.572 12.16ZM39.947 12.16C39.083 12.16 38.315 11.9787 37.643 11.616C36.9817 11.2427 36.459 10.736 36.075 10.096C35.7017 9.456 35.515 8.72 35.515 7.888C35.515 7.22667 35.6217 6.624 35.835 6.08C36.0483 5.536 36.3417 5.06667 36.715 4.672C37.099 4.26667 37.5523 3.95733 38.075 3.744C38.6083 3.52 39.1843 3.408 39.803 3.408C40.347 3.408 40.8537 3.51467 41.323 3.728C41.7923 3.93067 42.1977 4.21333 42.539 4.576C42.891 4.93867 43.1577 5.37067 43.339 5.872C43.531 6.36267 43.6217 6.90133 43.611 7.488L43.595 8.192H36.731L36.363 6.88H42.171L41.931 7.152V6.768C41.899 6.416 41.7817 6.10133 41.579 5.824C41.3763 5.54667 41.1203 5.328 40.811 5.168C40.5017 5.008 40.1657 4.928 39.803 4.928C39.227 4.928 38.7417 5.04 38.347 5.264C37.9523 5.47733 37.6537 5.79733 37.451 6.224C37.2483 6.64 37.147 7.15733 37.147 7.776C37.147 8.36267 37.2697 8.87467 37.515 9.312C37.7603 9.73867 38.107 10.0693 38.555 10.304C39.003 10.5387 39.5203 10.656 40.107 10.656C40.523 10.656 40.907 10.5867 41.259 10.448C41.6217 10.3093 42.011 10.0587 42.427 9.696L43.259 10.864C43.003 11.12 42.6883 11.344 42.315 11.536C41.9523 11.728 41.563 11.8827 41.147 12C40.7417 12.1067 40.3417 12.16 39.947 12.16ZM45.402 12V3.6H47.066V6.24L46.906 5.6C47.0233 5.19467 47.2207 4.82667 47.498 4.496C47.786 4.16533 48.1113 3.904 48.474 3.712C48.8473 3.52 49.2313 3.424 49.626 3.424C49.8073 3.424 49.978 3.44 50.138 3.472C50.3087 3.504 50.442 3.54133 50.538 3.584L50.106 5.376C49.978 5.32267 49.834 5.28 49.674 5.248C49.5247 5.20533 49.3753 5.184 49.226 5.184C48.938 5.184 48.6607 5.24267 48.394 5.36C48.138 5.46667 47.9087 5.62133 47.706 5.824C47.514 6.016 47.3593 6.24533 47.242 6.512C47.1247 6.768 47.066 7.05067 47.066 7.36V12H45.402ZM54.6551 12.16C53.9511 12.16 53.3165 12.0373 52.7511 11.792C52.1858 11.5467 51.7165 11.184 51.3431 10.704L52.4631 9.744C52.7831 10.1173 53.1298 10.3893 53.5031 10.56C53.8871 10.72 54.3191 10.8 54.7991 10.8C54.9911 10.8 55.1671 10.7787 55.3271 10.736C55.4978 10.6827 55.6418 10.608 55.7591 10.512C55.8871 10.416 55.9831 10.304 56.0471 10.176C56.1111 10.0373 56.1431 9.888 56.1431 9.728C56.1431 9.45067 56.0418 9.22667 55.8391 9.056C55.7325 8.98133 55.5618 8.90133 55.3271 8.816C55.1031 8.72 54.8098 8.624 54.4471 8.528C53.8285 8.368 53.3218 8.18667 52.9271 7.984C52.5325 7.78133 52.2285 7.552 52.0151 7.296C51.8551 7.09333 51.7378 6.87467 51.6631 6.64C51.5885 6.39467 51.5511 6.128 51.5511 5.84C51.5511 5.37067 51.6845 4.95467 51.9511 4.592C52.2178 4.22933 52.5751 3.94667 53.0231 3.744C53.4818 3.53067 53.9938 3.424 54.5591 3.424C54.9538 3.424 55.3431 3.47733 55.7271 3.584C56.1218 3.69067 56.4845 3.84533 56.8151 4.048C57.1458 4.25067 57.4231 4.49067 57.6471 4.768L56.7031 5.808C56.5005 5.60533 56.2765 5.42933 56.0311 5.28C55.7965 5.12 55.5565 4.99733 55.3111 4.912C55.0658 4.82667 54.8418 4.784 54.6391 4.784C54.4151 4.784 54.2125 4.80533 54.0311 4.848C53.8498 4.89067 53.6951 4.95467 53.5671 5.04C53.4498 5.12533 53.3591 5.232 53.2951 5.36C53.2311 5.488 53.1991 5.632 53.1991 5.792C53.2098 5.93067 53.2418 6.064 53.2951 6.192C53.3591 6.30933 53.4445 6.41067 53.5511 6.496C53.6685 6.58133 53.8445 6.672 54.0791 6.768C54.3138 6.864 54.6125 6.95467 54.9751 7.04C55.5085 7.17867 55.9458 7.33333 56.2871 7.504C56.6391 7.664 56.9165 7.85067 57.1191 8.064C57.3325 8.26667 57.4818 8.50133 57.5671 8.768C57.6525 9.03467 57.6951 9.33333 57.6951 9.664C57.6951 10.144 57.5565 10.576 57.2791 10.96C57.0125 11.3333 56.6498 11.6267 56.1911 11.84C55.7325 12.0533 55.2205 12.16 54.6551 12.16ZM6.256 43.16C5.46667 43.16 4.736 43.016 4.064 42.728C3.40267 42.44 2.82133 42.04 2.32 41.528C1.82933 41.0053 1.44533 40.3973 1.168 39.704C0.901333 39 0.768 38.232 0.768 37.4C0.768 36.568 0.901333 35.8053 1.168 35.112C1.44533 34.408 1.82933 33.8 2.32 33.288C2.82133 32.7653 3.40267 32.36 4.064 32.072C4.736 31.784 5.46667 31.64 6.256 31.64C7.04533 31.64 7.77067 31.784 8.432 32.072C9.104 32.36 9.68533 32.7653 10.176 33.288C10.6773 33.8107 11.0613 34.424 11.328 35.128C11.6053 35.8213 11.744 36.5787 11.744 37.4C11.744 38.2213 11.6053 38.984 11.328 39.688C11.0613 40.3813 10.6773 40.9893 10.176 41.512C9.68533 42.0347 9.104 42.44 8.432 42.728C7.77067 43.016 7.04533 43.16 6.256 43.16ZM6.256 41.48C6.8 41.48 7.296 41.3787 7.744 41.176C8.20267 40.9733 8.59733 40.6907 8.928 40.328C9.25867 39.9547 9.51467 39.5227 9.696 39.032C9.888 38.5307 9.984 37.9867 9.984 37.4C9.984 36.8133 9.888 36.2747 9.696 35.784C9.51467 35.2827 9.25867 34.8507 8.928 34.488C8.59733 34.1147 8.20267 33.8267 7.744 33.624C7.296 33.4213 6.8 33.32 6.256 33.32C5.712 33.32 5.21067 33.4213 4.752 33.624C4.304 33.8267 3.90933 34.1093 3.568 34.472C3.23733 34.8347 2.98133 35.2667 2.8 35.768C2.61867 36.2587 2.528 36.8027 2.528 37.4C2.528 38.1893 2.688 38.8933 3.008 39.512C3.328 40.12 3.76533 40.6 4.32 40.952C4.88533 41.304 5.53067 41.48 6.256 41.48ZM16.6116 43.16C16.0143 43.16 15.4916 43.0213 15.0436 42.744C14.6063 42.4667 14.265 42.0773 14.0196 41.576C13.785 41.0747 13.6676 40.4773 13.6676 39.784V34.6H15.3156V39.336C15.3156 40.072 15.4863 40.6533 15.8276 41.08C16.1796 41.5067 16.665 41.72 17.2836 41.72C17.593 41.72 17.8756 41.672 18.1316 41.576C18.3876 41.4693 18.6063 41.3253 18.7876 41.144C18.9796 40.9627 19.129 40.744 19.2356 40.488C19.3423 40.232 19.3956 39.9547 19.3956 39.656V34.6H21.0436V43H19.3956V41.24L19.6836 41.048C19.5556 41.4427 19.337 41.8 19.0276 42.12C18.729 42.44 18.3716 42.696 17.9556 42.888C17.5396 43.0693 17.0916 43.16 16.6116 43.16ZM23.3551 43V34.6H25.0191V37.24L24.8591 36.6C24.9765 36.1947 25.1738 35.8267 25.4511 35.496C25.7391 35.1653 26.0645 34.904 26.4271 34.712C26.8005 34.52 27.1845 34.424 27.5791 34.424C27.7605 34.424 27.9311 34.44 28.0911 34.472C28.2618 34.504 28.3951 34.5413 28.4911 34.584L28.0591 36.376C27.9311 36.3227 27.7871 36.28 27.6271 36.248C27.4778 36.2053 27.3285 36.184 27.1791 36.184C26.8911 36.184 26.6138 36.2427 26.3471 36.36C26.0911 36.4667 25.8618 36.6213 25.6591 36.824C25.4671 37.016 25.3125 37.2453 25.1951 37.512C25.0778 37.768 25.0191 38.0507 25.0191 38.36V43H23.3551ZM36.8366 43V33.464H33.7006V31.8H41.7966V33.464H38.5646V43H36.8366ZM45.8376 43.16C44.9736 43.16 44.2056 42.9787 43.5336 42.616C42.8723 42.2427 42.3496 41.736 41.9656 41.096C41.5923 40.456 41.4056 39.72 41.4056 38.888C41.4056 38.2267 41.5123 37.624 41.7256 37.08C41.939 36.536 42.2323 36.0667 42.6056 35.672C42.9896 35.2667 43.443 34.9573 43.9656 34.744C44.499 34.52 45.075 34.408 45.6936 34.408C46.2376 34.408 46.7443 34.5147 47.2136 34.728C47.683 34.9307 48.0883 35.2133 48.4296 35.576C48.7816 35.9387 49.0483 36.3707 49.2296 36.872C49.4216 37.3627 49.5123 37.9013 49.5016 38.488L49.4856 39.192H42.6216L42.2536 37.88H48.0616L47.8216 38.152V37.768C47.7896 37.416 47.6723 37.1013 47.4696 36.824C47.267 36.5467 47.011 36.328 46.7016 36.168C46.3923 36.008 46.0563 35.928 45.6936 35.928C45.1176 35.928 44.6323 36.04 44.2376 36.264C43.843 36.4773 43.5443 36.7973 43.3416 37.224C43.139 37.64 43.0376 38.1573 43.0376 38.776C43.0376 39.3627 43.1603 39.8747 43.4056 40.312C43.651 40.7387 43.9976 41.0693 44.4456 41.304C44.8936 41.5387 45.411 41.656 45.9976 41.656C46.4136 41.656 46.7976 41.5867 47.1496 41.448C47.5123 41.3093 47.9016 41.0587 48.3176 40.696L49.1496 41.864C48.8936 42.12 48.579 42.344 48.2056 42.536C47.843 42.728 47.4536 42.8827 47.0376 43C46.6323 43.1067 46.2323 43.16 45.8376 43.16ZM56.2686 43V37.528C56.2686 37.0587 56.098 36.68 55.7566 36.392C55.426 36.0933 55.0046 35.944 54.4926 35.944C54.0233 35.944 53.5966 36.04 53.2126 36.232C52.8393 36.424 52.498 36.7173 52.1886 37.112L51.1166 36.04C51.618 35.496 52.1566 35.0907 52.7326 34.824C53.3193 34.5573 53.9486 34.424 54.6206 34.424C55.2606 34.424 55.8153 34.5307 56.2846 34.744C56.754 34.9573 57.1166 35.272 57.3726 35.688C57.6286 36.0933 57.7566 36.5893 57.7566 37.176V43H56.2686ZM53.7566 43.16C53.2126 43.16 52.7273 43.0533 52.3006 42.84C51.874 42.6267 51.5326 42.3333 51.2766 41.96C51.0313 41.576 50.9086 41.128 50.9086 40.616C50.9086 40.168 50.9886 39.7733 51.1486 39.432C51.3086 39.0907 51.5433 38.808 51.8526 38.584C52.1726 38.36 52.5673 38.1893 53.0366 38.072C53.5166 37.9547 54.066 37.896 54.6846 37.896H57.0206L56.8766 39.208H54.4766C54.1566 39.208 53.8686 39.24 53.6126 39.304C53.3673 39.3573 53.154 39.448 52.9726 39.576C52.802 39.6933 52.674 39.8373 52.5886 40.008C52.5033 40.168 52.4606 40.36 52.4606 40.584C52.4606 40.8187 52.5193 41.0267 52.6366 41.208C52.754 41.3787 52.914 41.512 53.1166 41.608C53.3193 41.704 53.554 41.752 53.8206 41.752C54.2046 41.752 54.5673 41.688 54.9086 41.56C55.2606 41.4213 55.57 41.2347 55.8366 41C56.114 40.7653 56.3273 40.504 56.4766 40.216L56.8606 41.288C56.6366 41.6613 56.3593 41.9867 56.0286 42.264C55.698 42.5413 55.3406 42.76 54.9566 42.92C54.5726 43.08 54.1726 43.16 53.7566 43.16ZM59.8075 43V34.6H61.4715V36.392L61.1675 36.584C61.2528 36.3067 61.3862 36.04 61.5675 35.784C61.7595 35.528 61.9888 35.304 62.2555 35.112C62.5328 34.9093 62.8262 34.7493 63.1355 34.632C63.4555 34.5147 63.7808 34.456 64.1115 34.456C64.5915 34.456 65.0128 34.536 65.3755 34.696C65.7382 34.856 66.0368 35.096 66.2715 35.416C66.5062 35.736 66.6768 36.136 66.7835 36.616L66.5275 36.552L66.6395 36.28C66.7568 36.0347 66.9168 35.8053 67.1195 35.592C67.3328 35.368 67.5728 35.1707 67.8395 35C68.1062 34.8293 68.3888 34.696 68.6875 34.6C68.9862 34.504 69.2795 34.456 69.5675 34.456C70.1968 34.456 70.7142 34.584 71.1195 34.84C71.5355 35.096 71.8448 35.4853 72.0475 36.008C72.2608 36.5307 72.3675 37.1813 72.3675 37.96V43H70.7035V38.056C70.7035 37.3413 70.5648 36.8187 70.2875 36.488C70.0208 36.1467 69.5995 35.976 69.0235 35.976C68.7248 35.976 68.4422 36.0293 68.1755 36.136C67.9195 36.232 67.6955 36.3707 67.5035 36.552C67.3115 36.7333 67.1622 36.9467 67.0555 37.192C66.9488 37.4267 66.8955 37.688 66.8955 37.976V43H65.2315V38.024C65.2315 37.3627 65.0875 36.856 64.7995 36.504C64.5222 36.152 64.1168 35.976 63.5835 35.976C63.2848 35.976 63.0075 36.0293 62.7515 36.136C62.4955 36.232 62.2715 36.3707 62.0795 36.552C61.8875 36.7227 61.7382 36.9307 61.6315 37.176C61.5248 37.4107 61.4715 37.6667 61.4715 37.944V43H59.8075ZM5.024 74.16C4.10667 74.16 3.296 73.9787 2.592 73.616C1.89867 73.2533 1.30133 72.7093 0.8 71.984L1.984 70.624C2.50667 71.3707 3.008 71.888 3.488 72.176C3.968 72.464 4.53867 72.608 5.2 72.608C5.60533 72.608 5.97333 72.544 6.304 72.416C6.63467 72.288 6.896 72.112 7.088 71.888C7.28 71.664 7.376 71.408 7.376 71.12C7.376 70.928 7.344 70.7467 7.28 70.576C7.216 70.4053 7.11467 70.2507 6.976 70.112C6.848 69.9733 6.67733 69.8453 6.464 69.728C6.26133 69.6107 6.02133 69.5093 5.744 69.424C5.46667 69.328 5.14667 69.248 4.784 69.184C4.208 69.0667 3.70667 68.912 3.28 68.72C2.85333 68.528 2.496 68.288 2.208 68C1.92 67.712 1.70667 67.3867 1.568 67.024C1.42933 66.6507 1.36 66.2347 1.36 65.776C1.36 65.168 1.53067 64.6293 1.872 64.16C2.21333 63.6907 2.672 63.3227 3.248 63.056C3.83467 62.7787 4.49067 62.64 5.216 62.64C6.08 62.64 6.832 62.8107 7.472 63.152C8.12267 63.4827 8.63467 63.968 9.008 64.608L7.792 65.808C7.472 65.2853 7.088 64.8853 6.64 64.608C6.20267 64.3307 5.712 64.192 5.168 64.192C4.752 64.192 4.38933 64.256 4.08 64.384C3.77067 64.512 3.52533 64.6933 3.344 64.928C3.17333 65.152 3.088 65.4187 3.088 65.728C3.088 65.952 3.13067 66.16 3.216 66.352C3.30133 66.5333 3.42933 66.6987 3.6 66.848C3.78133 66.9867 4.02133 67.1147 4.32 67.232C4.61867 67.3387 4.976 67.4347 5.392 67.52C5.97867 67.648 6.50133 67.8133 6.96 68.016C7.41867 68.208 7.808 68.4373 8.128 68.704C8.448 68.9707 8.688 69.2693 8.848 69.6C9.01867 69.9307 9.104 70.288 9.104 70.672C9.104 71.3867 8.93867 72.0053 8.608 72.528C8.27733 73.0507 7.808 73.456 7.2 73.744C6.592 74.0213 5.86667 74.16 5.024 74.16ZM14.0804 74.16C13.483 74.16 12.9604 74.0213 12.5124 73.744C12.075 73.4667 11.7337 73.0773 11.4884 72.576C11.2537 72.0747 11.1364 71.4773 11.1364 70.784V65.6H12.7844V70.336C12.7844 71.072 12.955 71.6533 13.2964 72.08C13.6484 72.5067 14.1337 72.72 14.7524 72.72C15.0617 72.72 15.3444 72.672 15.6004 72.576C15.8564 72.4693 16.075 72.3253 16.2564 72.144C16.4484 71.9627 16.5977 71.744 16.7044 71.488C16.811 71.232 16.8644 70.9547 16.8644 70.656V65.6H18.5124V74H16.8644V72.24L17.1524 72.048C17.0244 72.4427 16.8057 72.8 16.4964 73.12C16.1977 73.44 15.8404 73.696 15.4244 73.888C15.0084 74.0693 14.5604 74.16 14.0804 74.16ZM20.8239 77.52V65.6H22.4879V67.52L22.2319 67.376C22.2959 67.056 22.4772 66.752 22.7759 66.464C23.0745 66.1653 23.4372 65.9253 23.8639 65.744C24.3012 65.552 24.7492 65.456 25.2079 65.456C25.9652 65.456 26.6372 65.6427 27.2239 66.016C27.8105 66.3893 28.2745 66.9013 28.6159 67.552C28.9572 68.2027 29.1279 68.9493 29.1279 69.792C29.1279 70.624 28.9572 71.3707 28.6159 72.032C28.2852 72.6827 27.8265 73.2 27.2399 73.584C26.6532 73.9573 25.9919 74.144 25.2559 74.144C24.7652 74.144 24.2905 74.048 23.8319 73.856C23.3732 73.6533 22.9839 73.3973 22.6639 73.088C22.3439 72.7787 22.1465 72.4587 22.0719 72.128L22.4879 71.904V77.52H20.8239ZM24.9839 72.624C25.4745 72.624 25.9119 72.5013 26.2959 72.256C26.6799 72.0107 26.9839 71.6747 27.2079 71.248C27.4319 70.8213 27.5439 70.336 27.5439 69.792C27.5439 69.248 27.4319 68.768 27.2079 68.352C26.9945 67.9253 26.6959 67.5893 26.3119 67.344C25.9279 67.0987 25.4852 66.976 24.9839 66.976C24.4825 66.976 24.0399 67.0987 23.6559 67.344C23.2719 67.5787 22.9679 67.9093 22.7439 68.336C22.5199 68.7627 22.4079 69.248 22.4079 69.792C22.4079 70.336 22.5199 70.8213 22.7439 71.248C22.9679 71.6747 23.2719 72.0107 23.6559 72.256C24.0399 72.5013 24.4825 72.624 24.9839 72.624ZM30.9176 77.52V65.6H32.5816V67.52L32.3256 67.376C32.3896 67.056 32.571 66.752 32.8696 66.464C33.1683 66.1653 33.531 65.9253 33.9576 65.744C34.395 65.552 34.843 65.456 35.3016 65.456C36.059 65.456 36.731 65.6427 37.3176 66.016C37.9043 66.3893 38.3683 66.9013 38.7096 67.552C39.051 68.2027 39.2216 68.9493 39.2216 69.792C39.2216 70.624 39.051 71.3707 38.7096 72.032C38.379 72.6827 37.9203 73.2 37.3336 73.584C36.747 73.9573 36.0856 74.144 35.3496 74.144C34.859 74.144 34.3843 74.048 33.9256 73.856C33.467 73.6533 33.0776 73.3973 32.7576 73.088C32.4376 72.7787 32.2403 72.4587 32.1656 72.128L32.5816 71.904V77.52H30.9176ZM35.0776 72.624C35.5683 72.624 36.0056 72.5013 36.3896 72.256C36.7736 72.0107 37.0776 71.6747 37.3016 71.248C37.5256 70.8213 37.6376 70.336 37.6376 69.792C37.6376 69.248 37.5256 68.768 37.3016 68.352C37.0883 67.9253 36.7896 67.5893 36.4056 67.344C36.0216 67.0987 35.579 66.976 35.0776 66.976C34.5763 66.976 34.1336 67.0987 33.7496 67.344C33.3656 67.5787 33.0616 67.9093 32.8376 68.336C32.6136 68.7627 32.5016 69.248 32.5016 69.792C32.5016 70.336 32.6136 70.8213 32.8376 71.248C33.0616 71.6747 33.3656 72.0107 33.7496 72.256C34.1336 72.5013 34.5763 72.624 35.0776 72.624ZM41.0434 74V62.16H42.6914V74H41.0434ZM45.299 74V65.6H46.947V74H45.299ZM46.099 63.744C45.747 63.744 45.475 63.6533 45.283 63.472C45.091 63.2907 44.995 63.0347 44.995 62.704C44.995 62.3947 45.091 62.144 45.283 61.952C45.4857 61.76 45.7577 61.664 46.099 61.664C46.451 61.664 46.723 61.7547 46.915 61.936C47.107 62.1173 47.203 62.3733 47.203 62.704C47.203 63.0133 47.1017 63.264 46.899 63.456C46.707 63.648 46.4403 63.744 46.099 63.744ZM53.4001 74.16C52.5361 74.16 51.7681 73.9787 51.0961 73.616C50.4348 73.2427 49.9121 72.736 49.5281 72.096C49.1548 71.456 48.9681 70.72 48.9681 69.888C48.9681 69.2267 49.0748 68.624 49.2881 68.08C49.5015 67.536 49.7948 67.0667 50.1681 66.672C50.5521 66.2667 51.0055 65.9573 51.5281 65.744C52.0615 65.52 52.6375 65.408 53.2561 65.408C53.8001 65.408 54.3068 65.5147 54.7761 65.728C55.2455 65.9307 55.6508 66.2133 55.9921 66.576C56.3441 66.9387 56.6108 67.3707 56.7921 67.872C56.9841 68.3627 57.0748 68.9013 57.0641 69.488L57.0481 70.192H50.1841L49.8161 68.88H55.6241L55.3841 69.152V68.768C55.3521 68.416 55.2348 68.1013 55.0321 67.824C54.8295 67.5467 54.5735 67.328 54.2641 67.168C53.9548 67.008 53.6188 66.928 53.2561 66.928C52.6801 66.928 52.1948 67.04 51.8001 67.264C51.4055 67.4773 51.1068 67.7973 50.9041 68.224C50.7015 68.64 50.6001 69.1573 50.6001 69.776C50.6001 70.3627 50.7228 70.8747 50.9681 71.312C51.2135 71.7387 51.5601 72.0693 52.0081 72.304C52.4561 72.5387 52.9735 72.656 53.5601 72.656C53.9761 72.656 54.3601 72.5867 54.7121 72.448C55.0748 72.3093 55.4641 72.0587 55.8801 71.696L56.7121 72.864C56.4561 73.12 56.1415 73.344 55.7681 73.536C55.4055 73.728 55.0161 73.8827 54.6001 74C54.1948 74.1067 53.7948 74.16 53.4001 74.16ZM58.8551 74V65.6H60.5191V68.24L60.3591 67.6C60.4765 67.1947 60.6738 66.8267 60.9511 66.496C61.2391 66.1653 61.5645 65.904 61.9271 65.712C62.3005 65.52 62.6845 65.424 63.0791 65.424C63.2605 65.424 63.4311 65.44 63.5911 65.472C63.7618 65.504 63.8951 65.5413 63.9911 65.584L63.5591 67.376C63.4311 67.3227 63.2871 67.28 63.1271 67.248C62.9778 67.2053 62.8285 67.184 62.6791 67.184C62.3911 67.184 62.1138 67.2427 61.8471 67.36C61.5911 67.4667 61.3618 67.6213 61.1591 67.824C60.9671 68.016 60.8125 68.2453 60.6951 68.512C60.5778 68.768 60.5191 69.0507 60.5191 69.36V74H58.8551ZM68.1083 74.16C67.4043 74.16 66.7696 74.0373 66.2043 73.792C65.6389 73.5467 65.1696 73.184 64.7963 72.704L65.9163 71.744C66.2363 72.1173 66.5829 72.3893 66.9563 72.56C67.3403 72.72 67.7723 72.8 68.2523 72.8C68.4443 72.8 68.6203 72.7787 68.7803 72.736C68.9509 72.6827 69.0949 72.608 69.2123 72.512C69.3403 72.416 69.4363 72.304 69.5003 72.176C69.5643 72.0373 69.5963 71.888 69.5963 71.728C69.5963 71.4507 69.4949 71.2267 69.2923 71.056C69.1856 70.9813 69.0149 70.9013 68.7803 70.816C68.5563 70.72 68.2629 70.624 67.9003 70.528C67.2816 70.368 66.7749 70.1867 66.3803 69.984C65.9856 69.7813 65.6816 69.552 65.4683 69.296C65.3083 69.0933 65.1909 68.8747 65.1163 68.64C65.0416 68.3947 65.0043 68.128 65.0043 67.84C65.0043 67.3707 65.1376 66.9547 65.4043 66.592C65.6709 66.2293 66.0283 65.9467 66.4763 65.744C66.9349 65.5307 67.4469 65.424 68.0123 65.424C68.4069 65.424 68.7963 65.4773 69.1803 65.584C69.5749 65.6907 69.9376 65.8453 70.2683 66.048C70.5989 66.2507 70.8763 66.4907 71.1003 66.768L70.1563 67.808C69.9536 67.6053 69.7296 67.4293 69.4843 67.28C69.2496 67.12 69.0096 66.9973 68.7643 66.912C68.5189 66.8267 68.2949 66.784 68.0923 66.784C67.8683 66.784 67.6656 66.8053 67.4843 66.848C67.3029 66.8907 67.1483 66.9547 67.0203 67.04C66.9029 67.1253 66.8123 67.232 66.7483 67.36C66.6843 67.488 66.6523 67.632 66.6523 67.792C66.6629 67.9307 66.6949 68.064 66.7483 68.192C66.8123 68.3093 66.8976 68.4107 67.0043 68.496C67.1216 68.5813 67.2976 68.672 67.5323 68.768C67.7669 68.864 68.0656 68.9547 68.4283 69.04C68.9616 69.1787 69.3989 69.3333 69.7403 69.504C70.0923 69.664 70.3696 69.8507 70.5723 70.064C70.7856 70.2667 70.9349 70.5013 71.0203 70.768C71.1056 71.0347 71.1483 71.3333 71.1483 71.664C71.1483 72.144 71.0096 72.576 70.7323 72.96C70.4656 73.3333 70.1029 73.6267 69.6443 73.84C69.1856 74.0533 68.6736 74.16 68.1083 74.16ZM0.4 105L4.736 93.8H6.496L10.8 105H8.96L6.4 98.248C6.368 98.1733 6.304 97.992 6.208 97.704C6.12267 97.416 6.02133 97.096 5.904 96.744C5.78667 96.392 5.68 96.072 5.584 95.784C5.488 95.4853 5.424 95.2933 5.392 95.208L5.76 95.192C5.696 95.3733 5.616 95.6027 5.52 95.88C5.43467 96.1573 5.33867 96.4507 5.232 96.76C5.136 97.0693 5.04 97.3627 4.944 97.64C4.848 97.9067 4.768 98.1307 4.704 98.312L2.16 105H0.4ZM2.32 102.216L2.96 100.552H8.048L8.784 102.216H2.32ZM16.7711 105.16C16.4085 105.16 16.0458 105.101 15.6831 104.984C15.3311 104.867 15.0058 104.712 14.7071 104.52C14.4191 104.317 14.1738 104.099 13.9711 103.864C13.7791 103.619 13.6511 103.373 13.5871 103.128L14.0031 102.904V104.952H12.3551V93.16H14.0031V98.52L13.7471 98.376C13.8005 98.1307 13.9178 97.896 14.0991 97.672C14.2805 97.4373 14.5098 97.2293 14.7871 97.048C15.0751 96.856 15.3845 96.7067 15.7151 96.6C16.0458 96.4827 16.3818 96.424 16.7231 96.424C17.4805 96.424 18.1525 96.6107 18.7391 96.984C19.3258 97.3573 19.7898 97.8747 20.1311 98.536C20.4725 99.1867 20.6431 99.9333 20.6431 100.776C20.6431 101.619 20.4725 102.371 20.1311 103.032C19.8005 103.693 19.3418 104.216 18.7551 104.6C18.1685 104.973 17.5071 105.16 16.7711 105.16ZM16.4991 103.656C16.9898 103.656 17.4271 103.533 17.8111 103.288C18.1951 103.032 18.4991 102.691 18.7231 102.264C18.9471 101.827 19.0591 101.331 19.0591 100.776C19.0591 100.232 18.9471 99.7467 18.7231 99.32C18.5098 98.8827 18.2111 98.5413 17.8271 98.296C17.4431 98.0507 17.0005 97.928 16.4991 97.928C15.9978 97.928 15.5551 98.0507 15.1711 98.296C14.7871 98.5413 14.4831 98.8827 14.2591 99.32C14.0351 99.7467 13.9231 100.232 13.9231 100.776C13.9231 101.331 14.0351 101.827 14.2591 102.264C14.4831 102.691 14.7871 103.032 15.1711 103.288C15.5551 103.533 15.9978 103.656 16.4991 103.656ZM26.2093 105.16C25.3879 105.16 24.6519 104.973 24.0013 104.6C23.3613 104.216 22.8546 103.699 22.4813 103.048C22.1079 102.387 21.9213 101.635 21.9213 100.792C21.9213 99.9493 22.1079 99.2027 22.4813 98.552C22.8546 97.8907 23.3613 97.3733 24.0013 97C24.6519 96.616 25.3879 96.424 26.2093 96.424C27.0199 96.424 27.7453 96.616 28.3853 97C29.0359 97.3733 29.5479 97.8907 29.9213 98.552C30.2946 99.2027 30.4813 99.9493 30.4813 100.792C30.4813 101.635 30.2946 102.387 29.9213 103.048C29.5479 103.699 29.0359 104.216 28.3853 104.6C27.7453 104.973 27.0199 105.16 26.2093 105.16ZM26.2093 103.656C26.7106 103.656 27.1586 103.533 27.5533 103.288C27.9479 103.032 28.2573 102.691 28.4813 102.264C28.7053 101.827 28.8119 101.336 28.8013 100.792C28.8119 100.237 28.7053 99.7467 28.4813 99.32C28.2573 98.8827 27.9479 98.5413 27.5533 98.296C27.1586 98.0507 26.7106 97.928 26.2093 97.928C25.7079 97.928 25.2546 98.056 24.8493 98.312C24.4546 98.5573 24.1453 98.8987 23.9213 99.336C23.6973 99.7627 23.5906 100.248 23.6013 100.792C23.5906 101.336 23.6973 101.827 23.9213 102.264C24.1453 102.691 24.4546 103.032 24.8493 103.288C25.2546 103.533 25.7079 103.656 26.2093 103.656ZM35.221 105.16C34.6237 105.16 34.101 105.021 33.653 104.744C33.2157 104.467 32.8743 104.077 32.629 103.576C32.3943 103.075 32.277 102.477 32.277 101.784V96.6H33.925V101.336C33.925 102.072 34.0957 102.653 34.437 103.08C34.789 103.507 35.2743 103.72 35.893 103.72C36.2023 103.72 36.485 103.672 36.741 103.576C36.997 103.469 37.2157 103.325 37.397 103.144C37.589 102.963 37.7383 102.744 37.845 102.488C37.9517 102.232 38.005 101.955 38.005 101.656V96.6H39.653V105H38.005V103.24L38.293 103.048C38.165 103.443 37.9463 103.8 37.637 104.12C37.3383 104.44 36.981 104.696 36.565 104.888C36.149 105.069 35.701 105.16 35.221 105.16ZM43.0045 105V94.456H44.6525V105H43.0045ZM41.2605 98.2V96.6H46.6045V98.2H41.2605ZM57.3575 105.096C56.4935 105.096 55.7202 104.909 55.0375 104.536C54.3548 104.152 53.8162 103.629 53.4215 102.968C53.0375 102.296 52.8455 101.539 52.8455 100.696V93.784H54.5735V100.552C54.5735 101.096 54.7015 101.587 54.9575 102.024C55.2135 102.451 55.5495 102.792 55.9655 103.048C56.3922 103.304 56.8562 103.432 57.3575 103.432C57.8908 103.432 58.3708 103.304 58.7975 103.048C59.2348 102.792 59.5815 102.451 59.8375 102.024C60.0935 101.587 60.2215 101.096 60.2215 100.552V93.784H61.8695V100.696C61.8695 101.539 61.6722 102.296 61.2775 102.968C60.8935 103.629 60.3602 104.152 59.6775 104.536C58.9948 104.909 58.2215 105.096 57.3575 105.096ZM67.2333 105.16C66.5293 105.16 65.8946 105.037 65.3293 104.792C64.7639 104.547 64.2946 104.184 63.9213 103.704L65.0413 102.744C65.3613 103.117 65.7079 103.389 66.0813 103.56C66.4653 103.72 66.8973 103.8 67.3773 103.8C67.5693 103.8 67.7453 103.779 67.9053 103.736C68.0759 103.683 68.2199 103.608 68.3373 103.512C68.4653 103.416 68.5613 103.304 68.6253 103.176C68.6893 103.037 68.7213 102.888 68.7213 102.728C68.7213 102.451 68.6199 102.227 68.4173 102.056C68.3106 101.981 68.1399 101.901 67.9053 101.816C67.6813 101.72 67.3879 101.624 67.0253 101.528C66.4066 101.368 65.8999 101.187 65.5053 100.984C65.1106 100.781 64.8066 100.552 64.5933 100.296C64.4333 100.093 64.3159 99.8747 64.2413 99.64C64.1666 99.3947 64.1293 99.128 64.1293 98.84C64.1293 98.3707 64.2626 97.9547 64.5293 97.592C64.7959 97.2293 65.1533 96.9467 65.6013 96.744C66.0599 96.5307 66.5719 96.424 67.1373 96.424C67.5319 96.424 67.9213 96.4773 68.3053 96.584C68.6999 96.6907 69.0626 96.8453 69.3933 97.048C69.7239 97.2507 70.0013 97.4907 70.2253 97.768L69.2813 98.808C69.0786 98.6053 68.8546 98.4293 68.6093 98.28C68.3746 98.12 68.1346 97.9973 67.8893 97.912C67.6439 97.8267 67.4199 97.784 67.2173 97.784C66.9933 97.784 66.7906 97.8053 66.6093 97.848C66.4279 97.8907 66.2733 97.9547 66.1453 98.04C66.0279 98.1253 65.9373 98.232 65.8733 98.36C65.8093 98.488 65.7773 98.632 65.7773 98.792C65.7879 98.9307 65.8199 99.064 65.8733 99.192C65.9373 99.3093 66.0226 99.4107 66.1293 99.496C66.2466 99.5813 66.4226 99.672 66.6573 99.768C66.8919 99.864 67.1906 99.9547 67.5533 100.04C68.0866 100.179 68.5239 100.333 68.8653 100.504C69.2173 100.664 69.4946 100.851 69.6973 101.064C69.9106 101.267 70.0599 101.501 70.1453 101.768C70.2306 102.035 70.2733 102.333 70.2733 102.664C70.2733 103.144 70.1346 103.576 69.8573 103.96C69.5906 104.333 69.2279 104.627 68.7693 104.84C68.3106 105.053 67.7986 105.16 67.2333 105.16ZM3.696 136V126.464H0.56V124.8H8.656V126.464H5.424V136H3.696ZM12.697 136.16C11.833 136.16 11.065 135.979 10.393 135.616C9.73167 135.243 9.209 134.736 8.825 134.096C8.45167 133.456 8.265 132.72 8.265 131.888C8.265 131.227 8.37167 130.624 8.585 130.08C8.79833 129.536 9.09167 129.067 9.465 128.672C9.849 128.267 10.3023 127.957 10.825 127.744C11.3583 127.52 11.9343 127.408 12.553 127.408C13.097 127.408 13.6037 127.515 14.073 127.728C14.5423 127.931 14.9477 128.213 15.289 128.576C15.641 128.939 15.9077 129.371 16.089 129.872C16.281 130.363 16.3717 130.901 16.361 131.488L16.345 132.192H9.481L9.113 130.88H14.921L14.681 131.152V130.768C14.649 130.416 14.5317 130.101 14.329 129.824C14.1263 129.547 13.8703 129.328 13.561 129.168C13.2517 129.008 12.9157 128.928 12.553 128.928C11.977 128.928 11.4917 129.04 11.097 129.264C10.7023 129.477 10.4037 129.797 10.201 130.224C9.99833 130.64 9.897 131.157 9.897 131.776C9.897 132.363 10.0197 132.875 10.265 133.312C10.5103 133.739 10.857 134.069 11.305 134.304C11.753 134.539 12.2703 134.656 12.857 134.656C13.273 134.656 13.657 134.587 14.009 134.448C14.3717 134.309 14.761 134.059 15.177 133.696L16.009 134.864C15.753 135.12 15.4383 135.344 15.065 135.536C14.7023 135.728 14.313 135.883 13.897 136C13.4917 136.107 13.0917 136.16 12.697 136.16ZM18.152 136V127.6H19.816V130.24L19.656 129.6C19.7733 129.195 19.9707 128.827 20.248 128.496C20.536 128.165 20.8613 127.904 21.224 127.712C21.5973 127.52 21.9813 127.424 22.376 127.424C22.5573 127.424 22.728 127.44 22.888 127.472C23.0587 127.504 23.192 127.541 23.288 127.584L22.856 129.376C22.728 129.323 22.584 129.28 22.424 129.248C22.2747 129.205 22.1253 129.184 21.976 129.184C21.688 129.184 21.4107 129.243 21.144 129.36C20.888 129.467 20.6587 129.621 20.456 129.824C20.264 130.016 20.1093 130.245 19.992 130.512C19.8747 130.768 19.816 131.051 19.816 131.36V136H18.152ZM24.5731 136V127.6H26.2371V129.392L25.9331 129.584C26.0185 129.307 26.1518 129.04 26.3331 128.784C26.5251 128.528 26.7545 128.304 27.0211 128.112C27.2985 127.909 27.5918 127.749 27.9011 127.632C28.2211 127.515 28.5465 127.456 28.8771 127.456C29.3571 127.456 29.7785 127.536 30.1411 127.696C30.5038 127.856 30.8025 128.096 31.0371 128.416C31.2718 128.736 31.4425 129.136 31.5491 129.616L31.2931 129.552L31.4051 129.28C31.5225 129.035 31.6825 128.805 31.8851 128.592C32.0985 128.368 32.3385 128.171 32.6051 128C32.8718 127.829 33.1545 127.696 33.4531 127.6C33.7518 127.504 34.0451 127.456 34.3331 127.456C34.9625 127.456 35.4798 127.584 35.8851 127.84C36.3011 128.096 36.6105 128.485 36.8131 129.008C37.0265 129.531 37.1331 130.181 37.1331 130.96V136H35.4691V131.056C35.4691 130.341 35.3305 129.819 35.0531 129.488C34.7865 129.147 34.3651 128.976 33.7891 128.976C33.4905 128.976 33.2078 129.029 32.9411 129.136C32.6851 129.232 32.4611 129.371 32.2691 129.552C32.0771 129.733 31.9278 129.947 31.8211 130.192C31.7145 130.427 31.6611 130.688 31.6611 130.976V136H29.9971V131.024C29.9971 130.363 29.8531 129.856 29.5651 129.504C29.2878 129.152 28.8825 128.976 28.3491 128.976C28.0505 128.976 27.7731 129.029 27.5171 129.136C27.2611 129.232 27.0371 129.371 26.8451 129.552C26.6531 129.723 26.5038 129.931 26.3971 130.176C26.2905 130.411 26.2371 130.667 26.2371 130.944V136H24.5731ZM42.1395 136.16C41.4355 136.16 40.8008 136.037 40.2355 135.792C39.6702 135.547 39.2008 135.184 38.8275 134.704L39.9475 133.744C40.2675 134.117 40.6142 134.389 40.9875 134.56C41.3715 134.72 41.8035 134.8 42.2835 134.8C42.4755 134.8 42.6515 134.779 42.8115 134.736C42.9822 134.683 43.1262 134.608 43.2435 134.512C43.3715 134.416 43.4675 134.304 43.5315 134.176C43.5955 134.037 43.6275 133.888 43.6275 133.728C43.6275 133.451 43.5262 133.227 43.3235 133.056C43.2168 132.981 43.0462 132.901 42.8115 132.816C42.5875 132.72 42.2942 132.624 41.9315 132.528C41.3128 132.368 40.8062 132.187 40.4115 131.984C40.0168 131.781 39.7128 131.552 39.4995 131.296C39.3395 131.093 39.2222 130.875 39.1475 130.64C39.0728 130.395 39.0355 130.128 39.0355 129.84C39.0355 129.371 39.1688 128.955 39.4355 128.592C39.7022 128.229 40.0595 127.947 40.5075 127.744C40.9662 127.531 41.4782 127.424 42.0435 127.424C42.4382 127.424 42.8275 127.477 43.2115 127.584C43.6062 127.691 43.9688 127.845 44.2995 128.048C44.6302 128.251 44.9075 128.491 45.1315 128.768L44.1875 129.808C43.9848 129.605 43.7608 129.429 43.5155 129.28C43.2808 129.12 43.0408 128.997 42.7955 128.912C42.5502 128.827 42.3262 128.784 42.1235 128.784C41.8995 128.784 41.6968 128.805 41.5155 128.848C41.3342 128.891 41.1795 128.955 41.0515 129.04C40.9342 129.125 40.8435 129.232 40.7795 129.36C40.7155 129.488 40.6835 129.632 40.6835 129.792C40.6942 129.931 40.7262 130.064 40.7795 130.192C40.8435 130.309 40.9288 130.411 41.0355 130.496C41.1528 130.581 41.3288 130.672 41.5635 130.768C41.7982 130.864 42.0968 130.955 42.4595 131.04C42.9928 131.179 43.4302 131.333 43.7715 131.504C44.1235 131.664 44.4008 131.851 44.6035 132.064C44.8168 132.267 44.9662 132.501 45.0515 132.768C45.1368 133.035 45.1795 133.333 45.1795 133.664C45.1795 134.144 45.0408 134.576 44.7635 134.96C44.4968 135.333 44.1342 135.627 43.6755 135.84C43.2168 136.053 42.7048 136.16 42.1395 136.16ZM56.5841 136.16C55.7948 136.16 55.0641 136.016 54.3921 135.728C53.7308 135.44 53.1495 135.04 52.6481 134.528C52.1575 134.005 51.7735 133.397 51.4961 132.704C51.2295 132 51.0961 131.232 51.0961 130.4C51.0961 129.568 51.2295 128.805 51.4961 128.112C51.7735 127.408 52.1575 126.8 52.6481 126.288C53.1495 125.765 53.7308 125.36 54.3921 125.072C55.0641 124.784 55.7948 124.64 56.5841 124.64C57.3735 124.64 58.0988 124.784 58.7601 125.072C59.4321 125.36 60.0135 125.765 60.5041 126.288C61.0055 126.811 61.3895 127.424 61.6561 128.128C61.9335 128.821 62.0721 129.579 62.0721 130.4C62.0721 131.221 61.9335 131.984 61.6561 132.688C61.3895 133.381 61.0055 133.989 60.5041 134.512C60.0135 135.035 59.4321 135.44 58.7601 135.728C58.0988 136.016 57.3735 136.16 56.5841 136.16ZM56.5841 134.48C57.1281 134.48 57.6241 134.379 58.0721 134.176C58.5308 133.973 58.9255 133.691 59.2561 133.328C59.5868 132.955 59.8428 132.523 60.0241 132.032C60.2161 131.531 60.3121 130.987 60.3121 130.4C60.3121 129.813 60.2161 129.275 60.0241 128.784C59.8428 128.283 59.5868 127.851 59.2561 127.488C58.9255 127.115 58.5308 126.827 58.0721 126.624C57.6241 126.421 57.1281 126.32 56.5841 126.32C56.0401 126.32 55.5388 126.421 55.0801 126.624C54.6321 126.827 54.2375 127.109 53.8961 127.472C53.5655 127.835 53.3095 128.267 53.1281 128.768C52.9468 129.259 52.8561 129.803 52.8561 130.4C52.8561 131.189 53.0161 131.893 53.3361 132.512C53.6561 133.12 54.0935 133.6 54.6481 133.952C55.2135 134.304 55.8588 134.48 56.5841 134.48ZM64.9078 136V126.656C64.9078 126.176 65.0144 125.749 65.2278 125.376C65.4411 125.003 65.7344 124.709 66.1078 124.496C66.4811 124.283 66.9131 124.176 67.4038 124.176C67.7451 124.176 68.0651 124.24 68.3638 124.368C68.6624 124.496 68.9024 124.667 69.0838 124.88L68.5238 126.144C68.3851 126.016 68.2304 125.915 68.0598 125.84C67.8998 125.755 67.7451 125.712 67.5958 125.712C67.3718 125.712 67.1798 125.749 67.0198 125.824C66.8704 125.888 66.7584 125.995 66.6838 126.144C66.6091 126.283 66.5718 126.453 66.5718 126.656V136H65.7398C65.6011 136 65.4624 136 65.3238 136C65.1851 136 65.0464 136 64.9078 136ZM63.5638 129.264V127.744H68.5558V129.264H63.5638ZM79.5294 136.096C78.6654 136.096 77.892 135.909 77.2094 135.536C76.5267 135.152 75.988 134.629 75.5934 133.968C75.2094 133.296 75.0174 132.539 75.0174 131.696V124.784H76.7454V131.552C76.7454 132.096 76.8734 132.587 77.1294 133.024C77.3854 133.451 77.7214 133.792 78.1374 134.048C78.564 134.304 79.028 134.432 79.5294 134.432C80.0627 134.432 80.5427 134.304 80.9694 134.048C81.4067 133.792 81.7534 133.451 82.0094 133.024C82.2654 132.587 82.3934 132.096 82.3934 131.552V124.784H84.0414V131.696C84.0414 132.539 83.844 133.296 83.4494 133.968C83.0654 134.629 82.532 135.152 81.8494 135.536C81.1667 135.909 80.3934 136.096 79.5294 136.096ZM89.4051 136.16C88.7011 136.16 88.0665 136.037 87.5011 135.792C86.9358 135.547 86.4665 135.184 86.0931 134.704L87.2131 133.744C87.5331 134.117 87.8798 134.389 88.2531 134.56C88.6371 134.72 89.0691 134.8 89.5491 134.8C89.7411 134.8 89.9171 134.779 90.0771 134.736C90.2478 134.683 90.3918 134.608 90.5091 134.512C90.6371 134.416 90.7331 134.304 90.7971 134.176C90.8611 134.037 90.8931 133.888 90.8931 133.728C90.8931 133.451 90.7918 133.227 90.5891 133.056C90.4825 132.981 90.3118 132.901 90.0771 132.816C89.8531 132.72 89.5598 132.624 89.1971 132.528C88.5785 132.368 88.0718 132.187 87.6771 131.984C87.2825 131.781 86.9785 131.552 86.7651 131.296C86.6051 131.093 86.4878 130.875 86.4131 130.64C86.3385 130.395 86.3011 130.128 86.3011 129.84C86.3011 129.371 86.4345 128.955 86.7011 128.592C86.9678 128.229 87.3251 127.947 87.7731 127.744C88.2318 127.531 88.7438 127.424 89.3091 127.424C89.7038 127.424 90.0931 127.477 90.4771 127.584C90.8718 127.691 91.2345 127.845 91.5651 128.048C91.8958 128.251 92.1731 128.491 92.3971 128.768L91.4531 129.808C91.2505 129.605 91.0265 129.429 90.7811 129.28C90.5465 129.12 90.3065 128.997 90.0611 128.912C89.8158 128.827 89.5918 128.784 89.3891 128.784C89.1651 128.784 88.9625 128.805 88.7811 128.848C88.5998 128.891 88.4451 128.955 88.3171 129.04C88.1998 129.125 88.1091 129.232 88.0451 129.36C87.9811 129.488 87.9491 129.632 87.9491 129.792C87.9598 129.931 87.9918 130.064 88.0451 130.192C88.1091 130.309 88.1945 130.411 88.3011 130.496C88.4185 130.581 88.5945 130.672 88.8291 130.768C89.0638 130.864 89.3625 130.955 89.7251 131.04C90.2585 131.179 90.6958 131.333 91.0371 131.504C91.3891 131.664 91.6665 131.851 91.8691 132.064C92.0825 132.267 92.2318 132.501 92.3171 132.768C92.4025 133.035 92.4451 133.333 92.4451 133.664C92.4451 134.144 92.3065 134.576 92.0291 134.96C91.7625 135.333 91.3998 135.627 90.9411 135.84C90.4825 136.053 89.9705 136.16 89.4051 136.16ZM98.1814 136.16C97.3174 136.16 96.5494 135.979 95.8774 135.616C95.216 135.243 94.6934 134.736 94.3094 134.096C93.936 133.456 93.7494 132.72 93.7494 131.888C93.7494 131.227 93.856 130.624 94.0694 130.08C94.2827 129.536 94.576 129.067 94.9494 128.672C95.3334 128.267 95.7867 127.957 96.3094 127.744C96.8427 127.52 97.4187 127.408 98.0374 127.408C98.5814 127.408 99.088 127.515 99.5574 127.728C100.027 127.931 100.432 128.213 100.773 128.576C101.125 128.939 101.392 129.371 101.573 129.872C101.765 130.363 101.856 130.901 101.845 131.488L101.829 132.192H94.9654L94.5974 130.88H100.405L100.165 131.152V130.768C100.133 130.416 100.016 130.101 99.8134 129.824C99.6107 129.547 99.3547 129.328 99.0454 129.168C98.736 129.008 98.4 128.928 98.0374 128.928C97.4614 128.928 96.976 129.04 96.5814 129.264C96.1867 129.477 95.888 129.797 95.6854 130.224C95.4827 130.64 95.3814 131.157 95.3814 131.776C95.3814 132.363 95.504 132.875 95.7494 133.312C95.9947 133.739 96.3414 134.069 96.7894 134.304C97.2374 134.539 97.7547 134.656 98.3414 134.656C98.7574 134.656 99.1414 134.587 99.4934 134.448C99.856 134.309 100.245 134.059 100.661 133.696L101.493 134.864C101.237 135.12 100.923 135.344 100.549 135.536C100.187 135.728 99.7974 135.883 99.3814 136C98.976 136.107 98.576 136.16 98.1814 136.16ZM1.568 167V155.8H6.128C6.736 155.8 7.28533 155.955 7.776 156.264C8.27733 156.563 8.67733 156.973 8.976 157.496C9.27467 158.019 9.424 158.6 9.424 159.24C9.424 159.88 9.27467 160.461 8.976 160.984C8.67733 161.507 8.27733 161.928 7.776 162.248C7.28533 162.557 6.736 162.712 6.128 162.712H3.296V167H1.568ZM3.296 161.048H6.096C6.384 161.048 6.64533 160.968 6.88 160.808C7.11467 160.637 7.30133 160.419 7.44 160.152C7.58933 159.875 7.664 159.571 7.664 159.24C7.664 158.909 7.58933 158.611 7.44 158.344C7.30133 158.077 7.11467 157.864 6.88 157.704C6.64533 157.544 6.384 157.464 6.096 157.464H3.296V161.048ZM11.2926 167V158.6H12.9566V161.24L12.7966 160.6C12.914 160.195 13.1113 159.827 13.3886 159.496C13.6766 159.165 14.002 158.904 14.3646 158.712C14.738 158.52 15.122 158.424 15.5166 158.424C15.698 158.424 15.8686 158.44 16.0286 158.472C16.1993 158.504 16.3326 158.541 16.4286 158.584L15.9966 160.376C15.8686 160.323 15.7246 160.28 15.5646 160.248C15.4153 160.205 15.266 160.184 15.1166 160.184C14.8286 160.184 14.5513 160.243 14.2846 160.36C14.0286 160.467 13.7993 160.621 13.5966 160.824C13.4046 161.016 13.25 161.245 13.1326 161.512C13.0153 161.768 12.9566 162.051 12.9566 162.36V167H11.2926ZM18.0178 167V158.6H19.6658V167H18.0178ZM18.8178 156.744C18.4658 156.744 18.1938 156.653 18.0018 156.472C17.8098 156.291 17.7138 156.035 17.7138 155.704C17.7138 155.395 17.8098 155.144 18.0018 154.952C18.2044 154.76 18.4764 154.664 18.8178 154.664C19.1698 154.664 19.4418 154.755 19.6338 154.936C19.8258 155.117 19.9218 155.373 19.9218 155.704C19.9218 156.013 19.8204 156.264 19.6178 156.456C19.4258 156.648 19.1591 156.744 18.8178 156.744ZM24.9509 167L21.3989 158.6H23.1749L25.7349 164.888L25.4309 165.032L28.1669 158.6H29.8629L26.1349 167H24.9509ZM36.1124 167V161.528C36.1124 161.059 35.9417 160.68 35.6004 160.392C35.2697 160.093 34.8484 159.944 34.3364 159.944C33.867 159.944 33.4404 160.04 33.0564 160.232C32.683 160.424 32.3417 160.717 32.0324 161.112L30.9604 160.04C31.4617 159.496 32.0004 159.091 32.5764 158.824C33.163 158.557 33.7924 158.424 34.4644 158.424C35.1044 158.424 35.659 158.531 36.1284 158.744C36.5977 158.957 36.9604 159.272 37.2164 159.688C37.4724 160.093 37.6004 160.589 37.6004 161.176V167H36.1124ZM33.6004 167.16C33.0564 167.16 32.571 167.053 32.1444 166.84C31.7177 166.627 31.3764 166.333 31.1204 165.96C30.875 165.576 30.7524 165.128 30.7524 164.616C30.7524 164.168 30.8324 163.773 30.9924 163.432C31.1524 163.091 31.387 162.808 31.6964 162.584C32.0164 162.36 32.411 162.189 32.8804 162.072C33.3604 161.955 33.9097 161.896 34.5284 161.896H36.8644L36.7204 163.208H34.3204C34.0004 163.208 33.7124 163.24 33.4564 163.304C33.211 163.357 32.9977 163.448 32.8164 163.576C32.6457 163.693 32.5177 163.837 32.4324 164.008C32.347 164.168 32.3044 164.36 32.3044 164.584C32.3044 164.819 32.363 165.027 32.4804 165.208C32.5977 165.379 32.7577 165.512 32.9604 165.608C33.163 165.704 33.3977 165.752 33.6644 165.752C34.0484 165.752 34.411 165.688 34.7524 165.56C35.1044 165.421 35.4137 165.235 35.6804 165C35.9577 164.765 36.171 164.504 36.3204 164.216L36.7044 165.288C36.4804 165.661 36.203 165.987 35.8724 166.264C35.5417 166.541 35.1844 166.76 34.8004 166.92C34.4164 167.08 34.0164 167.16 33.6004 167.16ZM43.2513 167.16C42.4726 167.16 41.7739 166.968 41.1553 166.584C40.5473 166.2 40.0619 165.677 39.6993 165.016C39.3473 164.355 39.1713 163.613 39.1713 162.792C39.1713 161.971 39.3473 161.229 39.6993 160.568C40.0619 159.907 40.5473 159.384 41.1553 159C41.7739 158.616 42.4726 158.424 43.2513 158.424C43.9979 158.424 44.6753 158.579 45.2833 158.888C45.9019 159.187 46.3713 159.597 46.6913 160.12L45.7793 161.24C45.6086 160.995 45.3899 160.771 45.1233 160.568C44.8566 160.365 44.5739 160.205 44.2753 160.088C43.9766 159.971 43.6886 159.912 43.4113 159.912C42.8993 159.912 42.4406 160.04 42.0353 160.296C41.6406 160.541 41.3259 160.883 41.0913 161.32C40.8566 161.757 40.7393 162.248 40.7393 162.792C40.7393 163.336 40.8619 163.827 41.1073 164.264C41.3526 164.691 41.6779 165.032 42.0833 165.288C42.4886 165.544 42.9366 165.672 43.4273 165.672C43.7153 165.672 43.9926 165.624 44.2593 165.528C44.5366 165.432 44.8033 165.288 45.0593 165.096C45.3153 164.904 45.5553 164.669 45.7793 164.392L46.6913 165.512C46.3499 165.992 45.8593 166.387 45.2193 166.696C44.5899 167.005 43.9339 167.16 43.2513 167.16ZM49.4194 170.68L51.1154 166.76L51.1314 168.072L46.9394 158.6H48.8594L51.4834 164.776C51.5367 164.883 51.6007 165.048 51.6754 165.272C51.75 165.485 51.814 165.699 51.8674 165.912L51.4514 166.008C51.5367 165.784 51.6167 165.56 51.6914 165.336C51.7767 165.112 51.8567 164.888 51.9314 164.664L54.1234 158.6H56.0754L52.6194 167L51.1954 170.68H49.4194ZM62.2086 167V155.8H66.7686C67.3766 155.8 67.926 155.955 68.4166 156.264C68.918 156.563 69.318 156.973 69.6166 157.496C69.9153 158.019 70.0646 158.6 70.0646 159.24C70.0646 159.88 69.9153 160.461 69.6166 160.984C69.318 161.507 68.918 161.928 68.4166 162.248C67.926 162.557 67.3766 162.712 66.7686 162.712H63.9366V167H62.2086ZM63.9366 161.048H66.7366C67.0246 161.048 67.286 160.968 67.5206 160.808C67.7553 160.637 67.942 160.419 68.0806 160.152C68.23 159.875 68.3046 159.571 68.3046 159.24C68.3046 158.909 68.23 158.611 68.0806 158.344C67.942 158.077 67.7553 157.864 67.5206 157.704C67.286 157.544 67.0246 157.464 66.7366 157.464H63.9366V161.048ZM75.553 167.16C74.7317 167.16 73.9957 166.973 73.345 166.6C72.705 166.216 72.1983 165.699 71.825 165.048C71.4517 164.387 71.265 163.635 71.265 162.792C71.265 161.949 71.4517 161.203 71.825 160.552C72.1983 159.891 72.705 159.373 73.345 159C73.9957 158.616 74.7317 158.424 75.553 158.424C76.3637 158.424 77.089 158.616 77.729 159C78.3797 159.373 78.8917 159.891 79.265 160.552C79.6383 161.203 79.825 161.949 79.825 162.792C79.825 163.635 79.6383 164.387 79.265 165.048C78.8917 165.699 78.3797 166.216 77.729 166.6C77.089 166.973 76.3637 167.16 75.553 167.16ZM75.553 165.656C76.0543 165.656 76.5023 165.533 76.897 165.288C77.2917 165.032 77.601 164.691 77.825 164.264C78.049 163.827 78.1557 163.336 78.145 162.792C78.1557 162.237 78.049 161.747 77.825 161.32C77.601 160.883 77.2917 160.541 76.897 160.296C76.5023 160.051 76.0543 159.928 75.553 159.928C75.0517 159.928 74.5983 160.056 74.193 160.312C73.7983 160.557 73.489 160.899 73.265 161.336C73.041 161.763 72.9343 162.248 72.945 162.792C72.9343 163.336 73.041 163.827 73.265 164.264C73.489 164.691 73.7983 165.032 74.193 165.288C74.5983 165.533 75.0517 165.656 75.553 165.656ZM81.6528 167V155.16H83.3008V167H81.6528ZM85.9084 167V158.6H87.5564V167H85.9084ZM86.7084 156.744C86.3564 156.744 86.0844 156.653 85.8924 156.472C85.7004 156.291 85.6044 156.035 85.6044 155.704C85.6044 155.395 85.7004 155.144 85.8924 154.952C86.095 154.76 86.367 154.664 86.7084 154.664C87.0604 154.664 87.3324 154.755 87.5244 154.936C87.7164 155.117 87.8124 155.373 87.8124 155.704C87.8124 156.013 87.711 156.264 87.5084 156.456C87.3164 156.648 87.0497 156.744 86.7084 156.744ZM93.6575 167.16C92.8788 167.16 92.1802 166.968 91.5615 166.584C90.9535 166.2 90.4682 165.677 90.1055 165.016C89.7535 164.355 89.5775 163.613 89.5775 162.792C89.5775 161.971 89.7535 161.229 90.1055 160.568C90.4682 159.907 90.9535 159.384 91.5615 159C92.1802 158.616 92.8788 158.424 93.6575 158.424C94.4042 158.424 95.0815 158.579 95.6895 158.888C96.3082 159.187 96.7775 159.597 97.0975 160.12L96.1855 161.24C96.0148 160.995 95.7962 160.771 95.5295 160.568C95.2628 160.365 94.9802 160.205 94.6815 160.088C94.3828 159.971 94.0948 159.912 93.8175 159.912C93.3055 159.912 92.8468 160.04 92.4415 160.296C92.0468 160.541 91.7322 160.883 91.4975 161.32C91.2628 161.757 91.1455 162.248 91.1455 162.792C91.1455 163.336 91.2682 163.827 91.5135 164.264C91.7588 164.691 92.0842 165.032 92.4895 165.288C92.8948 165.544 93.3428 165.672 93.8335 165.672C94.1215 165.672 94.3988 165.624 94.6655 165.528C94.9428 165.432 95.2095 165.288 95.4655 165.096C95.7215 164.904 95.9615 164.669 96.1855 164.392L97.0975 165.512C96.7562 165.992 96.2655 166.387 95.6255 166.696C94.9962 167.005 94.3402 167.16 93.6575 167.16ZM99.8256 170.68L101.522 166.76L101.538 168.072L97.3456 158.6H99.2656L101.89 164.776C101.943 164.883 102.007 165.048 102.082 165.272C102.156 165.485 102.22 165.699 102.274 165.912L101.858 166.008C101.943 165.784 102.023 165.56 102.098 165.336C102.183 165.112 102.263 164.888 102.338 164.664L104.53 158.6H106.482L103.026 167L101.602 170.68H99.8256ZM0.4 198L4.736 186.8H6.496L10.8 198H8.96L6.4 191.248C6.368 191.173 6.304 190.992 6.208 190.704C6.12267 190.416 6.02133 190.096 5.904 189.744C5.78667 189.392 5.68 189.072 5.584 188.784C5.488 188.485 5.424 188.293 5.392 188.208L5.76 188.192C5.696 188.373 5.616 188.603 5.52 188.88C5.43467 189.157 5.33867 189.451 5.232 189.76C5.136 190.069 5.04 190.363 4.944 190.64C4.848 190.907 4.768 191.131 4.704 191.312L2.16 198H0.4ZM2.32 195.216L2.96 193.552H8.048L8.784 195.216H2.32ZM15.6106 198.16C14.832 198.16 14.1333 197.968 13.5146 197.584C12.9066 197.2 12.4213 196.677 12.0586 196.016C11.7066 195.355 11.5306 194.613 11.5306 193.792C11.5306 192.971 11.7066 192.229 12.0586 191.568C12.4213 190.907 12.9066 190.384 13.5146 190C14.1333 189.616 14.832 189.424 15.6106 189.424C16.3573 189.424 17.0346 189.579 17.6426 189.888C18.2613 190.187 18.7306 190.597 19.0506 191.12L18.1386 192.24C17.968 191.995 17.7493 191.771 17.4826 191.568C17.216 191.365 16.9333 191.205 16.6346 191.088C16.336 190.971 16.048 190.912 15.7706 190.912C15.2586 190.912 14.8 191.04 14.3946 191.296C14 191.541 13.6853 191.883 13.4506 192.32C13.216 192.757 13.0986 193.248 13.0986 193.792C13.0986 194.336 13.2213 194.827 13.4666 195.264C13.712 195.691 14.0373 196.032 14.4426 196.288C14.848 196.544 15.296 196.672 15.7866 196.672C16.0746 196.672 16.352 196.624 16.6186 196.528C16.896 196.432 17.1626 196.288 17.4186 196.096C17.6746 195.904 17.9146 195.669 18.1386 195.392L19.0506 196.512C18.7093 196.992 18.2186 197.387 17.5786 197.696C16.9493 198.005 16.2933 198.16 15.6106 198.16ZM24.1731 198.16C23.3945 198.16 22.6958 197.968 22.0771 197.584C21.4691 197.2 20.9838 196.677 20.6211 196.016C20.2691 195.355 20.0931 194.613 20.0931 193.792C20.0931 192.971 20.2691 192.229 20.6211 191.568C20.9838 190.907 21.4691 190.384 22.0771 190C22.6958 189.616 23.3945 189.424 24.1731 189.424C24.9198 189.424 25.5971 189.579 26.2051 189.888C26.8238 190.187 27.2931 190.597 27.6131 191.12L26.7011 192.24C26.5305 191.995 26.3118 191.771 26.0451 191.568C25.7785 191.365 25.4958 191.205 25.1971 191.088C24.8985 190.971 24.6105 190.912 24.3331 190.912C23.8211 190.912 23.3625 191.04 22.9571 191.296C22.5625 191.541 22.2478 191.883 22.0131 192.32C21.7785 192.757 21.6611 193.248 21.6611 193.792C21.6611 194.336 21.7838 194.827 22.0291 195.264C22.2745 195.691 22.5998 196.032 23.0051 196.288C23.4105 196.544 23.8585 196.672 24.3491 196.672C24.6371 196.672 24.9145 196.624 25.1811 196.528C25.4585 196.432 25.7251 196.288 25.9811 196.096C26.2371 195.904 26.4771 195.669 26.7011 195.392L27.6131 196.512C27.2718 196.992 26.7811 197.387 26.1411 197.696C25.5118 198.005 24.8558 198.16 24.1731 198.16ZM33.0876 198.16C32.2236 198.16 31.4556 197.979 30.7836 197.616C30.1223 197.243 29.5996 196.736 29.2156 196.096C28.8423 195.456 28.6556 194.72 28.6556 193.888C28.6556 193.227 28.7623 192.624 28.9756 192.08C29.189 191.536 29.4823 191.067 29.8556 190.672C30.2396 190.267 30.693 189.957 31.2156 189.744C31.749 189.52 32.325 189.408 32.9436 189.408C33.4876 189.408 33.9943 189.515 34.4636 189.728C34.933 189.931 35.3383 190.213 35.6796 190.576C36.0316 190.939 36.2983 191.371 36.4796 191.872C36.6716 192.363 36.7623 192.901 36.7516 193.488L36.7356 194.192H29.8716L29.5036 192.88H35.3116L35.0716 193.152V192.768C35.0396 192.416 34.9223 192.101 34.7196 191.824C34.517 191.547 34.261 191.328 33.9516 191.168C33.6423 191.008 33.3063 190.928 32.9436 190.928C32.3676 190.928 31.8823 191.04 31.4876 191.264C31.093 191.477 30.7943 191.797 30.5916 192.224C30.389 192.64 30.2876 193.157 30.2876 193.776C30.2876 194.363 30.4103 194.875 30.6556 195.312C30.901 195.739 31.2476 196.069 31.6956 196.304C32.1436 196.539 32.661 196.656 33.2476 196.656C33.6636 196.656 34.0476 196.587 34.3996 196.448C34.7623 196.309 35.1516 196.059 35.5676 195.696L36.3996 196.864C36.1436 197.12 35.829 197.344 35.4556 197.536C35.093 197.728 34.7036 197.883 34.2876 198C33.8823 198.107 33.4823 198.16 33.0876 198.16ZM41.3426 198.16C40.6386 198.16 40.004 198.037 39.4386 197.792C38.8733 197.547 38.404 197.184 38.0306 196.704L39.1506 195.744C39.4706 196.117 39.8173 196.389 40.1906 196.56C40.5746 196.72 41.0066 196.8 41.4866 196.8C41.6786 196.8 41.8546 196.779 42.0146 196.736C42.1853 196.683 42.3293 196.608 42.4466 196.512C42.5746 196.416 42.6706 196.304 42.7346 196.176C42.7986 196.037 42.8306 195.888 42.8306 195.728C42.8306 195.451 42.7293 195.227 42.5266 195.056C42.42 194.981 42.2493 194.901 42.0146 194.816C41.7906 194.72 41.4973 194.624 41.1346 194.528C40.516 194.368 40.0093 194.187 39.6146 193.984C39.22 193.781 38.916 193.552 38.7026 193.296C38.5426 193.093 38.4253 192.875 38.3506 192.64C38.276 192.395 38.2386 192.128 38.2386 191.84C38.2386 191.371 38.372 190.955 38.6386 190.592C38.9053 190.229 39.2626 189.947 39.7106 189.744C40.1693 189.531 40.6813 189.424 41.2466 189.424C41.6413 189.424 42.0306 189.477 42.4146 189.584C42.8093 189.691 43.172 189.845 43.5026 190.048C43.8333 190.251 44.1106 190.491 44.3346 190.768L43.3906 191.808C43.188 191.605 42.964 191.429 42.7186 191.28C42.484 191.12 42.244 190.997 41.9986 190.912C41.7533 190.827 41.5293 190.784 41.3266 190.784C41.1026 190.784 40.9 190.805 40.7186 190.848C40.5373 190.891 40.3826 190.955 40.2546 191.04C40.1373 191.125 40.0466 191.232 39.9826 191.36C39.9186 191.488 39.8866 191.632 39.8866 191.792C39.8973 191.931 39.9293 192.064 39.9826 192.192C40.0466 192.309 40.132 192.411 40.2386 192.496C40.356 192.581 40.532 192.672 40.7666 192.768C41.0013 192.864 41.3 192.955 41.6626 193.04C42.196 193.179 42.6333 193.333 42.9746 193.504C43.3266 193.664 43.604 193.851 43.8066 194.064C44.02 194.267 44.1693 194.501 44.2546 194.768C44.34 195.035 44.3826 195.333 44.3826 195.664C44.3826 196.144 44.244 196.576 43.9666 196.96C43.7 197.333 43.3373 197.627 42.8786 197.84C42.42 198.053 41.908 198.16 41.3426 198.16ZM48.9989 198.16C48.2949 198.16 47.6602 198.037 47.0949 197.792C46.5295 197.547 46.0602 197.184 45.6869 196.704L46.8069 195.744C47.1269 196.117 47.4735 196.389 47.8469 196.56C48.2309 196.72 48.6629 196.8 49.1429 196.8C49.3349 196.8 49.5109 196.779 49.6709 196.736C49.8415 196.683 49.9855 196.608 50.1029 196.512C50.2309 196.416 50.3269 196.304 50.3909 196.176C50.4549 196.037 50.4869 195.888 50.4869 195.728C50.4869 195.451 50.3855 195.227 50.1829 195.056C50.0762 194.981 49.9055 194.901 49.6709 194.816C49.4469 194.72 49.1535 194.624 48.7909 194.528C48.1722 194.368 47.6655 194.187 47.2709 193.984C46.8762 193.781 46.5722 193.552 46.3589 193.296C46.1989 193.093 46.0815 192.875 46.0069 192.64C45.9322 192.395 45.8949 192.128 45.8949 191.84C45.8949 191.371 46.0282 190.955 46.2949 190.592C46.5615 190.229 46.9189 189.947 47.3669 189.744C47.8255 189.531 48.3375 189.424 48.9029 189.424C49.2975 189.424 49.6869 189.477 50.0709 189.584C50.4655 189.691 50.8282 189.845 51.1589 190.048C51.4895 190.251 51.7669 190.491 51.9909 190.768L51.0469 191.808C50.8442 191.605 50.6202 191.429 50.3749 191.28C50.1402 191.12 49.9002 190.997 49.6549 190.912C49.4095 190.827 49.1855 190.784 48.9829 190.784C48.7589 190.784 48.5562 190.805 48.3749 190.848C48.1935 190.891 48.0389 190.955 47.9109 191.04C47.7935 191.125 47.7029 191.232 47.6389 191.36C47.5749 191.488 47.5429 191.632 47.5429 191.792C47.5535 191.931 47.5855 192.064 47.6389 192.192C47.7029 192.309 47.7882 192.411 47.8949 192.496C48.0122 192.581 48.1882 192.672 48.4229 192.768C48.6575 192.864 48.9562 192.955 49.3189 193.04C49.8522 193.179 50.2895 193.333 50.6309 193.504C50.9829 193.664 51.2602 193.851 51.4629 194.064C51.6762 194.267 51.8255 194.501 51.9109 194.768C51.9962 195.035 52.0389 195.333 52.0389 195.664C52.0389 196.144 51.9002 196.576 51.6229 196.96C51.3562 197.333 50.9935 197.627 50.5349 197.84C50.0762 198.053 49.5642 198.16 48.9989 198.16ZM54.1271 198V189.6H55.7751V198H54.1271ZM54.9271 187.744C54.5751 187.744 54.3031 187.653 54.1111 187.472C53.9191 187.291 53.8231 187.035 53.8231 186.704C53.8231 186.395 53.9191 186.144 54.1111 185.952C54.3138 185.76 54.5858 185.664 54.9271 185.664C55.2791 185.664 55.5511 185.755 55.7431 185.936C55.9351 186.117 56.0311 186.373 56.0311 186.704C56.0311 187.013 55.9298 187.264 55.7271 187.456C55.5351 187.648 55.2685 187.744 54.9271 187.744ZM62.7243 198.16C62.3616 198.16 61.9989 198.101 61.6363 197.984C61.2843 197.867 60.9589 197.712 60.6603 197.52C60.3723 197.317 60.1269 197.099 59.9243 196.864C59.7323 196.619 59.6043 196.373 59.5403 196.128L59.9563 195.904V197.952H58.3083V186.16H59.9563V191.52L59.7003 191.376C59.7536 191.131 59.8709 190.896 60.0523 190.672C60.2336 190.437 60.4629 190.229 60.7403 190.048C61.0283 189.856 61.3376 189.707 61.6683 189.6C61.9989 189.483 62.3349 189.424 62.6763 189.424C63.4336 189.424 64.1056 189.611 64.6923 189.984C65.2789 190.357 65.7429 190.875 66.0843 191.536C66.4256 192.187 66.5963 192.933 66.5963 193.776C66.5963 194.619 66.4256 195.371 66.0843 196.032C65.7536 196.693 65.2949 197.216 64.7083 197.6C64.1216 197.973 63.4603 198.16 62.7243 198.16ZM62.4523 196.656C62.9429 196.656 63.3803 196.533 63.7643 196.288C64.1483 196.032 64.4523 195.691 64.6763 195.264C64.9003 194.827 65.0123 194.331 65.0123 193.776C65.0123 193.232 64.9003 192.747 64.6763 192.32C64.4629 191.883 64.1643 191.541 63.7803 191.296C63.3963 191.051 62.9536 190.928 62.4523 190.928C61.9509 190.928 61.5083 191.051 61.1243 191.296C60.7403 191.541 60.4363 191.883 60.2123 192.32C59.9883 192.747 59.8763 193.232 59.8763 193.776C59.8763 194.331 59.9883 194.827 60.2123 195.264C60.4363 195.691 60.7403 196.032 61.1243 196.288C61.5083 196.533 61.9509 196.656 62.4523 196.656ZM68.6584 198V189.6H70.3064V198H68.6584ZM69.4584 187.744C69.1064 187.744 68.8344 187.653 68.6424 187.472C68.4504 187.291 68.3544 187.035 68.3544 186.704C68.3544 186.395 68.4504 186.144 68.6424 185.952C68.845 185.76 69.117 185.664 69.4584 185.664C69.8104 185.664 70.0824 185.755 70.2744 185.936C70.4664 186.117 70.5624 186.373 70.5624 186.704C70.5624 187.013 70.461 187.264 70.2584 187.456C70.0664 187.648 69.7997 187.744 69.4584 187.744ZM72.8715 198V186.16H74.5195V198H72.8715ZM77.1271 198V189.6H78.7751V198H77.1271ZM77.9271 187.744C77.5751 187.744 77.3031 187.653 77.1111 187.472C76.9191 187.291 76.8231 187.035 76.8231 186.704C76.8231 186.395 76.9191 186.144 77.1111 185.952C77.3138 185.76 77.5858 185.664 77.9271 185.664C78.2791 185.664 78.5511 185.755 78.7431 185.936C78.9351 186.117 79.0311 186.373 79.0311 186.704C79.0311 187.013 78.9298 187.264 78.7271 187.456C78.5351 187.648 78.2685 187.744 77.9271 187.744ZM82.3483 198V187.456H83.9963V198H82.3483ZM80.6043 191.2V189.6H85.9483V191.2H80.6043ZM88.8569 201.68L90.5529 197.76L90.5689 199.072L86.3769 189.6H88.2969L90.9209 195.776C90.9742 195.883 91.0382 196.048 91.1129 196.272C91.1875 196.485 91.2515 196.699 91.3049 196.912L90.8889 197.008C90.9742 196.784 91.0542 196.56 91.1289 196.336C91.2142 196.112 91.2942 195.888 91.3689 195.664L93.5609 189.6H95.5129L92.0569 198L90.6329 201.68H88.8569Z" fill="#2D2D2D" fill-opacity="0.58"/>
</svg>
