<svg width="96" height="96" viewBox="0 0 96 96" fill="none" xmlns="http://www.w3.org/2000/svg">
<g filter="url(#filter0_d_1_85)">
<rect x="18" y="14" width="60" height="60" rx="8" fill="white"/>
</g>
<path d="M43.0533 36.3867C42.4933 36.3867 42.0533 35.9334 42.0533 35.3867V31.6667C42.0533 31.1201 42.4933 30.6667 43.0533 30.6667C43.6133 30.6667 44.0533 31.1201 44.0533 31.6667V35.3734C44.0533 35.9334 43.6133 36.3867 43.0533 36.3867Z" fill="#292D32"/>
<path d="M52.9467 36.3867C52.3867 36.3867 51.9467 35.9334 51.9467 35.3867V31.6667C51.9467 31.1067 52.4 30.6667 52.9467 30.6667C53.5067 30.6667 53.9467 31.1201 53.9467 31.6667V35.3734C53.9467 35.9334 53.5067 36.3867 52.9467 36.3867Z" fill="#292D32"/>
<path d="M58.0933 34.0001C57.2133 33.3467 55.9466 33.9734 55.9466 35.0801V35.2134C55.9466 36.7734 54.8266 38.2134 53.2666 38.3734C51.4666 38.5601 49.9466 37.1467 49.9466 35.3867V34.0001C49.9466 33.2667 49.3466 32.6667 48.6133 32.6667H47.3866C46.6533 32.6667 46.0533 33.2667 46.0533 34.0001V35.3867C46.0533 36.4401 45.5066 37.3734 44.68 37.8934C44.56 37.9734 44.4266 38.0401 44.2933 38.1067C44.1733 38.1734 44.04 38.2267 43.8933 38.2667C43.7333 38.3201 43.56 38.3601 43.3733 38.3734C43.16 38.4001 42.9466 38.4001 42.7333 38.3734C42.5466 38.3601 42.3733 38.3201 42.2133 38.2667C42.08 38.2267 41.9466 38.1734 41.8133 38.1067C41.68 38.0401 41.5466 37.9734 41.4266 37.8934C40.5866 37.3067 40.0533 36.2934 40.0533 35.2134V35.0801C40.0533 34.0534 38.96 33.4401 38.0933 33.8801C38.08 33.8934 38.0666 33.8934 38.0533 33.9067C38 33.9334 37.96 33.9601 37.9066 34.0001C37.8666 34.0401 37.8133 34.0667 37.7733 34.1067C37.4 34.4001 37.0666 34.7334 36.7866 35.0934C36.64 35.2534 36.52 35.4267 36.4133 35.6001C36.4 35.6134 36.3866 35.6267 36.3733 35.6534C36.2533 35.8267 36.1466 36.0267 36.0533 36.2134C36.0266 36.2401 36.0133 36.2534 36.0133 36.2801C35.9333 36.4401 35.8533 36.6001 35.8 36.7734C35.76 36.8401 35.7466 36.8934 35.72 36.9601C35.64 37.1601 35.5866 37.3601 35.5333 37.5601C35.48 37.7467 35.44 37.9467 35.4133 38.1467C35.3866 38.2934 35.3733 38.4401 35.36 38.6001C35.3466 38.7867 35.3333 38.9734 35.3333 39.1601V50.8401C35.3333 54.4267 38.24 57.3334 41.8266 57.3334H54.1733C57.76 57.3334 60.6666 54.4267 60.6666 50.8401V39.1601C60.6666 37.0401 59.6533 35.1867 58.0933 34.0001ZM48 51.2267H41.8133C41.2666 51.2267 40.8133 50.7734 40.8133 50.2267C40.8133 49.6667 41.2666 49.2134 41.8133 49.2134H48C48.56 49.2134 49 49.6667 49 50.2267C49 50.7734 48.56 51.2267 48 51.2267ZM51.7066 46.2801H41.8133C41.2666 46.2801 40.8133 45.8267 40.8133 45.2801C40.8133 44.7201 41.2666 44.2667 41.8133 44.2667H51.7066C52.2666 44.2667 52.72 44.7201 52.72 45.2801C52.72 45.8267 52.2666 46.2801 51.7066 46.2801Z" fill="#292D32"/>
<defs>
<filter id="filter0_d_1_85" x="0" y="0" width="96" height="96" filterUnits="userSpaceOnUse" color-interpolation-filters="sRGB">
<feFlood flood-opacity="0" result="BackgroundImageFix"/>
<feColorMatrix in="SourceAlpha" type="matrix" values="0 0 0 0 0 0 0 0 0 0 0 0 0 0 0 0 0 0 127 0" result="hardAlpha"/>
<feOffset dy="4"/>
<feGaussianBlur stdDeviation="9"/>
<feComposite in2="hardAlpha" operator="out"/>
<feColorMatrix type="matrix" values="0 0 0 0 0 0 0 0 0 0 0 0 0 0 0 0 0 0 0.14 0"/>
<feBlend mode="normal" in2="BackgroundImageFix" result="effect1_dropShadow_1_85"/>
<feBlend mode="normal" in="SourceGraphic" in2="effect1_dropShadow_1_85" result="shape"/>
</filter>
</defs>
</svg>
