<svg width="156" height="36" viewBox="0 0 156 36" fill="none" xmlns="http://www.w3.org/2000/svg">
<path d="M4.05731 12.5832C3.32131 12.5832 2.65465 12.4179 2.05731 12.0872C1.45998 11.7459 0.963979 11.2605 0.569313 10.6312L1.52931 9.55919C2.03065 10.1139 2.46798 10.4925 2.84131 10.6952C3.21465 10.8979 3.61998 10.9992 4.05731 10.9992C4.49465 10.9992 4.88931 10.9032 5.24131 10.7112C5.59331 10.5192 5.87065 10.2579 6.07331 9.92719C6.28665 9.59652 6.39331 9.22852 6.39331 8.82319C6.39331 8.39652 6.29198 8.01786 6.08931 7.68719C5.89731 7.34586 5.63598 7.07919 5.30531 6.88719C4.97465 6.68452 4.60131 6.58319 4.18531 6.58319C3.98265 6.58319 3.79065 6.59919 3.60931 6.63119C3.42798 6.65252 3.20931 6.71119 2.95331 6.80719C2.69731 6.90319 2.36131 7.05252 1.94531 7.25519L1.03331 6.02319L1.68931 1.27119H7.73731V2.87119H2.77731L3.11331 2.56719L2.58531 6.11919L2.18531 5.65519C2.29198 5.54852 2.47331 5.44719 2.72931 5.35119C2.98531 5.24452 3.26798 5.15919 3.57731 5.09519C3.89731 5.02052 4.20131 4.98319 4.48931 4.98319C5.17198 4.98319 5.77998 5.14319 6.31331 5.46319C6.85731 5.77252 7.28398 6.20452 7.59331 6.75919C7.91331 7.31386 8.07331 7.94852 8.07331 8.66319C8.07331 9.39919 7.89731 10.0659 7.54531 10.6632C7.19331 11.2499 6.71331 11.7192 6.10531 12.0712C5.49731 12.4125 4.81465 12.5832 4.05731 12.5832ZM13.8871 12.6312C13.0337 12.6312 12.2977 12.3965 11.6791 11.9272C11.0711 11.4579 10.6017 10.7965 10.2711 9.94319C9.9404 9.07919 9.77506 8.05519 9.77506 6.87119C9.77506 5.68719 9.9404 4.66852 10.2711 3.81519C10.6017 2.95119 11.0711 2.28452 11.6791 1.81519C12.2977 1.34586 13.0337 1.11119 13.8871 1.11119C14.7404 1.11119 15.4764 1.34586 16.0951 1.81519C16.7137 2.28452 17.1884 2.95119 17.5191 3.81519C17.8497 4.66852 18.0151 5.68719 18.0151 6.87119C18.0151 8.05519 17.8497 9.07919 17.5191 9.94319C17.1884 10.7965 16.7137 11.4579 16.0951 11.9272C15.4764 12.3965 14.7404 12.6312 13.8871 12.6312ZM13.8871 11.0632C14.6657 11.0632 15.2684 10.7005 15.6951 9.97519C16.1217 9.23919 16.3351 8.20452 16.3351 6.87119C16.3351 5.53786 16.1217 4.50852 15.6951 3.78319C15.2684 3.04719 14.6657 2.67919 13.8871 2.67919C13.1084 2.67919 12.5057 3.04719 12.0791 3.78319C11.6524 4.50852 11.4391 5.53786 11.4391 6.87119C11.4391 8.20452 11.6524 9.23919 12.0791 9.97519C12.5057 10.7005 13.1084 11.0632 13.8871 11.0632ZM20.2458 12.4712L19.7178 11.1592L23.1418 7.30319C23.3231 7.11119 23.5098 6.89252 23.7018 6.64719C23.9045 6.39119 24.0965 6.12986 24.2778 5.86319C24.4591 5.59652 24.6031 5.33519 24.7098 5.07919C24.8271 4.81252 24.8858 4.56186 24.8858 4.32719C24.8858 3.98586 24.8165 3.69786 24.6778 3.46319C24.5498 3.21786 24.3578 3.03119 24.1018 2.90319C23.8565 2.77519 23.5578 2.71119 23.2058 2.71119C22.8965 2.71119 22.5925 2.80186 22.2938 2.98319C21.9951 3.16452 21.7231 3.42052 21.4778 3.75119C21.2325 4.08186 21.0405 4.46586 20.9018 4.90319L19.5738 4.07119C19.7551 3.45252 20.0271 2.92452 20.3898 2.48719C20.7631 2.03919 21.2058 1.69786 21.7178 1.46319C22.2405 1.22852 22.8058 1.11119 23.4138 1.11119C24.0431 1.11119 24.6031 1.24452 25.0938 1.51119C25.5845 1.76719 25.9685 2.12986 26.2458 2.59919C26.5231 3.05786 26.6618 3.59119 26.6618 4.19919C26.6618 4.50852 26.6191 4.82852 26.5338 5.15919C26.4485 5.47919 26.3098 5.81519 26.1178 6.16719C25.9365 6.51919 25.7018 6.89252 25.4138 7.28719C25.1258 7.67119 24.7791 8.08186 24.3738 8.51919L21.8298 11.2872L21.5098 10.8072H27.0138V12.4712H20.2458ZM33.5758 12.4712V1.27119H35.1278L41.9758 10.4392L41.7198 10.5832C41.6451 10.1459 41.5811 9.63919 41.5278 9.06319C41.4851 8.48719 41.4531 7.85252 41.4318 7.15919C41.4105 6.46586 41.3998 5.72986 41.3998 4.95119V1.27119H43.1278V12.4712H41.5438L34.8078 3.63919L34.9838 3.41519C35.0585 4.22586 35.1171 4.89252 35.1598 5.41519C35.2025 5.92719 35.2345 6.33786 35.2558 6.64719C35.2771 6.95652 35.2878 7.20186 35.2878 7.38319C35.2985 7.55386 35.3038 7.69786 35.3038 7.81519V12.4712H33.5758ZM49.7673 12.6312C48.9033 12.6312 48.1353 12.4499 47.4633 12.0872C46.802 11.7139 46.2793 11.2072 45.8953 10.5672C45.522 9.92719 45.3353 9.19119 45.3353 8.35919C45.3353 7.69786 45.442 7.09519 45.6553 6.55119C45.8686 6.00719 46.162 5.53786 46.5353 5.14319C46.9193 4.73786 47.3726 4.42852 47.8953 4.21519C48.4286 3.99119 49.0046 3.87919 49.6233 3.87919C50.1673 3.87919 50.674 3.98586 51.1433 4.19919C51.6126 4.40186 52.018 4.68452 52.3593 5.04719C52.7113 5.40986 52.978 5.84186 53.1593 6.34319C53.3513 6.83386 53.442 7.37252 53.4313 7.95919L53.4153 8.66319H46.5513L46.1833 7.35119H51.9913L51.7513 7.62319V7.23919C51.7193 6.88719 51.602 6.57252 51.3993 6.29519C51.1966 6.01786 50.9406 5.79919 50.6313 5.63919C50.322 5.47919 49.986 5.39919 49.6233 5.39919C49.0473 5.39919 48.562 5.51119 48.1673 5.73519C47.7726 5.94852 47.474 6.26852 47.2713 6.69519C47.0686 7.11119 46.9673 7.62852 46.9673 8.24719C46.9673 8.83386 47.09 9.34586 47.3353 9.78319C47.5806 10.2099 47.9273 10.5405 48.3753 10.7752C48.8233 11.0099 49.3406 11.1272 49.9273 11.1272C50.3433 11.1272 50.7273 11.0579 51.0793 10.9192C51.442 10.7805 51.8313 10.5299 52.2473 10.1672L53.0793 11.3352C52.8233 11.5912 52.5086 11.8152 52.1353 12.0072C51.7726 12.1992 51.3833 12.3539 50.9673 12.4712C50.562 12.5779 50.162 12.6312 49.7673 12.6312ZM57.1301 12.4712L54.2661 4.07119L55.9301 4.05519L57.9781 10.3432L57.6101 10.3112L59.8341 5.39919H60.8261L63.0661 10.3272L62.6341 10.3592L64.6981 4.07119H66.3621L63.5301 12.4712H62.3941L60.0581 7.12719L60.4261 7.17519L58.2501 12.4712H57.1301ZM72.7633 12.4712V1.27119H77.1473C77.9473 1.27119 78.6673 1.40452 79.3073 1.67119C79.958 1.93786 80.5126 2.32186 80.9713 2.82319C81.43 3.32452 81.782 3.91652 82.0273 4.59919C82.2726 5.28186 82.3953 6.03919 82.3953 6.87119C82.3953 7.70319 82.2726 8.46586 82.0273 9.15919C81.782 9.84186 81.43 10.4339 80.9713 10.9352C80.5233 11.4259 79.974 11.8045 79.3233 12.0712C78.6726 12.3379 77.9473 12.4712 77.1473 12.4712H72.7633ZM74.4913 10.9832L74.4433 10.8072H77.0673C77.6326 10.8072 78.134 10.7165 78.5713 10.5352C79.0193 10.3539 79.3926 10.0979 79.6913 9.76719C80.0006 9.42586 80.2353 9.00986 80.3953 8.51919C80.5553 8.02852 80.6353 7.47919 80.6353 6.87119C80.6353 6.26319 80.5553 5.71919 80.3953 5.23919C80.2353 4.74852 80.0006 4.33252 79.6913 3.99119C79.382 3.64986 79.0086 3.38852 78.5713 3.20719C78.134 3.02586 77.6326 2.93519 77.0673 2.93519H74.3953L74.4913 2.79119V10.9832ZM88.2361 12.6312C87.3721 12.6312 86.6041 12.4499 85.9321 12.0872C85.2707 11.7139 84.7481 11.2072 84.3641 10.5672C83.9907 9.92719 83.8041 9.19119 83.8041 8.35919C83.8041 7.69786 83.9107 7.09519 84.1241 6.55119C84.3374 6.00719 84.6307 5.53786 85.0041 5.14319C85.3881 4.73786 85.8414 4.42852 86.3641 4.21519C86.8974 3.99119 87.4734 3.87919 88.0921 3.87919C88.6361 3.87919 89.1427 3.98586 89.6121 4.19919C90.0814 4.40186 90.4867 4.68452 90.8281 5.04719C91.1801 5.40986 91.4467 5.84186 91.6281 6.34319C91.8201 6.83386 91.9107 7.37252 91.9001 7.95919L91.8841 8.66319H85.0201L84.6521 7.35119H90.4601L90.2201 7.62319V7.23919C90.1881 6.88719 90.0707 6.57252 89.8681 6.29519C89.6654 6.01786 89.4094 5.79919 89.1001 5.63919C88.7907 5.47919 88.4547 5.39919 88.0921 5.39919C87.5161 5.39919 87.0307 5.51119 86.6361 5.73519C86.2414 5.94852 85.9427 6.26852 85.7401 6.69519C85.5374 7.11119 85.4361 7.62852 85.4361 8.24719C85.4361 8.83386 85.5587 9.34586 85.8041 9.78319C86.0494 10.2099 86.3961 10.5405 86.8441 10.7752C87.2921 11.0099 87.8094 11.1272 88.3961 11.1272C88.8121 11.1272 89.1961 11.0579 89.5481 10.9192C89.9107 10.7805 90.3001 10.5299 90.7161 10.1672L91.5481 11.3352C91.2921 11.5912 90.9774 11.8152 90.6041 12.0072C90.2414 12.1992 89.8521 12.3539 89.4361 12.4712C89.0307 12.5779 88.6307 12.6312 88.2361 12.6312ZM96.4911 12.6312C95.7871 12.6312 95.1524 12.5085 94.5871 12.2632C94.0217 12.0179 93.5524 11.6552 93.1791 11.1752L94.2991 10.2152C94.6191 10.5885 94.9657 10.8605 95.3391 11.0312C95.7231 11.1912 96.1551 11.2712 96.6351 11.2712C96.8271 11.2712 97.0031 11.2499 97.1631 11.2072C97.3337 11.1539 97.4777 11.0792 97.5951 10.9832C97.7231 10.8872 97.8191 10.7752 97.8831 10.6472C97.9471 10.5085 97.9791 10.3592 97.9791 10.1992C97.9791 9.92186 97.8777 9.69786 97.6751 9.52719C97.5684 9.45252 97.3977 9.37252 97.1631 9.28719C96.9391 9.19119 96.6457 9.09519 96.2831 8.99919C95.6644 8.83919 95.1577 8.65786 94.7631 8.45519C94.3684 8.25252 94.0644 8.02319 93.8511 7.76719C93.6911 7.56452 93.5737 7.34586 93.4991 7.11119C93.4244 6.86586 93.3871 6.59919 93.3871 6.31119C93.3871 5.84186 93.5204 5.42586 93.7871 5.06319C94.0537 4.70052 94.4111 4.41786 94.8591 4.21519C95.3177 4.00186 95.8297 3.89519 96.3951 3.89519C96.7897 3.89519 97.1791 3.94852 97.5631 4.05519C97.9577 4.16186 98.3204 4.31652 98.6511 4.51919C98.9817 4.72186 99.2591 4.96186 99.4831 5.23919L98.5391 6.27919C98.3364 6.07652 98.1124 5.90052 97.8671 5.75119C97.6324 5.59119 97.3924 5.46852 97.1471 5.38319C96.9017 5.29786 96.6777 5.25519 96.4751 5.25519C96.2511 5.25519 96.0484 5.27652 95.8671 5.31919C95.6857 5.36186 95.5311 5.42586 95.4031 5.51119C95.2857 5.59652 95.1951 5.70319 95.1311 5.83119C95.0671 5.95919 95.0351 6.10319 95.0351 6.26319C95.0457 6.40186 95.0777 6.53519 95.1311 6.66319C95.1951 6.78052 95.2804 6.88186 95.3871 6.96719C95.5044 7.05252 95.6804 7.14319 95.9151 7.23919C96.1497 7.33519 96.4484 7.42586 96.8111 7.51119C97.3444 7.64986 97.7817 7.80452 98.1231 7.97519C98.4751 8.13519 98.7524 8.32186 98.9551 8.53519C99.1684 8.73786 99.3177 8.97252 99.4031 9.23919C99.4884 9.50586 99.5311 9.80452 99.5311 10.1352C99.5311 10.6152 99.3924 11.0472 99.1151 11.4312C98.8484 11.8045 98.4857 12.0979 98.0271 12.3112C97.5684 12.5245 97.0564 12.6312 96.4911 12.6312ZM101.619 12.4712V4.07119H103.267V12.4712H101.619ZM102.419 2.21519C102.067 2.21519 101.795 2.12452 101.603 1.94319C101.411 1.76186 101.315 1.50586 101.315 1.17519C101.315 0.865858 101.411 0.615191 101.603 0.423191C101.806 0.231191 102.078 0.135191 102.419 0.135191C102.771 0.135191 103.043 0.225858 103.235 0.407191C103.427 0.588524 103.523 0.844524 103.523 1.17519C103.523 1.48452 103.422 1.73519 103.219 1.92719C103.027 2.11919 102.761 2.21519 102.419 2.21519ZM109.56 16.1512C108.963 16.1512 108.366 16.0552 107.768 15.8632C107.182 15.6819 106.707 15.4419 106.344 15.1432L106.952 13.8632C107.272 14.1085 107.667 14.3059 108.136 14.4552C108.616 14.6045 109.091 14.6792 109.56 14.6792C110.147 14.6792 110.638 14.5832 111.032 14.3912C111.427 14.1992 111.726 13.9165 111.928 13.5432C112.131 13.1699 112.232 12.7059 112.232 12.1512V10.5352L112.408 10.6472C112.355 10.9779 112.179 11.2979 111.88 11.6072C111.592 11.9059 111.23 12.1512 110.792 12.3432C110.355 12.5352 109.907 12.6312 109.448 12.6312C108.648 12.6312 107.934 12.4445 107.304 12.0712C106.686 11.6872 106.195 11.1699 105.832 10.5192C105.47 9.85786 105.288 9.10586 105.288 8.26319C105.288 7.42052 105.464 6.67386 105.816 6.02319C106.179 5.36186 106.67 4.84452 107.288 4.47119C107.918 4.08719 108.622 3.89519 109.4 3.89519C109.72 3.89519 110.03 3.93786 110.328 4.02319C110.627 4.09786 110.904 4.20986 111.16 4.35919C111.416 4.49786 111.646 4.65252 111.848 4.82319C112.051 4.99386 112.216 5.17519 112.344 5.36719C112.472 5.55919 112.552 5.74052 112.584 5.91119L112.232 6.03919V4.07119H113.88V11.9592C113.88 12.6312 113.779 13.2232 113.576 13.7352C113.384 14.2579 113.102 14.6952 112.728 15.0472C112.355 15.4099 111.902 15.6819 111.368 15.8632C110.835 16.0552 110.232 16.1512 109.56 16.1512ZM109.624 11.1112C110.147 11.1112 110.611 10.9885 111.016 10.7432C111.422 10.4979 111.736 10.1619 111.96 9.73519C112.184 9.30852 112.296 8.81786 112.296 8.26319C112.296 7.70852 112.179 7.21786 111.944 6.79119C111.72 6.35386 111.406 6.01252 111 5.76719C110.606 5.52186 110.147 5.39919 109.624 5.39919C109.112 5.39919 108.654 5.52719 108.248 5.78319C107.854 6.02852 107.539 6.36986 107.304 6.80719C107.08 7.23386 106.968 7.71919 106.968 8.26319C106.968 8.80719 107.08 9.29786 107.304 9.73519C107.539 10.1619 107.854 10.4979 108.248 10.7432C108.654 10.9885 109.112 11.1112 109.624 11.1112ZM116.191 12.4712V4.07119H117.839V5.79919L117.551 5.99119C117.658 5.61786 117.866 5.27652 118.175 4.96719C118.484 4.64719 118.852 4.39119 119.279 4.19919C119.706 3.99652 120.143 3.89519 120.591 3.89519C121.231 3.89519 121.764 4.02319 122.191 4.27919C122.618 4.52452 122.938 4.90319 123.151 5.41519C123.364 5.92719 123.471 6.57252 123.471 7.35119V12.4712H121.823V7.46319C121.823 6.98319 121.759 6.58852 121.631 6.27919C121.503 5.95919 121.306 5.72986 121.039 5.59119C120.772 5.44186 120.442 5.37786 120.047 5.39919C119.727 5.39919 119.434 5.45252 119.167 5.55919C118.9 5.65519 118.666 5.79386 118.463 5.97519C118.271 6.15652 118.116 6.36986 117.999 6.61519C117.892 6.84986 117.839 7.10586 117.839 7.38319V12.4712H117.023C116.884 12.4712 116.746 12.4712 116.607 12.4712C116.468 12.4712 116.33 12.4712 116.191 12.4712ZM134.063 12.6312C133.146 12.6312 132.335 12.4499 131.631 12.0872C130.938 11.7245 130.34 11.1805 129.839 10.4552L131.023 9.09519C131.546 9.84186 132.047 10.3592 132.527 10.6472C133.007 10.9352 133.578 11.0792 134.239 11.0792C134.644 11.0792 135.012 11.0152 135.343 10.8872C135.674 10.7592 135.935 10.5832 136.127 10.3592C136.319 10.1352 136.415 9.87919 136.415 9.59119C136.415 9.39919 136.383 9.21786 136.319 9.04719C136.255 8.87652 136.154 8.72186 136.015 8.58319C135.887 8.44452 135.716 8.31652 135.503 8.19919C135.3 8.08186 135.06 7.98052 134.783 7.89519C134.506 7.79919 134.186 7.71919 133.823 7.65519C133.247 7.53786 132.746 7.38319 132.319 7.19119C131.892 6.99919 131.535 6.75919 131.247 6.47119C130.959 6.18319 130.746 5.85786 130.607 5.49519C130.468 5.12186 130.399 4.70586 130.399 4.24719C130.399 3.63919 130.57 3.10052 130.911 2.63119C131.252 2.16186 131.711 1.79386 132.287 1.52719C132.874 1.24986 133.53 1.11119 134.255 1.11119C135.119 1.11119 135.871 1.28186 136.511 1.62319C137.162 1.95386 137.674 2.43919 138.047 3.07919L136.831 4.27919C136.511 3.75652 136.127 3.35652 135.679 3.07919C135.242 2.80186 134.751 2.66319 134.207 2.66319C133.791 2.66319 133.428 2.72719 133.119 2.85519C132.81 2.98319 132.564 3.16452 132.383 3.39919C132.212 3.62319 132.127 3.88986 132.127 4.19919C132.127 4.42319 132.17 4.63119 132.255 4.82319C132.34 5.00452 132.468 5.16986 132.639 5.31919C132.82 5.45786 133.06 5.58586 133.359 5.70319C133.658 5.80986 134.015 5.90586 134.431 5.99119C135.018 6.11919 135.54 6.28452 135.999 6.48719C136.458 6.67919 136.847 6.90852 137.167 7.17519C137.487 7.44186 137.727 7.74052 137.887 8.07119C138.058 8.40186 138.143 8.75919 138.143 9.14319C138.143 9.85786 137.978 10.4765 137.647 10.9992C137.316 11.5219 136.847 11.9272 136.239 12.2152C135.631 12.4925 134.906 12.6312 134.063 12.6312ZM141.215 12.4712V1.92719H142.863V12.4712H141.215ZM139.471 5.67119V4.07119H144.815V5.67119H139.471ZM146.316 12.4712V4.07119H147.98V6.71119L147.82 6.07119C147.937 5.66586 148.135 5.29786 148.412 4.96719C148.7 4.63652 149.025 4.37519 149.388 4.18319C149.761 3.99119 150.145 3.89519 150.54 3.89519C150.721 3.89519 150.892 3.91119 151.052 3.94319C151.223 3.97519 151.356 4.01252 151.452 4.05519L151.02 5.84719C150.892 5.79386 150.748 5.75119 150.588 5.71919C150.439 5.67652 150.289 5.65519 150.14 5.65519C149.852 5.65519 149.575 5.71386 149.308 5.83119C149.052 5.93786 148.823 6.09252 148.62 6.29519C148.428 6.48719 148.273 6.71652 148.156 6.98319C148.039 7.23919 147.98 7.52186 147.98 7.83119V12.4712H146.316ZM1.01331 32.4712V21.2712H2.70931L6.78931 27.9112L5.97331 27.8952L10.1013 21.2712H11.7013V32.4712H9.97331V27.8792C9.97331 26.9192 9.99465 26.0552 10.0373 25.2872C10.0906 24.5192 10.176 23.7565 10.2933 22.9992L10.5173 23.5912L6.85331 29.2552H5.79731L2.24531 23.6552L2.42131 22.9992C2.53865 23.7139 2.61865 24.4499 2.66131 25.2072C2.71465 25.9539 2.74131 26.8445 2.74131 27.8792V32.4712H1.01331ZM18.3454 32.6312C17.4814 32.6312 16.7134 32.4499 16.0414 32.0872C15.3801 31.7139 14.8574 31.2072 14.4734 30.5672C14.1001 29.9272 13.9134 29.1912 13.9134 28.3592C13.9134 27.6979 14.0201 27.0952 14.2334 26.5512C14.4468 26.0072 14.7401 25.5379 15.1134 25.1432C15.4974 24.7379 15.9508 24.4285 16.4734 24.2152C17.0068 23.9912 17.5828 23.8792 18.2014 23.8792C18.7454 23.8792 19.2521 23.9859 19.7214 24.1992C20.1908 24.4019 20.5961 24.6845 20.9374 25.0472C21.2894 25.4099 21.5561 25.8419 21.7374 26.3432C21.9294 26.8339 22.0201 27.3725 22.0094 27.9592L21.9934 28.6632H15.1294L14.7614 27.3512H20.5694L20.3294 27.6232V27.2392C20.2974 26.8872 20.1801 26.5725 19.9774 26.2952C19.7748 26.0179 19.5188 25.7992 19.2094 25.6392C18.9001 25.4792 18.5641 25.3992 18.2014 25.3992C17.6254 25.3992 17.1401 25.5112 16.7454 25.7352C16.3508 25.9485 16.0521 26.2685 15.8494 26.6952C15.6468 27.1112 15.5454 27.6285 15.5454 28.2472C15.5454 28.8339 15.6681 29.3459 15.9134 29.7832C16.1588 30.2099 16.5054 30.5405 16.9534 30.7752C17.4014 31.0099 17.9188 31.1272 18.5054 31.1272C18.9214 31.1272 19.3054 31.0579 19.6574 30.9192C20.0201 30.7805 20.4094 30.5299 20.8254 30.1672L21.6574 31.3352C21.4014 31.5912 21.0868 31.8152 20.7134 32.0072C20.3508 32.1992 19.9614 32.3539 19.5454 32.4712C19.1401 32.5779 18.7401 32.6312 18.3454 32.6312ZM23.8324 32.4712V20.6312H25.4804V32.4712H23.8324ZM32.2321 32.6312C31.8694 32.6312 31.5067 32.5725 31.1441 32.4552C30.7921 32.3379 30.4667 32.1832 30.1681 31.9912C29.8801 31.7885 29.6347 31.5699 29.4321 31.3352C29.2401 31.0899 29.1121 30.8445 29.0481 30.5992L29.4641 30.3752V32.4232H27.8161V20.6312H29.4641V25.9912L29.2081 25.8472C29.2614 25.6019 29.3787 25.3672 29.5601 25.1432C29.7414 24.9085 29.9707 24.7005 30.2481 24.5192C30.5361 24.3272 30.8454 24.1779 31.1761 24.0712C31.5067 23.9539 31.8427 23.8952 32.1841 23.8952C32.9414 23.8952 33.6134 24.0819 34.2001 24.4552C34.7867 24.8285 35.2507 25.3459 35.5921 26.0072C35.9334 26.6579 36.1041 27.4045 36.1041 28.2472C36.1041 29.0899 35.9334 29.8419 35.5921 30.5032C35.2614 31.1645 34.8027 31.6872 34.2161 32.0712C33.6294 32.4445 32.9681 32.6312 32.2321 32.6312ZM31.9601 31.1272C32.4507 31.1272 32.8881 31.0045 33.2721 30.7592C33.6561 30.5032 33.9601 30.1619 34.1841 29.7352C34.4081 29.2979 34.5201 28.8019 34.5201 28.2472C34.5201 27.7032 34.4081 27.2179 34.1841 26.7912C33.9707 26.3539 33.6721 26.0125 33.2881 25.7672C32.9041 25.5219 32.4614 25.3992 31.9601 25.3992C31.4587 25.3992 31.0161 25.5219 30.6321 25.7672C30.2481 26.0125 29.9441 26.3539 29.7201 26.7912C29.4961 27.2179 29.3841 27.7032 29.3841 28.2472C29.3841 28.8019 29.4961 29.2979 29.7201 29.7352C29.9441 30.1619 30.2481 30.5032 30.6321 30.7592C31.0161 31.0045 31.4587 31.1272 31.9601 31.1272ZM41.6702 32.6312C40.8489 32.6312 40.1129 32.4445 39.4622 32.0712C38.8222 31.6872 38.3155 31.1699 37.9422 30.5192C37.5689 29.8579 37.3822 29.1059 37.3822 28.2632C37.3822 27.4205 37.5689 26.6739 37.9422 26.0232C38.3155 25.3619 38.8222 24.8445 39.4622 24.4712C40.1129 24.0872 40.8489 23.8952 41.6702 23.8952C42.4809 23.8952 43.2062 24.0872 43.8462 24.4712C44.4969 24.8445 45.0089 25.3619 45.3822 26.0232C45.7555 26.6739 45.9422 27.4205 45.9422 28.2632C45.9422 29.1059 45.7555 29.8579 45.3822 30.5192C45.0089 31.1699 44.4969 31.6872 43.8462 32.0712C43.2062 32.4445 42.4809 32.6312 41.6702 32.6312ZM41.6702 31.1272C42.1715 31.1272 42.6195 31.0045 43.0142 30.7592C43.4089 30.5032 43.7182 30.1619 43.9422 29.7352C44.1662 29.2979 44.2729 28.8072 44.2622 28.2632C44.2729 27.7085 44.1662 27.2179 43.9422 26.7912C43.7182 26.3539 43.4089 26.0125 43.0142 25.7672C42.6195 25.5219 42.1715 25.3992 41.6702 25.3992C41.1689 25.3992 40.7155 25.5272 40.3102 25.7832C39.9155 26.0285 39.6062 26.3699 39.3822 26.8072C39.1582 27.2339 39.0515 27.7192 39.0622 28.2632C39.0515 28.8072 39.1582 29.2979 39.3822 29.7352C39.6062 30.1619 39.9155 30.5032 40.3102 30.7592C40.7155 31.0045 41.1689 31.1272 41.6702 31.1272ZM50.6819 32.6312C50.0846 32.6312 49.5619 32.4925 49.1139 32.2152C48.6766 31.9379 48.3353 31.5485 48.0899 31.0472C47.8553 30.5459 47.7379 29.9485 47.7379 29.2552V24.0712H49.3859V28.8072C49.3859 29.5432 49.5566 30.1245 49.8979 30.5512C50.2499 30.9779 50.7353 31.1912 51.3539 31.1912C51.6633 31.1912 51.9459 31.1432 52.2019 31.0472C52.4579 30.9405 52.6766 30.7965 52.8579 30.6152C53.0499 30.4339 53.1993 30.2152 53.3059 29.9592C53.4126 29.7032 53.4659 29.4259 53.4659 29.1272V24.0712H55.1139V32.4712H53.4659V30.7112L53.7539 30.5192C53.6259 30.9139 53.4073 31.2712 53.0979 31.5912C52.7993 31.9112 52.4419 32.1672 52.0259 32.3592C51.6099 32.5405 51.1619 32.6312 50.6819 32.6312ZM57.4254 32.4712V24.0712H59.0894V26.7112L58.9294 26.0712C59.0468 25.6659 59.2441 25.2979 59.5214 24.9672C59.8094 24.6365 60.1348 24.3752 60.4974 24.1832C60.8708 23.9912 61.2548 23.8952 61.6494 23.8952C61.8308 23.8952 62.0014 23.9112 62.1614 23.9432C62.3321 23.9752 62.4654 24.0125 62.5614 24.0552L62.1294 25.8472C62.0014 25.7939 61.8574 25.7512 61.6974 25.7192C61.5481 25.6765 61.3988 25.6552 61.2494 25.6552C60.9614 25.6552 60.6841 25.7139 60.4174 25.8312C60.1614 25.9379 59.9321 26.0925 59.7294 26.2952C59.5374 26.4872 59.3828 26.7165 59.2654 26.9832C59.1481 27.2392 59.0894 27.5219 59.0894 27.8312V32.4712H57.4254ZM63.8786 32.4712V24.0712H65.5266V25.7992L65.2386 25.9912C65.3452 25.6179 65.5532 25.2765 65.8626 24.9672C66.1719 24.6472 66.5399 24.3912 66.9666 24.1992C67.3932 23.9965 67.8306 23.8952 68.2786 23.8952C68.9186 23.8952 69.4519 24.0232 69.8786 24.2792C70.3052 24.5245 70.6252 24.9032 70.8386 25.4152C71.0519 25.9272 71.1586 26.5725 71.1586 27.3512V32.4712H69.5106V27.4632C69.5106 26.9832 69.4466 26.5885 69.3186 26.2792C69.1906 25.9592 68.9932 25.7299 68.7266 25.5912C68.4599 25.4419 68.1292 25.3779 67.7346 25.3992C67.4146 25.3992 67.1212 25.4525 66.8546 25.5592C66.5879 25.6552 66.3532 25.7939 66.1506 25.9752C65.9586 26.1565 65.8039 26.3699 65.6866 26.6152C65.5799 26.8499 65.5266 27.1059 65.5266 27.3832V32.4712H64.7106C64.5719 32.4712 64.4332 32.4712 64.2946 32.4712C64.1559 32.4712 64.0172 32.4712 63.8786 32.4712ZM77.3142 32.6312C76.4502 32.6312 75.6822 32.4499 75.0102 32.0872C74.3489 31.7139 73.8262 31.2072 73.4422 30.5672C73.0689 29.9272 72.8822 29.1912 72.8822 28.3592C72.8822 27.6979 72.9889 27.0952 73.2022 26.5512C73.4155 26.0072 73.7089 25.5379 74.0822 25.1432C74.4662 24.7379 74.9195 24.4285 75.4422 24.2152C75.9755 23.9912 76.5515 23.8792 77.1702 23.8792C77.7142 23.8792 78.2209 23.9859 78.6902 24.1992C79.1595 24.4019 79.5649 24.6845 79.9062 25.0472C80.2582 25.4099 80.5249 25.8419 80.7062 26.3432C80.8982 26.8339 80.9889 27.3725 80.9782 27.9592L80.9622 28.6632H74.0982L73.7302 27.3512H79.5382L79.2982 27.6232V27.2392C79.2662 26.8872 79.1489 26.5725 78.9462 26.2952C78.7435 26.0179 78.4875 25.7992 78.1782 25.6392C77.8689 25.4792 77.5329 25.3992 77.1702 25.3992C76.5942 25.3992 76.1089 25.5112 75.7142 25.7352C75.3195 25.9485 75.0209 26.2685 74.8182 26.6952C74.6155 27.1112 74.5142 27.6285 74.5142 28.2472C74.5142 28.8339 74.6369 29.3459 74.8822 29.7832C75.1275 30.2099 75.4742 30.5405 75.9222 30.7752C76.3702 31.0099 76.8875 31.1272 77.4742 31.1272C77.8902 31.1272 78.2742 31.0579 78.6262 30.9192C78.9889 30.7805 79.3782 30.5299 79.7942 30.1672L80.6262 31.3352C80.3702 31.5912 80.0555 31.8152 79.6822 32.0072C79.3195 32.1992 78.9302 32.3539 78.5142 32.4712C78.1089 32.5779 77.7089 32.6312 77.3142 32.6312ZM83.0252 35.3352L82.4172 34.5992C82.7905 34.3859 83.0945 34.1405 83.3292 33.8632C83.5639 33.5859 83.6812 33.3459 83.6812 33.1432C83.6812 33.0365 83.6545 32.9299 83.6012 32.8232C83.5479 32.7272 83.4359 32.5885 83.2652 32.4072C83.0519 32.2045 82.9132 32.0339 82.8492 31.8952C82.7852 31.7565 82.7532 31.6072 82.7532 31.4472C82.7532 31.1912 82.8439 30.9885 83.0252 30.8392C83.2065 30.6792 83.4412 30.5992 83.7292 30.5992C83.9959 30.5992 84.2359 30.6792 84.4492 30.8392C84.6732 30.9885 84.8439 31.2019 84.9612 31.4792C85.0892 31.7459 85.1532 32.0552 85.1532 32.4072C85.1532 32.7272 85.0999 33.0365 84.9932 33.3352C84.8865 33.6339 84.7372 33.9112 84.5452 34.1672C84.3532 34.4232 84.1292 34.6525 83.8732 34.8552C83.6172 35.0579 83.3345 35.2179 83.0252 35.3352ZM90.7672 32.4712L95.1032 21.2712H96.8632L101.167 32.4712H99.3272L96.7672 25.7192C96.7352 25.6445 96.6712 25.4632 96.5752 25.1752C96.4899 24.8872 96.3885 24.5672 96.2712 24.2152C96.1539 23.8632 96.0472 23.5432 95.9512 23.2552C95.8552 22.9565 95.7912 22.7645 95.7592 22.6792L96.1272 22.6632C96.0632 22.8445 95.9832 23.0739 95.8872 23.3512C95.8019 23.6285 95.7059 23.9219 95.5992 24.2312C95.5032 24.5405 95.4072 24.8339 95.3112 25.1112C95.2152 25.3779 95.1352 25.6019 95.0712 25.7832L92.5272 32.4712H90.7672ZM92.6872 29.6872L93.3272 28.0232H98.4152L99.1512 29.6872H92.6872ZM105.51 32.6312C104.913 32.6312 104.39 32.4925 103.942 32.2152C103.505 31.9379 103.163 31.5485 102.918 31.0472C102.683 30.5459 102.566 29.9485 102.566 29.2552V24.0712H104.214V28.8072C104.214 29.5432 104.385 30.1245 104.726 30.5512C105.078 30.9779 105.563 31.1912 106.182 31.1912C106.491 31.1912 106.774 31.1432 107.03 31.0472C107.286 30.9405 107.505 30.7965 107.686 30.6152C107.878 30.4339 108.027 30.2152 108.134 29.9592C108.241 29.7032 108.294 29.4259 108.294 29.1272V24.0712H109.942V32.4712H108.294V30.7112L108.582 30.5192C108.454 30.9139 108.235 31.2712 107.926 31.5912C107.627 31.9112 107.27 32.1672 106.854 32.3592C106.438 32.5405 105.99 32.6312 105.51 32.6312ZM115.054 32.6312C114.35 32.6312 113.715 32.5085 113.15 32.2632C112.584 32.0179 112.115 31.6552 111.742 31.1752L112.862 30.2152C113.182 30.5885 113.528 30.8605 113.902 31.0312C114.286 31.1912 114.718 31.2712 115.198 31.2712C115.39 31.2712 115.566 31.2499 115.726 31.2072C115.896 31.1539 116.04 31.0792 116.158 30.9832C116.286 30.8872 116.382 30.7752 116.446 30.6472C116.51 30.5085 116.542 30.3592 116.542 30.1992C116.542 29.9219 116.44 29.6979 116.238 29.5272C116.131 29.4525 115.96 29.3725 115.726 29.2872C115.502 29.1912 115.208 29.0952 114.846 28.9992C114.227 28.8392 113.72 28.6579 113.326 28.4552C112.931 28.2525 112.627 28.0232 112.414 27.7672C112.254 27.5645 112.136 27.3459 112.062 27.1112C111.987 26.8659 111.95 26.5992 111.95 26.3112C111.95 25.8419 112.083 25.4259 112.35 25.0632C112.616 24.7005 112.974 24.4179 113.422 24.2152C113.88 24.0019 114.392 23.8952 114.958 23.8952C115.352 23.8952 115.742 23.9485 116.126 24.0552C116.52 24.1619 116.883 24.3165 117.214 24.5192C117.544 24.7219 117.822 24.9619 118.046 25.2392L117.102 26.2792C116.899 26.0765 116.675 25.9005 116.43 25.7512C116.195 25.5912 115.955 25.4685 115.71 25.3832C115.464 25.2979 115.24 25.2552 115.038 25.2552C114.814 25.2552 114.611 25.2765 114.43 25.3192C114.248 25.3619 114.094 25.4259 113.966 25.5112C113.848 25.5965 113.758 25.7032 113.694 25.8312C113.63 25.9592 113.598 26.1032 113.598 26.2632C113.608 26.4019 113.64 26.5352 113.694 26.6632C113.758 26.7805 113.843 26.8819 113.95 26.9672C114.067 27.0525 114.243 27.1432 114.478 27.2392C114.712 27.3352 115.011 27.4259 115.374 27.5112C115.907 27.6499 116.344 27.8045 116.686 27.9752C117.038 28.1352 117.315 28.3219 117.518 28.5352C117.731 28.7379 117.88 28.9725 117.966 29.2392C118.051 29.5059 118.094 29.8045 118.094 30.1352C118.094 30.6152 117.955 31.0472 117.678 31.4312C117.411 31.8045 117.048 32.0979 116.59 32.3112C116.131 32.5245 115.619 32.6312 115.054 32.6312ZM120.95 32.4712V21.9272H122.598V32.4712H120.95ZM119.206 25.6712V24.0712H124.55V25.6712H119.206ZM126.05 32.4712V24.0712H127.714V26.7112L127.554 26.0712C127.672 25.6659 127.869 25.2979 128.146 24.9672C128.434 24.6365 128.76 24.3752 129.122 24.1832C129.496 23.9912 129.88 23.8952 130.274 23.8952C130.456 23.8952 130.626 23.9112 130.786 23.9432C130.957 23.9752 131.09 24.0125 131.186 24.0552L130.754 25.8472C130.626 25.7939 130.482 25.7512 130.322 25.7192C130.173 25.6765 130.024 25.6552 129.874 25.6552C129.586 25.6552 129.309 25.7139 129.042 25.8312C128.786 25.9379 128.557 26.0925 128.354 26.2952C128.162 26.4872 128.008 26.7165 127.89 26.9832C127.773 27.2392 127.714 27.5219 127.714 27.8312V32.4712H126.05ZM137.12 32.4712V26.9992C137.12 26.5299 136.95 26.1512 136.608 25.8632C136.278 25.5645 135.856 25.4152 135.344 25.4152C134.875 25.4152 134.448 25.5112 134.064 25.7032C133.691 25.8952 133.35 26.1885 133.04 26.5832L131.968 25.5112C132.47 24.9672 133.008 24.5619 133.584 24.2952C134.171 24.0285 134.8 23.8952 135.472 23.8952C136.112 23.8952 136.667 24.0019 137.136 24.2152C137.606 24.4285 137.968 24.7432 138.224 25.1592C138.48 25.5645 138.608 26.0605 138.608 26.6472V32.4712H137.12ZM134.608 32.6312C134.064 32.6312 133.579 32.5245 133.152 32.3112C132.726 32.0979 132.384 31.8045 132.128 31.4312C131.883 31.0472 131.76 30.5992 131.76 30.0872C131.76 29.6392 131.84 29.2445 132 28.9032C132.16 28.5619 132.395 28.2792 132.704 28.0552C133.024 27.8312 133.419 27.6605 133.888 27.5432C134.368 27.4259 134.918 27.3672 135.536 27.3672H137.872L137.728 28.6792H135.328C135.008 28.6792 134.72 28.7112 134.464 28.7752C134.219 28.8285 134.006 28.9192 133.824 29.0472C133.654 29.1645 133.526 29.3085 133.44 29.4792C133.355 29.6392 133.312 29.8312 133.312 30.0552C133.312 30.2899 133.371 30.4979 133.488 30.6792C133.606 30.8499 133.766 30.9832 133.968 31.0792C134.171 31.1752 134.406 31.2232 134.672 31.2232C135.056 31.2232 135.419 31.1592 135.76 31.0312C136.112 30.8925 136.422 30.7059 136.688 30.4712C136.966 30.2365 137.179 29.9752 137.328 29.6872L137.712 30.7592C137.488 31.1325 137.211 31.4579 136.88 31.7352C136.55 32.0125 136.192 32.2312 135.808 32.3912C135.424 32.5512 135.024 32.6312 134.608 32.6312ZM140.723 32.4712V20.6312H142.371V32.4712H140.723ZM144.979 32.4712V24.0712H146.627V32.4712H144.979ZM145.779 22.2152C145.427 22.2152 145.155 22.1245 144.963 21.9432C144.771 21.7619 144.675 21.5059 144.675 21.1752C144.675 20.8659 144.771 20.6152 144.963 20.4232C145.165 20.2312 145.437 20.1352 145.779 20.1352C146.131 20.1352 146.403 20.2259 146.595 20.4072C146.787 20.5885 146.883 20.8445 146.883 21.1752C146.883 21.4845 146.781 21.7352 146.579 21.9272C146.387 22.1192 146.12 22.2152 145.779 22.2152ZM154.136 32.4712V26.9992C154.136 26.5299 153.965 26.1512 153.624 25.8632C153.293 25.5645 152.872 25.4152 152.36 25.4152C151.89 25.4152 151.464 25.5112 151.08 25.7032C150.706 25.8952 150.365 26.1885 150.056 26.5832L148.984 25.5112C149.485 24.9672 150.024 24.5619 150.6 24.2952C151.186 24.0285 151.816 23.8952 152.488 23.8952C153.128 23.8952 153.682 24.0019 154.152 24.2152C154.621 24.4285 154.984 24.7432 155.24 25.1592C155.496 25.5645 155.624 26.0605 155.624 26.6472V32.4712H154.136ZM151.624 32.6312C151.08 32.6312 150.594 32.5245 150.168 32.3112C149.741 32.0979 149.4 31.8045 149.144 31.4312C148.898 31.0472 148.776 30.5992 148.776 30.0872C148.776 29.6392 148.856 29.2445 149.016 28.9032C149.176 28.5619 149.41 28.2792 149.72 28.0552C150.04 27.8312 150.434 27.6605 150.904 27.5432C151.384 27.4259 151.933 27.3672 152.552 27.3672H154.888L154.744 28.6792H152.344C152.024 28.6792 151.736 28.7112 151.48 28.7752C151.234 28.8285 151.021 28.9192 150.84 29.0472C150.669 29.1645 150.541 29.3085 150.456 29.4792C150.37 29.6392 150.328 29.8312 150.328 30.0552C150.328 30.2899 150.386 30.4979 150.504 30.6792C150.621 30.8499 150.781 30.9832 150.984 31.0792C151.186 31.1752 151.421 31.2232 151.688 31.2232C152.072 31.2232 152.434 31.1592 152.776 31.0312C153.128 30.8925 153.437 30.7059 153.704 30.4712C153.981 30.2365 154.194 29.9752 154.344 29.6872L154.728 30.7592C154.504 31.1325 154.226 31.4579 153.896 31.7352C153.565 32.0125 153.208 32.2312 152.824 32.3912C152.44 32.5512 152.04 32.6312 151.624 32.6312Z" fill="#2D2D2D" fill-opacity="0.58"/>
</svg>
